<?xml version="1.0" encoding="utf-8"?>
<!-- Generator: Adobe Illustrator 22.0.1, SVG Export Plug-In . SVG Version: 6.00 Build 0)  -->
<svg version="1.0" id="图层_1" xmlns="http://www.w3.org/2000/svg" xmlns:xlink="http://www.w3.org/1999/xlink" x="0px" y="0px"
	 viewBox="0 0 360 360" style="enable-background:new 0 0 360 360;" xml:space="preserve">
<g>
	<g>
		<path d="M322.3,157.9V89.5c0-3.1-1.2-6.1-3.5-8.4l-65.2-63.3c-2.2-2.2-5.2-3.4-8.3-3.4H60.3c-13,0-23.6,10.6-23.6,23.6v119.8h0
			c-13,0-22.2,8.2-22.2,21.2v94.5c0,13,9.2,23.6,22.2,23.6h0v23.6c0,13,12,23.6,24.9,23.6h235.7c13,0,24.6-10.6,24.6-23.6v-23.6
			c13,0,22.5-10.6,22.5-23.6v-94.5C344.5,166.1,335.3,157.9,322.3,157.9z M300.5,306.1c0,10.4-8.5,17.2-18.9,17.2H77.1
			c-10.4,0-18.9-6.8-18.9-17.2v-4.7h242.2V306.1z M69.8,268.5v-84.3h34.9c20.3,0,30.5,8.6,30.5,25.9c0,17.4-10.2,26.1-30.8,26.1
			H83.6v32.4H69.8z M147,268.5v-84.3h30.8c13.6,0,23.9,3.8,31,11.3c6.8,7.2,10.2,17.4,10.2,30.8c0,13.3-3.4,23.6-10.2,30.8
			c-7.1,7.6-17.4,11.3-31,11.3H147z M286.8,219.4v11.8h-41.1v37.3h-13.8v-84.3h57.4V196h-43.6v23.4H286.8z M300.5,157.9H58.2V55.6
			c0-10.4,8.5-18.9,18.9-18.9h146.1v53.4c0,13,10.6,23.6,23.6,23.6h53.7V157.9z M117,216.5c2.8-2.3,4.2-6,4.2-11
			c0-5-1.5-8.5-4.4-10.7c-2.7-2.2-7.2-3.3-13.3-3.3h-20v28.3h20C109.7,219.8,114.1,218.7,117,216.5z M175.1,191.5h-14.4v60.7h14.4
			c10.5,0,18.1-2.4,23-7.3c4.7-5,7.1-12.6,7.1-23c0-10.7-2.4-18.4-7.1-23.1C193.3,193.9,185.7,191.5,175.1,191.5z"/>
	</g>
</g>
</svg>
