<?xml version="1.0" encoding="utf-8"?>
<!-- Generator: Adobe Illustrator 22.0.1, SVG Export Plug-In . SVG Version: 6.00 Build 0)  -->
<svg version="1.0" id="图层_1" xmlns="http://www.w3.org/2000/svg" xmlns:xlink="http://www.w3.org/1999/xlink" x="0px" y="0px"
	 viewBox="0 0 360 360" style="enable-background:new 0 0 360 360;" xml:space="preserve">
<path d="M293.1,244c0,0-8.3,22.8-23,43.2c0,0,26.9,9.2,24.5,33.5c0,0,1,26.7-57.2,24.7c0,0-40.6-3.4-52.8-20.9h-10.8
	c-12.2,17.5-52.8,20.9-52.8,20.9c-58.2,1.9-57.2-25.2-57.2-25.2c-2.4-24.3,24.5-33.5,24.5-33.5c-15.2-20.4-23-43.2-23-43.2
	c-36.2,60.2-32.8-7.8-32.8-7.8c6.8-40.3,35.2-66.5,35.2-66.5c-3.9-36.4,10.8-43.2,10.8-43.2C81.8,13.6,177.2,15.5,179.1,15.5
	c2,0,97.3-1.9,100.3,111.1c0,0,15.2,6.3,10.8,43.2c0,0,28.4,26.2,35.2,66.5C325.9,235.8,329.3,303.7,293.1,244L293.1,244z"/>
</svg>
