<?xml version="1.0" encoding="utf-8"?>
<!-- Generator: Adobe Illustrator 22.0.1, SVG Export Plug-In . SVG Version: 6.00 Build 0)  -->
<svg version="1.0" id="图层_1" xmlns="http://www.w3.org/2000/svg" xmlns:xlink="http://www.w3.org/1999/xlink" x="0px" y="0px"
	 viewBox="0 0 360 360" style="enable-background:new 0 0 360 360;" xml:space="preserve">
<path d="M297.4,44.1H61.6c-25.9,0-47.1,21.2-47.1,47.1v117.9c0,25.9,21.2,47.1,47.1,47.1h44.3l-20,54.9c-2.2,6.1,1,12.9,7,15.1
	c6.1,2.2,12.9-1,15.1-7l22.9-63h97l22.9,63c2.2,6.1,9,9.3,15.1,7c6.1-2.2,9.3-9,7-15.1l-20-54.9h44.3c25.9,0,47.1-21.2,47.1-47.1
	V91.2C344.5,65.3,323.3,44.1,297.4,44.1z M280.3,150.9c0,6.5-5.3,11.8-11.8,11.8s-11.8-5.3-11.8-11.8v-18.7L184,205
	c-0.7,0.7-1.6,1.1-2.4,1.6c-0.1,0-0.1,0.1-0.1,0.1c0,0-0.1,0-0.1,0c-1.3,0.7-2.6,1.1-4,1.3c-0.2,0-0.3,0.1-0.5,0.1
	c-1.2,0.1-2.4,0-3.6-0.3c-0.4-0.1-0.7-0.1-1-0.2c-0.9-0.3-1.7-0.7-2.5-1.2c-0.6-0.3-1.2-0.7-1.7-1.1c-0.2-0.2-0.4-0.2-0.6-0.4
	c-0.3-0.3-0.5-0.8-0.8-1.1c-0.4-0.5-0.9-0.9-1.3-1.4l-27.5-47.7l-39,39c-4.6,4.6-12.1,4.6-16.7,0c-4.6-4.6-4.6-12.1,0-16.7
	l48.4-48.4c1-1.4,2.2-2.6,3.7-3.5c0.5-0.3,1.1-0.3,1.7-0.6c0.1,0,0.2-0.1,0.3-0.1c1.2-0.4,2.5-0.7,3.8-0.7c0.5,0,0.9,0.1,1.4,0.1
	c0.9,0.1,1.7,0.2,2.5,0.5c0.9,0.3,1.7,0.7,2.5,1.2c0.4,0.2,0.7,0.4,1.1,0.7c0.4,0.3,0.9,0.4,1.2,0.8c0.7,0.7,1,1.5,1.5,2.3
	c0,0,0.1,0.1,0.1,0.1l0.1,0.2c0.3,0.5,0.7,1,0.9,1.6l26.7,46.3l62-62h-18.7c-6.5,0-11.8-5.3-11.8-11.8S214.9,92,221.4,92h47.1
	c6.5,0,11.8,5.3,11.8,11.8V150.9z"/>
</svg>
