<?xml version="1.0" encoding="utf-8"?>
<!-- Generator: Adobe Illustrator 22.0.1, SVG Export Plug-In . SVG Version: 6.00 Build 0)  -->
<svg version="1.0" id="图层_1" xmlns="http://www.w3.org/2000/svg" xmlns:xlink="http://www.w3.org/1999/xlink" x="0px" y="0px"
	 viewBox="0 0 360 360" style="enable-background:new 0 0 360 360;" xml:space="preserve">
<g>
	<g>
		<path d="M13.5,201.8h37.8v-86.7H13.5V201.8z M136.3,240.8H97.8v0c0,0,5.5,50.9,46.2,104.2c0,0,35.4,1.6,40.7-13.2
			c0,0,3.8-9.8-7.5-22.4C173.6,303.5,141.6,276,136.3,240.8z M273.9,15.3c-69,83.3-200.6,88.2-200.6,88.2l0,111
			c155.9,7.2,201.1,66.7,201.1,66.7c60.3-15.2,68.8-123.3,68.8-123.3C347.8,1,273.9,15.3,273.9,15.3z"/>
	</g>
</g>
</svg>
