<?xml version="1.0" encoding="utf-8"?>
<!-- Generator: Adobe Illustrator 22.0.1, SVG Export Plug-In . SVG Version: 6.00 Build 0)  -->
<svg version="1.0" id="图层_1" xmlns="http://www.w3.org/2000/svg" xmlns:xlink="http://www.w3.org/1999/xlink" x="0px" y="0px"
	 viewBox="0 0 360 360" style="enable-background:new 0 0 360 360;" xml:space="preserve">
<path d="M247.1,31.9l-58.4,43.8c-6.3,4.8-14.7,5.9-22.1,3.2l-59.9-22.4c-6.8-2.5-14.3-1.8-20.5,2.1L24.4,97.1
	c-6.8,4.2-10.9,11.7-10.9,19.7v192.7c0,18.2,20.1,29.4,35.5,19.7l37.3-23.3c6.1-3.8,13.7-4.6,20.5-2.1l59.9,22.4
	c7.4,2.8,15.7,1.6,22.1-3.2l58.4-43.8c8.3-6.2,19.6-6.2,27.9,0l31.4,23.6c15.3,11.5,37.2,0.6,37.2-18.6V94.9
	c0-7.3-3.4-14.2-9.3-18.6l-59.3-44.5C266.7,25.7,255.3,25.7,247.1,31.9z M107.1,257.1c0,6.5-5.3,11.8-11.8,11.8
	c-6.5,0-11.8-5.3-11.8-11.8V139.3c0-6.5,5.3-11.8,11.8-11.8c6.5,0,11.8,5.3,11.8,11.8V257.1z M191,233.6c0,6.5-5.3,11.8-11.8,11.8
	s-11.8-5.3-11.8-11.8v-70.7c0-6.5,5.3-11.8,11.8-11.8s11.8,5.3,11.8,11.8V233.6z M273.5,210c0,6.5-5.3,11.8-11.8,11.8
	c-6.5,0-11.8-5.3-11.8-11.8v-94.3c0-6.5,5.3-11.8,11.8-11.8c6.5,0,11.8,5.3,11.8,11.8V210z"/>
</svg>
