<?xml version="1.0" encoding="utf-8"?>
<!-- Generator: Adobe Illustrator 22.0.1, SVG Export Plug-In . SVG Version: 6.00 Build 0)  -->
<svg version="1.0" id="图层_1" xmlns="http://www.w3.org/2000/svg" xmlns:xlink="http://www.w3.org/1999/xlink" x="0px" y="0px"
	 viewBox="0 0 360 360" style="enable-background:new 0 0 360 360;" xml:space="preserve">
<path d="M272.8,15.5H84.2c-25.9,0-47.1,21.2-47.1,47.1v235.7c0,25.9,21.2,47.1,47.1,47.1h188.6c25.9,0,47.1-21.2,47.1-47.1V62.6
	C319.9,36.7,298.7,15.5,272.8,15.5z M154.9,76.8V62.6h23.6h23.6v14.1h-23.6v14.1h23.6v14.1h-23.6v14.1h23.6v14.1h-23.6h-23.6h0V76.8
	z M194.4,157c-9.9,5.1-11.3,14.5-5.7,23.3c6.3,9.8-0.6,25.6-9.1,29.4c-13,5.8-16.3,20.5-8,29.7l0.5,0.7l-2.3-0.5
	C124.2,216.3,146.9,153.8,194.4,157z M84.2,133.4H60.6V62.7l0,0h0h23.6h0v0L107.8,98V62.6h23.6v70.7h-23.6L84.2,98V133.4z
	 M99.6,196.1c1.8,10.9,10.3,15.2,20.4,12.6c11.3-3,24.2,8.5,25.2,17.7c1.5,14.1,14.6,21.8,25.8,16.7l0.9-0.3l-1.2,2.1
	C134.5,281,81.8,240.1,99.6,196.1z M107.6,298c11,1.7,17.7-5.1,18.3-15.5c0.7-11.6,15.5-20.3,24.7-18.4c13.9,2.9,25.3-7,23.9-19.3
	l-0.2-1.4l1.8,2.2C199.4,291.2,144.1,328.5,107.6,298z M207.3,321.9c5-9.9,0.6-18.4-9.1-22.1c-10.9-4.2-14.6-21-10-29.1
	c7.1-12.3,1.1-26.2-11-28.7c-0.2,0-1.2-0.4-1.2-0.4l2.5-0.8C229.2,232.8,247.7,296.7,207.3,321.9z M237,236.6
	c-7.4,9-24.6,7.3-30.9,0.4c-9.5-10.5-24.7-9.1-30.8,1.6l-0.8,1c0,0,0-2.3,0-2.6c8.1-50.4,74.8-48.2,86.4-2.2
	C253.1,227,243.6,228.6,237,236.6z M282.2,133.4h-14.1l0,0h0L261,98l-7.1,35.4h0h-14.1l0,0l-14.1-70.7h14.1l7.1,35.4l7.1-35.4h0l0,0
	h14.1l7.1,35.4l7.1-35.4h14.1L282.2,133.4z"/>
</svg>
