<?xml version="1.0" encoding="utf-8"?>
<!-- Generator: Adobe Illustrator 22.0.1, SVG Export Plug-In . SVG Version: 6.00 Build 0)  -->
<svg version="1.0" id="图层_1" xmlns="http://www.w3.org/2000/svg" xmlns:xlink="http://www.w3.org/1999/xlink" x="0px" y="0px"
	 viewBox="0 0 360 360" style="enable-background:new 0 0 360 360;" xml:space="preserve">
<path d="M307.8,15.5H49.2c-6.7,0-12.1,6.4-12.1,14.2v292.5c0,11.1,10.3,17.9,18.4,12.2l23.2-16.6c4.1-2.9,9.2-2.7,13.2,0.5
	l30.3,24.7c4.2,3.4,9.7,3.4,13.8-0.1l32.5-27c4-3.3,9.2-3.5,13.4-0.4l37.8,27.8c4.4,3.2,10,2.8,14-1l26.9-25.6
	c3.9-3.7,9.4-4.2,13.8-1.2l27.4,19.1c8.1,5.6,18.3-1.2,18.3-12.3V29.7C319.9,21.9,314.5,15.5,307.8,15.5z M122.2,114.3v130.3h-20
	v-99c-5.9,7.4-11.2,13.8-16,19l-6.6-21.1c17.7-21.4,30.9-46.5,39.6-75.4l18.5,8.7C133.5,90.1,128.3,102.6,122.2,114.3z M149.3,245.4
	l-12.4-15.3c21.5-7,35.4-15.4,41.7-25.1c5.2-8.6,7.8-19.4,7.9-32.4h19.1c0,15.2-2.8,28.2-8.3,39
	C190.7,225.1,174.7,236.3,149.3,245.4z M166.1,166.7v47.7h-19.1v-65.1h96.5v63.4h-19v-46H166.1z M244.8,245.9
	c-15.5-9.7-31.1-17.2-46.8-22.4l10.6-15.5c17,5.5,32.7,12.5,47.1,20.7L244.8,245.9z M255.7,141.3H133.5v-17h51.7V117h-38.9v-15.1
	h38.9v-7.4H141V78.3h44.1V70H205v8.3h44.1v16.2H205v7.4h39.2V117H205v7.4h50.7V141.3z"/>
</svg>
