<?xml version="1.0" encoding="utf-8"?>
<!-- Generator: Adobe Illustrator 22.0.1, SVG Export Plug-In . SVG Version: 6.00 Build 0)  -->
<svg version="1.0" id="图层_1" xmlns="http://www.w3.org/2000/svg" xmlns:xlink="http://www.w3.org/1999/xlink" x="0px" y="0px"
	 viewBox="0 0 360 360" style="enable-background:new 0 0 360 360;" xml:space="preserve">
<g>
	<g>
		<path d="M319.9,15.5H37.1c-13,0-23.6,10.6-23.6,23.6v23.6c0,13,10.6,23.6,23.6,23.6h282.9c13,0,23.6-10.6,23.6-23.6V39
			C343.5,26.1,332.9,15.5,319.9,15.5z M127.2,251h31.1v-13h-31.1V251z M127.2,190.5h31.1v-13.2h-31.1V190.5z M127.2,220.8h31.1
			v-13.2h-31.1V220.8z M242.4,208.4h-29.1v27.1h29.1V208.4z M242.4,163.3h-29.1v27.2h29.1V163.3z M296.4,109.8H60.6
			c-13,0-23.6,10.6-23.6,23.6v188.6c0,13,10.6,23.6,23.6,23.6h235.7c13,0,23.6-10.6,23.6-23.6V133.3
			C319.9,120.4,309.3,109.8,296.4,109.8z M96.7,251h11.7v-73.7h-9.6V159h9.6v-18.9h18.9V159h31.1v-18.5h18.9V159h9.3v18.3h-9.3V251
			h10.2v18.3H96.7V251z M110.6,313.4l-15.8-11.3c9.2-8.8,17-19.2,23.6-31.1l15.7,7.5C127.3,292,119.5,303.6,110.6,313.4z
			 M262.2,292.9c0,12.7-6.4,19-19.2,19h-19.6l-5.3-19.2c7.5,0.6,13.8,0.9,18.7,0.9c3.8,0,5.7-2.6,5.7-7.7v-32.4h-30.2
			c-2.8,24.6-10.3,45.2-22.6,61.7l-13.8-12.5l-11.3,7.9c-4.1-8.4-10.4-18.6-18.9-30.5l15.3-9.6c7.4,9.4,13.3,17.7,17.5,24.9
			c10-16.5,15.1-36.3,15.3-59.6v-90.9h68.5V292.9z"/>
	</g>
</g>
</svg>
