<?xml version="1.0" encoding="utf-8"?>
<!-- Generator: Adobe Illustrator 22.0.1, SVG Export Plug-In . SVG Version: 6.00 Build 0)  -->
<svg version="1.0" id="图层_1" xmlns="http://www.w3.org/2000/svg" xmlns:xlink="http://www.w3.org/1999/xlink" x="0px" y="0px"
	 viewBox="0 0 360 360" style="enable-background:new 0 0 360 360;" xml:space="preserve">
<path d="M178.5,15.5c-91.1,0-165,73.9-165,165c0,91.1,73.9,165,165,165c91.1,0,165-73.9,165-165C343.5,89.4,269.6,15.5,178.5,15.5z
	 M231,129.8c2,6-1.2,12.4-7.2,14.4c-6,2-12.4-1.2-14.4-7.2l0,0c-2.7-8.1-12.4-17.5-30.9-17.5c-15.3,0-24.4,10.3-25.5,20.5
	c-1.3,12.5,9.4,22.7,27.8,26.6c36.9,7.7,47.7,32.4,45.8,51.2c-2,19.7-17.1,35.2-36.7,39.6v14.3c0,6.3-5.1,11.4-11.4,11.4
	c-6.3,0-11.4-5.1-11.4-11.4l0,0v-13.9c-23.4-3.8-36.7-18.9-41.1-32.2c-2-5.9,1.2-12.4,7.2-14.4c0,0,0,0,0,0c5.9-2,12.4,1.2,14.4,7.1
	c0,0,0,0,0,0c2.7,8.1,12.4,17.5,30.9,17.5c15.3,0,24.4-10.3,25.5-20.5c1.3-12.5-9.4-22.7-27.8-26.5c-36.9-7.7-47.7-32.4-45.8-51.2
	c2-19.7,17.1-35.2,36.7-39.6V83.8c0-6.3,5.1-11.4,11.4-11.4c6.3,0,11.4,5.1,11.4,11.4l0,0v13.9C213.3,101.4,226.6,116.6,231,129.8z"
	/>
</svg>
