<?xml version="1.0" encoding="utf-8"?>
<!-- Generator: Adobe Illustrator 22.0.1, SVG Export Plug-In . SVG Version: 6.00 Build 0)  -->
<svg version="1.0" id="图层_1" xmlns="http://www.w3.org/2000/svg" xmlns:xlink="http://www.w3.org/1999/xlink" x="0px" y="0px"
	 viewBox="0 0 360 360" style="enable-background:new 0 0 360 360;" xml:space="preserve">
<path d="M272.8,15.5H84.2c-25.9,0-47.1,21.2-47.1,47.1v235.7c0,25.9,21.2,47.1,47.1,47.1h188.6c25.9,0,47.1-21.2,47.1-47.1V62.6
	C319.9,36.7,298.7,15.5,272.8,15.5z M154.9,76.8V62.6h23.6h23.6v14.1h-23.6v14.1h23.6v14.1h-23.6v14.1h23.6v14.1h-23.6h-23.6h0V76.8
	z M132.2,225.1l13.8-40.9c1-2.9,3.8-4.9,6.9-4.9h50.8c3.2,0,6.1,2.1,7,5.3l11.2,39.5c0.5,1,0.8,2.1,0.8,3.3c0,4-3.2,7.2-7.2,7.2
	c0,0-0.1,0-0.1,0h-76.2c-2.3,0-4.5-1.1-5.9-3C131.8,229.7,131.5,227.3,132.2,225.1z M84.2,133.4H60.6V62.6l0,0h0h23.6h0v0L107.8,98
	V62.6h23.6v70.7h-23.6L84.2,98V133.4z M167.8,298.4c0,0-0.1,0-0.1,0H91.5c-2.3,0-4.5-1.1-5.9-3c-1.4-1.9-1.7-4.3-1-6.5L98.4,248
	c1-2.9,3.8-4.9,6.9-4.9H156c3.2,0,6.1,2.2,7,5.3l11.2,39.5c0.5,1,0.8,2.1,0.8,3.3C175,295.1,171.8,298.4,167.8,298.4z M265.5,298.4
	c-0.1,0-0.1,0-0.1,0h-76.2c-2.3,0-4.5-1.1-5.9-3c-1.4-1.9-1.7-4.3-1-6.5l13.8-40.8c1-2.9,3.8-4.9,6.9-4.9h47.6c3.2,0,6.1,2.2,7,5.3
	l14.4,39.5c0.5,1,0.8,2.1,0.8,3.3C272.8,295.1,269.5,298.4,265.5,298.4z M282.2,133.4h-14.1l0,0h0L261,98l-7.1,35.4h0h-14.1l0,0
	l-14.1-70.7h14.1l7.1,35.4l7.1-35.4h0l0,0h14.1l7.1,35.4l7.1-35.4h14.1L282.2,133.4z"/>
</svg>
