<?xml version="1.0" encoding="utf-8"?>
<!-- Generator: Adobe Illustrator 22.0.1, SVG Export Plug-In . SVG Version: 6.00 Build 0)  -->
<svg version="1.1" id="图层_1" xmlns="http://www.w3.org/2000/svg" xmlns:xlink="http://www.w3.org/1999/xlink" x="0px" y="0px"
	 viewBox="0 0 360 360" style="enable-background:new 0 0 360 360;" xml:space="preserve">
<path d="M273.8,13.5H85.2c-25.9,0-47.1,21.2-47.1,47.1v235.7c0,25.9,21.2,47.1,47.1,47.1h188.6c25.9,0,47.1-21.2,47.1-47.1V60.6
	C320.9,34.7,299.7,13.5,273.8,13.5z M155.9,74.8V60.6h23.6h23.6v14.1h-23.6v14.1h23.6v14.1h-23.6v14.1h23.6v14.1h-23.6h-23.6h0V74.8
	z M61.6,60.6h23.6h0v0L108.8,96V60.6h23.6v70.7h-23.6L85.2,96v35.4H61.6V60.6L61.6,60.6L61.6,60.6z M61.6,178.5h117.9v23.6H61.6
	V178.5z M61.6,225.6h117.9v23.6H61.6V225.6z M179.5,296.4H61.6v-23.6h117.9V296.4z M297.4,296.4h-94.3V178.5h94.3V296.4z
	 M283.2,131.4h-14.1l0,0h0L262,96l-7.1,35.4h0h-14.1h0l-14.1-70.7h14.1l7.1,35.4l7.1-35.4l0,0l0,0h14.1l7.1,35.4l7.1-35.4h14.1
	L283.2,131.4z"/>
</svg>
