<?xml version="1.0" encoding="utf-8"?>
<!-- Generator: Adobe Illustrator 22.0.1, SVG Export Plug-In . SVG Version: 6.00 Build 0)  -->
<svg version="1.0" id="图层_1" xmlns="http://www.w3.org/2000/svg" xmlns:xlink="http://www.w3.org/1999/xlink" x="0px" y="0px"
	 viewBox="0 0 360 360" style="enable-background:new 0 0 360 360;" xml:space="preserve">
<path d="M296.4,15.5H60.6c-25.9,0-47.1,21.2-47.1,47.1v235.7c0,25.9,21.2,47.1,47.1,47.1h235.7c25.9,0,47.1-21.2,47.1-47.1V62.6
	C343.5,36.7,322.3,15.5,296.4,15.5z M252,285.8c-22.4,0-40.6-18.2-40.6-40.6c0-10.5,4-20,10.5-27.2l-35.5-62.4
	c-2.6,0.5-5.3,0.8-8,0.8c-2.7,0-5.4-0.3-8-0.8L135,218c6.6,7.2,10.5,16.8,10.5,27.2c0,22.4-18.2,40.6-40.6,40.6
	s-40.6-18.2-40.6-40.6s18.2-40.6,40.6-40.6c2.7,0,5.4,0.3,8,0.8l35.5-62.4c-6.6-7.2-10.5-16.8-10.5-27.2c0-22.4,18.2-40.6,40.6-40.6
	c22.4,0,40.6,18.2,40.6,40.6c0,10.5-4,20-10.5,27.2l35.5,62.4c2.6-0.5,5.3-0.8,8-0.8c22.4,0,40.6,18.2,40.6,40.6
	S274.4,285.8,252,285.8z"/>
</svg>
