<?xml version="1.0" encoding="utf-8"?>
<!-- Generator: Adobe Illustrator 22.0.1, SVG Export Plug-In . SVG Version: 6.00 Build 0)  -->
<svg version="1.0" id="图层_1" xmlns="http://www.w3.org/2000/svg" xmlns:xlink="http://www.w3.org/1999/xlink" x="0px" y="0px"
	 viewBox="0 0 360 360" style="enable-background:new 0 0 360 360;" xml:space="preserve">
<path d="M308,26.4c-7.2-6.7-17.1-10.9-28-10.9H76.9c-10.8,0-20.8,4.2-28,10.9c-7.3,6.9-11.9,16.3-11.9,26.8V333h0.1
	c0,2.2,0.6,4.4,1.8,6.4c3.6,5.9,11.5,7.8,17.6,4.3L171,277.3c2.3-1.4,4.9-2,7.5-2c2.6,0,5.2,0.7,7.5,2l113.6,65.9
	c2.1,1.4,4.7,2.3,7.4,2.3c7.1,0,12.9-5.6,12.9-12.5V53.2C319.9,42.8,315.4,33.3,308,26.4z M248.9,125.8l-28,27.8l6.5,38.5
	c0.7,3.9-1,7.8-4.3,10.1c-1.8,1.2-4,1.9-6.1,1.9c-1.8,0-3.5-0.4-5.1-1.3l-33.3-17.3l-33.3,17.3c-1.6,0.8-3.4,1.3-5.1,1.3
	c-2.1,0-4.3-0.6-6.1-1.9c-3.3-2.3-5-6.2-4.3-10.1l6.5-38.5l-28-27.8c-2.8-2.7-3.7-6.8-2.5-10.4c1.3-3.6,4.5-6.3,8.4-6.9l38.2-5.6
	l16.6-34.3c1.7-3.6,5.5-5.9,9.6-5.9c4.1,0,7.9,2.3,9.6,5.9l16.6,34.3l38.2,5.6c3.9,0.6,7.2,3.2,8.4,6.9
	C252.6,119,251.7,123.1,248.9,125.8z"/>
</svg>
