<?xml version="1.0" encoding="utf-8"?>
<!-- Generator: Adobe Illustrator 22.0.1, SVG Export Plug-In . SVG Version: 6.00 Build 0)  -->
<svg version="1.0" id="图层_1" xmlns="http://www.w3.org/2000/svg" xmlns:xlink="http://www.w3.org/1999/xlink" x="0px" y="0px"
	 viewBox="0 0 360 360" style="enable-background:new 0 0 360 360;" xml:space="preserve">
<path d="M339.1,62.3C314.7,45.2,285.4,36,255.3,36c-27.7,0-53.5,7.6-77,22.6C155.1,43.8,127.9,36,100.1,36
	c-29.9,0-57.7,8.9-82.6,26.3c-2.4,1.8-3.8,4.5-3.9,7.4v238.9c-0.8,4.9,2.6,9.4,7.6,10.2c2.3,0.4,4.7-0.2,6.7-1.5
	c21.8-15.3,46.1-23.1,72.2-23.1c27,0,51.4,7.6,72.8,22.5c3.3,2.2,7.7,2.3,11.2,0.3c21.9-15.3,45.2-22.8,71.3-22.8
	c26.4-0.1,52.1,8,73.5,23.1c5.1,2.4,11.2,0.4,13.6-4.6c0.6-1.3,1-2.7,1-4.1V69.8C343.5,66.7,341.8,63.8,339.1,62.3L339.1,62.3z
	 M51.1,109.9c32.9-13.6,70.2-13.1,102.7,1.4c4.5,2,6.5,7.1,4.4,11.5c-2,4.4-7.3,6.3-11.8,4.3c0,0,0,0-0.1,0
	c-28-12.5-60-12.9-88.3-1.2c-4.5,1.9-9.7-0.2-11.6-4.7C44.5,116.8,46.6,111.8,51.1,109.9L51.1,109.9z M51.1,163.4
	c32.9-13.6,70.2-13.1,102.7,1.4c4.5,2,6.5,7.1,4.4,11.5c-2,4.4-7.3,6.3-11.8,4.3c0,0,0,0-0.1,0c-28-12.5-60-12.9-88.3-1.2
	c-4.5,1.9-9.7-0.2-11.6-4.7C44.5,170.4,46.6,165.3,51.1,163.4L51.1,163.4z M158.1,230.1c-2,4.4-7.3,6.3-11.8,4.3l0,0
	c-28-12.5-60-12.9-88.3-1.2c-4.5,1.9-9.8-0.1-11.7-4.5c-1.9-4.4,0.1-9.5,4.6-11.4c0,0,0.1,0,0.1,0c32.9-13.6,70.2-13.1,102.7,1.4
	C158.2,220.6,160.2,225.7,158.1,230.1C158.1,230.1,158.1,230.1,158.1,230.1L158.1,230.1z M181.2,307.5h-3l-3-248l6.1-0.2
	L181.2,307.5z M206.2,109.9c32.9-13.6,70.2-13.1,102.7,1.4c4.5,2,6.5,7.1,4.4,11.5c-2,4.4-7.3,6.3-11.8,4.3c0,0,0,0-0.1,0
	c-28-12.5-60-12.9-88.3-1.2c-4.5,1.9-9.7-0.2-11.6-4.7C199.6,116.8,201.7,111.8,206.2,109.9L206.2,109.9z M206.2,163.4
	c32.9-13.6,70.2-13.1,102.7,1.4c4.5,2,6.5,7.1,4.4,11.5c-2,4.4-7.3,6.3-11.8,4.3c0,0,0,0-0.1,0c-28-12.5-60-12.9-88.3-1.2
	c-4.5,1.9-9.8-0.1-11.7-4.5c-1.9-4.4,0.1-9.5,4.6-11.4C206.1,163.5,206.2,163.4,206.2,163.4L206.2,163.4z M313.3,230.1
	c-2,4.4-7.3,6.3-11.8,4.3c0,0,0,0,0,0c-28-12.5-60-12.9-88.3-1.2c-4.5,1.9-9.8-0.1-11.7-4.5c-1.9-4.4,0.1-9.5,4.6-11.4
	c0,0,0.1,0,0.1,0c32.9-13.6,70.2-13.1,102.7,1.4C313.4,220.6,315.4,225.7,313.3,230.1C313.3,230.1,313.3,230.1,313.3,230.1z"/>
</svg>
