<?xml version="1.0" encoding="utf-8"?>
<!-- Generator: Adobe Illustrator 22.0.1, SVG Export Plug-In . SVG Version: 6.00 Build 0)  -->
<svg version="1.0" id="图层_1" xmlns="http://www.w3.org/2000/svg" xmlns:xlink="http://www.w3.org/1999/xlink" x="0px" y="0px"
	 viewBox="0 0 360 360" style="enable-background:new 0 0 360 360;" xml:space="preserve">
<path d="M92.4,122.2c8.7,0,14.6-6.1,14.6-15.3c0-9.2-5.9-15.2-14.6-15.2c-8.7,0-17.6,6-17.6,15.2C74.8,116.1,83.6,122.2,92.4,122.2z
	 M174.1,91.7c-8.7,0-17.5,6-17.5,15.2c0,9.1,8.8,15.3,17.5,15.3c8.8,0,14.7-6.1,14.7-15.3C188.7,97.8,182.9,91.7,174.1,91.7z
	 M276.3,204.5c8.8,0,14.7-6.1,14.7-12.2c0-6.1-5.9-12.2-14.7-12.2c-5.8,0-11.6,6.1-11.6,12.2C264.8,198.5,270.6,204.5,276.3,204.5z
	 M212.1,204.5c8.9,0,14.6-6.1,14.6-12.2c0-6.1-5.8-12.2-14.6-12.2c-5.8,0-11.7,6.1-11.7,12.2C200.4,198.5,206.3,204.5,212.1,204.5z
	 M236.9,124.8c-55.5,0-99.3,43.2-99.3,96.5c0,8.9,1.3,17.4,3.6,25.6c-3.6,0.3-7.2,0.5-10.9,0.5c-14.6,0-26.3-3.1-40.9-6.1
	l-40.8,21.4l11.7-36.7c-29.2-21.3-46.7-48.8-46.7-82.3c0-58,52.6-103.7,116.8-103.7c57.4,0,107.7,36.5,117.8,85.6
	C244.5,125,240.7,124.8,236.9,124.8z M343.5,219.8c0,27.5-17.5,51.8-40.9,70.2l8.8,30.5l-32-18.3c-11.7,3-23.4,6.1-35,6.1
	c-55.6,0-99.4-39.7-99.4-88.5c0-48.8,43.8-88.5,99.4-88.5C296.8,131.3,343.5,171,343.5,219.8z"/>
</svg>
