<?xml version="1.0" encoding="utf-8"?>
<!-- Generator: Adobe Illustrator 22.0.1, SVG Export Plug-In . SVG Version: 6.00 Build 0)  -->
<svg version="1.0" id="图层_1" xmlns="http://www.w3.org/2000/svg" xmlns:xlink="http://www.w3.org/1999/xlink" x="0px" y="0px"
	 viewBox="0 0 360 360" style="enable-background:new 0 0 360 360;" xml:space="preserve">
<path d="M259.4,177c-12.8-2.5-6.6-9.4-6.6-9.4s12.5-20.7-2.5-35.8c-18.6-18.7-64,2.3-64,2.3c-17.3,5.4-12.7-2.5-10.3-15.8
	c0-15.7-5.4-42.3-51.5-26.6C78.6,107.6,39,162.9,39,162.9C11.5,199.6,15.2,228,15.2,228c6.9,62.7,73.4,79.9,125.1,84
	c54.4,4.2,127.9-18.8,150.2-66.2C312.8,198.4,272.3,179.6,259.4,177L259.4,177z M144.3,294.3c-54,2.5-97.8-24.6-97.8-60.7
	c0-36.2,43.7-65.1,97.8-67.6c54.1-2.5,97.9,19.8,97.9,55.9C242.2,258,198.4,291.9,144.3,294.3L144.3,294.3z M133.6,189.8
	c-54.4,6.4-48.1,57.3-48.1,57.3s-0.6,16.2,14.6,24.4c31.8,17.3,64.6,6.8,81.1-14.6C197.7,235.5,188,183.4,133.6,189.8L133.6,189.8z
	 M119.8,261.4c-10.1,1.2-18.3-4.7-18.3-13.2c0-8.4,7.3-17.3,17.4-18.4c11.7-1.1,19.2,5.6,19.2,14.1
	C138.2,252.4,129.9,260.2,119.8,261.4L119.8,261.4z M151.9,234c-3.5,2.6-7.7,2.2-9.5-0.9c-1.9-3-1.2-7.8,2.3-10.3
	c4-3,8.2-2.1,10,0.9C156.5,226.7,155.2,231.3,151.9,234L151.9,234z M285.9,154.9c4.4,0,8.1-3.2,8.8-7.5c0.1-0.3,0.1-0.6,0.1-0.9
	c6.6-59.8-48.9-49.5-48.9-49.5c-4.9,0-8.9,4-8.9,9c0,4.9,4,8.9,8.9,8.9C285.7,106.1,277,146,277,146
	C276.9,151,280.9,154.9,285.9,154.9L285.9,154.9z M279.4,50.6c-19.2-4.5-39-0.6-44.5,0.4c-0.4,0.1-0.8,0.4-1.2,0.5
	c-0.2,0.1-0.3,0.2-0.3,0.2c-5.5,1.6-9.4,6.6-9.4,12.6c0,7.1,5.7,13,12.9,13c0,0,7-1,11.7-2.8c4.7-1.9,44.5-1.4,64.2,31.8
	c10.8,24.3,4.7,40.5,4,43.1c0,0-2.6,6.3-2.6,12.5c0,7.2,5.7,11.7,12.9,11.7c6,0,11-0.8,12.4-11h0.1C361,91.9,313.8,58.6,279.4,50.6
	L279.4,50.6z"/>
</svg>
