<?xml version="1.0" encoding="utf-8"?>
<!-- Generator: Adobe Illustrator 22.0.1, SVG Export Plug-In . SVG Version: 6.00 Build 0)  -->
<svg version="1.0" id="图层_1" xmlns="http://www.w3.org/2000/svg" xmlns:xlink="http://www.w3.org/1999/xlink" x="0px" y="0px"
	 viewBox="0 0 360 360" style="enable-background:new 0 0 360 360;" xml:space="preserve">
<path d="M296,14.5H63c-26.8,0-48.5,23.1-48.5,51.6v226.9c0,28.4,21.8,51.6,48.5,51.6H296l0,0c26.8,0,48.5-23.1,48.5-51.6V66.1
	C344.5,37.6,322.7,14.5,296,14.5z M303.9,123L303.9,123l-40.3,60.2l-45.3,22.5l-35.1-17.5l-40.5,70.6l-40.1-40L70.4,259
	c-1.8,2.3-4.5,3.6-7.4,3.6c-5.4,0-9.7-4.6-9.7-10.3c0-2.5,0.8-4.8,2.3-6.7l45.4-56.6l37.5,37.4l37.1-64.7l42.6,21.2l32.4-16.1
	l37.3-55.8c3.1-4.6,9.2-5.7,13.5-2.4c0,0,0,0,0,0C306,111.9,307,118.3,303.9,123z"/>
</svg>
