<?xml version="1.0" encoding="utf-8"?>
<!-- Generator: Adobe Illustrator 22.0.1, SVG Export Plug-In . SVG Version: 6.00 Build 0)  -->
<svg version="1.0" id="图层_1" xmlns="http://www.w3.org/2000/svg" xmlns:xlink="http://www.w3.org/1999/xlink" x="0px" y="0px"
	 viewBox="0 0 360 360" style="enable-background:new 0 0 360 360;" xml:space="preserve">
<path d="M299.8,294.6l-36.4-62.8c5.2-8.8,9.1-18.5,11.2-28.9l70.4-18.8l-70.4-18.8c-2.5-12.1-7.3-23.4-14-33.4l39.2-67.7l-68.6,39.7
	c-8.3-5-17.4-8.7-27.1-10.9l-21-78.7l-21,78.7c-8.7,2-16.8,5.2-24.4,9.4L66.4,61.3l40.2,69.4c-6.9,9.8-11.9,21-14.6,33l-77,20.5
	l77,20.5c2.3,10.3,6.3,19.9,11.7,28.6l-37.3,64.4L130,261c10.3,7.1,22.1,12.3,34.8,14.8l18.3,68.7l18.3-68.7
	c13.7-2.7,26.4-8.5,37.2-16.5L299.8,294.6z"/>
</svg>
