<?xml version="1.0" encoding="utf-8"?>
<!-- Generator: Adobe Illustrator 22.0.1, SVG Export Plug-In . SVG Version: 6.00 Build 0)  -->
<svg version="1.0" id="图层_1" xmlns="http://www.w3.org/2000/svg" xmlns:xlink="http://www.w3.org/1999/xlink" x="0px" y="0px"
	 viewBox="0 0 360 360" style="enable-background:new 0 0 360 360;" xml:space="preserve">
<style type="text/css">
	.st0{fill-rule:evenodd;clip-rule:evenodd;}
</style>
<path class="st0" d="M340.4,318.1L202.3,180L340.4,41.9c6.1-6.1,6.1-16.2,0-22.3s-16.2-6.1-22.3,0L180,157.7L41.9,19.6
	c-6.1-6.1-16.2-6.1-22.3,0h0c-6.1,6.1-6.1,16.2,0,22.3L157.7,180L19.6,318.1c-6.1,6.1-6.1,16.2,0,22.3c6.1,6.1,16.2,6.1,22.3,0
	L180,202.3l138.1,138.1c6.1,6.1,16.2,6.1,22.3,0l0,0C346.5,334.3,346.5,324.2,340.4,318.1z"/>
</svg>
