<?xml version="1.0" encoding="utf-8"?>
<!-- Generator: Adobe Illustrator 22.0.1, SVG Export Plug-In . SVG Version: 6.00 Build 0)  -->
<svg version="1.0" id="图层_1" xmlns="http://www.w3.org/2000/svg" xmlns:xlink="http://www.w3.org/1999/xlink" x="0px" y="0px"
	 viewBox="0 0 360 360" style="enable-background:new 0 0 360 360;" xml:space="preserve">
<style type="text/css">
	.st0{fill-rule:evenodd;clip-rule:evenodd;}
</style>
<g>
	<g>
		<path class="st0" d="M68.6,180.5h220V153h-220V180.5z M68.6,235.5h220V208h-220V235.5z M289.5,15.5h-220c-30.4,0-55,24.6-55,55
			v220c0,30.4,24.6,55,55,55h220c30.4,0,55-24.6,55-55v-220C344.5,40.1,319.9,15.5,289.5,15.5z M317,263c0,30.4-24.6,55-55,55H97
			c-30.4,0-55-24.6-55-55V98c0-30.4,24.6-55,55-55h165c30.4,0,55,24.6,55,55V263z M68.6,125.5h220v-55h-220V125.5z M68.6,290.5h220
			V263h-220V290.5z"/>
	</g>
</g>
</svg>
