<?xml version="1.0" encoding="utf-8"?>
<!-- Generator: Adobe Illustrator 22.0.1, SVG Export Plug-In . SVG Version: 6.00 Build 0)  -->
<svg version="1.0" id="图层_1" xmlns="http://www.w3.org/2000/svg" xmlns:xlink="http://www.w3.org/1999/xlink" x="0px" y="0px"
	 viewBox="0 0 360 360" style="enable-background:new 0 0 360 360;" xml:space="preserve">
<style type="text/css">
	.st0{fill-rule:evenodd;clip-rule:evenodd;}
</style>
<g>
	<g>
		<path class="st0" d="M289.5,15.5h-220c-30.4,0-55,24.6-55,55v220c0,30.4,24.6,55,55,55h220c30.4,0,55-24.6,55-55v-220
			C344.5,40.1,319.9,15.5,289.5,15.5z M317,263c0,30.4-24.6,55-55,55H97c-30.4,0-55-24.6-55-55V98c0-30.4,24.6-55,55-55h165
			c30.4,0,55,24.6,55,55V263z M69.5,290.5H152V208H69.5V290.5z M69.5,153H152V70.5H69.5V153z M207,153h82.5V70.5H207V153z
			 M207,290.5h82.5V208H207V290.5z"/>
	</g>
</g>
</svg>
