<?xml version="1.0" encoding="utf-8"?>
<!-- Generator: Adobe Illustrator 22.0.1, SVG Export Plug-In . SVG Version: 6.00 Build 0)  -->
<svg version="1.0" id="图层_1" xmlns="http://www.w3.org/2000/svg" xmlns:xlink="http://www.w3.org/1999/xlink" x="0px" y="0px"
	 viewBox="0 0 360 360" style="enable-background:new 0 0 360 360;" xml:space="preserve">
<style type="text/css">
	.st0{fill-rule:evenodd;clip-rule:evenodd;}
</style>
<g>
	<g>
		<path class="st0" d="M290.5,15.5h-220c-30.4,0-55,24.6-55,55v220c0,30.4,24.6,55,55,55h220c30.4,0,55-24.6,55-55v-220
			C345.5,40.1,320.9,15.5,290.5,15.5z M318,263c0,30.4-24.6,55-55,55H98c-30.4,0-55-24.6-55-55V98c0-30.4,24.6-55,55-55h165
			c30.4,0,55,24.6,55,55V263z M70.5,289.6h220v-82.5h-220V289.6z"/>
	</g>
</g>
</svg>
