<?xml version="1.0" encoding="utf-8"?>
<!-- Generator: Adobe Illustrator 22.0.1, SVG Export Plug-In . SVG Version: 6.00 Build 0)  -->
<svg version="1.0" id="图层_1" xmlns="http://www.w3.org/2000/svg" xmlns:xlink="http://www.w3.org/1999/xlink" x="0px" y="0px"
	 viewBox="0 0 360 360" style="enable-background:new 0 0 360 360;" xml:space="preserve">
<style type="text/css">
	.st0{fill-rule:evenodd;clip-rule:evenodd;}
</style>
<path class="st0" d="M169.6,256.3c-4.6-4.6-12.1-4.6-16.7,0l-46.6,46.6V24.7c0-6.5-5.3-11.8-11.8-11.8s-11.8,5.3-11.8,11.8v278.2
	l-46.6-46.6c-4.6-4.6-12.1-4.6-16.7,0c-4.6,4.6-4.6,12.1,0,16.7l66.7,66.7c0.1,0.1,0.2,0.1,0.2,0.1c1,1,2.2,1.8,3.6,2.4
	c2.9,1.2,6.1,1.2,9,0c1.4-0.6,2.6-1.4,3.7-2.5c0,0,0.1-0.1,0.1-0.1l66.7-66.7C174.2,268.3,174.2,260.9,169.6,256.3z"/>
<path class="st0" d="M342.5,99.7c-4.6,4.6-12.1,4.6-16.7,0l-46.6-46.6v278.2c0,6.5-5.3,11.8-11.8,11.8c-6.5,0-11.8-5.3-11.8-11.8
	V53.1l-46.6,46.6c-4.6,4.6-12.1,4.6-16.7,0c-4.6-4.6-4.6-12.1,0-16.7l66.7-66.7c0.1-0.1,0.2-0.1,0.2-0.1c1-1,2.2-1.8,3.6-2.4
	c2.9-1.2,6.1-1.2,9,0c1.4,0.6,2.6,1.4,3.7,2.5c0,0,0.1,0.1,0.1,0.1l66.7,66.7C347.2,87.7,347.2,95.1,342.5,99.7z"/>
</svg>
