<?xml version="1.0" encoding="utf-8"?>
<!-- Generator: Adobe Illustrator 22.0.1, SVG Export Plug-In . SVG Version: 6.00 Build 0)  -->
<svg version="1.0" id="图层_1" xmlns="http://www.w3.org/2000/svg" xmlns:xlink="http://www.w3.org/1999/xlink" x="0px" y="0px"
	 viewBox="0 0 360 360" style="enable-background:new 0 0 360 360;" xml:space="preserve">
<path d="M214.3,12.7c-19.8,10.1-22.6,29-11.3,46.5c12.6,19.6-1.2,51.1-18.3,58.8c-25.9,11.6-32.7,41.1-16,59.3l1.1,1.4l-4.7-0.9
	C73.8,131.3,119.3,6.3,214.3,12.7z M24.6,90.9c3.5,21.9,20.7,30.4,40.9,25.1c22.6-5.9,48.4,16.9,50.5,35.5
	c3.1,28.1,29.1,43.7,51.7,33.4l1.8-0.7l-2.4,4.2C94.5,260.6-10.9,178.9,24.6,90.9z M40.6,294.7c22,3.4,35.4-10.2,36.6-31
	c1.3-23.3,31.1-40.7,49.5-36.9c27.8,5.8,50.7-14.1,47.9-38.7l-0.4-2.7l3.6,4.4C224.3,281,113.7,355.6,40.6,294.7z M240.2,342.5
	c10-19.8,1.2-36.7-18.3-44.3c-21.8-8.4-29.2-42-19.9-58.2c14.1-24.6,2.2-52.4-22.1-57.3c-0.3,0-2.5-0.8-2.5-0.8l5.1-1.7
	C283.9,164.3,320.9,292.1,240.2,342.5z M299.6,171.9c-14.8,18-49.2,14.7-61.8,0.9c-19.1-21-49.3-18.3-61.6,3.2l-1.6,1.9
	c0,0,0-4.6,0-5.2c16.3-100.9,149.7-96.4,172.9-4.4C331.7,152.6,312.8,155.8,299.6,171.9z"/>
</svg>
