<?xml version="1.0" encoding="utf-8"?>
<!-- Generator: Adobe Illustrator 22.0.1, SVG Export Plug-In . SVG Version: 6.00 Build 0)  -->
<svg version="1.0" id="图层_1" xmlns="http://www.w3.org/2000/svg" xmlns:xlink="http://www.w3.org/1999/xlink" x="0px" y="0px"
	 viewBox="0 0 360 360" style="enable-background:new 0 0 360 360;" xml:space="preserve">
<path d="M180.4,345.5c91.1,0,165-73.9,165-165s-73.9-165-165-165c-91.1,0-165,73.9-165,165S89.3,345.5,180.4,345.5z M180.4,268.4
	c0,0-54.9-38.8-75.5-68.4c-7.6-11-14.5-21.4-14.5-35.8c0-24.9,20.1-45,45-45c18.4,0,34.1,11,41.1,26.8c0.5,1.6,2.1,2.8,3.9,2.8
	c1.8,0,3.3-1.2,3.8-2.8c7.1-15.7,22.8-26.7,41.2-26.7c24.8,0,45,20.1,45,45c0,14.4-6.8,24.8-14.5,35.8
	C235.3,229.7,180.4,268.4,180.4,268.4L180.4,268.4z"/>
</svg>
