<?xml version="1.0" encoding="utf-8"?>
<!-- Generator: Adobe Illustrator 22.0.1, SVG Export Plug-In . SVG Version: 6.00 Build 0)  -->
<svg version="1.0" id="图层_1" xmlns="http://www.w3.org/2000/svg" xmlns:xlink="http://www.w3.org/1999/xlink" x="0px" y="0px"
	 viewBox="0 0 360 360" style="enable-background:new 0 0 360 360;" xml:space="preserve">
<path d="M181.5,12.5c-91.1,0-165,73.9-165,165c0,91.1,73.9,165,165,165c91.1,0,165-73.9,165-165C346.5,86.3,272.6,12.5,181.5,12.5z
	 M281.5,171.4c0,10.5-12.7,15.7-20.1,8.3l-6.9-6.9l-49.3,49.3c-2.4,2.4-4.8,3.5-9.5,3.5c-2.4,0-7-1.2-9.3-3.5l-42.4-42.4l-42.4,42.4
	c-4.7,4.7-11.8,4.7-16.5,0c-4.7-4.7-4.7-11.8,0-16.5l49.5-49.5c2.4-2.4,4.3-4.3,9-4.3c4.7,0,7.5,2,9.9,4.3l42.4,42.4l42.3-42.3
	l-7.1-7.1c-7.4-7.4-2.2-20.1,8.3-20.1h30.5c6.5,0,11.8,5.3,11.8,11.8V171.4z"/>
</svg>
