<?xml version="1.0" encoding="utf-8"?>
<!-- Generator: Adobe Illustrator 22.0.1, SVG Export Plug-In . SVG Version: 6.00 Build 0)  -->
<svg version="1.0" id="图层_1" xmlns="http://www.w3.org/2000/svg" xmlns:xlink="http://www.w3.org/1999/xlink" x="0px" y="0px"
	 viewBox="0 0 360 360" style="enable-background:new 0 0 360 360;" xml:space="preserve">
<g>
	<g>
		<path d="M298.4,39.1H62.6c-25.9,0-47.1,21.2-47.1,47.1v188.6c0,25.9,21.2,47.1,47.1,47.1h235.7c25.9,0,47.1-21.2,47.1-47.1V86.2
			C345.5,60.3,324.3,39.1,298.4,39.1z M321.9,274.8c0,14.1-9.4,23.6-23.6,23.6H62.6c-14.1,0-23.6-9.4-23.6-23.6V133.4
			c0-14.1,9.4-23.6,23.6-23.6h235.7c14.1,0,23.6,9.4,23.6,23.6V274.8z M86.2,133.4c-13,0-23.6,10.6-23.6,23.6s10.6,23.6,23.6,23.6
			s23.6-10.6,23.6-23.6S99.2,133.4,86.2,133.4z M274.8,133.4H156.9c-11.8,0-23.6,9.4-23.6,23.6c0,11.8,11.8,23.6,23.6,23.6h117.9
			c14.1,0,23.6-11.8,23.6-23.6C298.4,142.8,286.6,133.4,274.8,133.4z M86.2,227.6c-13,0-23.6,10.6-23.6,23.6s10.6,23.6,23.6,23.6
			s23.6-10.6,23.6-23.6S99.2,227.6,86.2,227.6z M274.8,227.6H156.9c-11.8,0-23.6,9.4-23.6,23.6c0,11.8,11.8,23.6,23.6,23.6h117.9
			c14.1,0,23.6-11.8,23.6-23.6C298.4,237.1,286.6,227.6,274.8,227.6z"/>
	</g>
</g>
</svg>
