<?xml version="1.0" encoding="utf-8"?>
<!-- Generator: Adobe Illustrator 22.0.1, SVG Export Plug-In . SVG Version: 6.00 Build 0)  -->
<svg version="1.0" id="图层_1" xmlns="http://www.w3.org/2000/svg" xmlns:xlink="http://www.w3.org/1999/xlink" x="0px" y="0px"
	 viewBox="0 0 360 360" style="enable-background:new 0 0 360 360;" xml:space="preserve">
<g>
	<g>
		<path d="M204.1,156.7h-11.8v-47.2h-23.6v47.2h-11.8c-14.1,0-23.6,11.8-23.6,23.6v94.4c0,11.8,9.4,23.6,23.6,23.6h11.8v47.2h23.6
			v-47.2h11.8c11.8,0,23.6-11.8,23.6-23.6v-94.4C227.6,168.5,218.2,156.7,204.1,156.7z M86.2,86.3H74.4V39.1H50.9v47.2H39.1
			c-14.1,0-23.6,11.8-23.6,23.6v94.4c0,11.8,9.4,23.6,23.6,23.6h11.8v47.2h23.6v-47.2h11.8c11.8,0,23.6-11.8,23.6-23.6v-94.4
			C109.8,95.7,100.4,86.3,86.2,86.3z M86.2,204.3H39.1v-94.4h47.1V204.3z M321.9,62.7h-11.8V15.5h-23.6v47.2h-11.8
			c-14.1,0-23.6,11.8-23.6,23.6v94.4c0,11.8,9.4,23.6,23.6,23.6h11.8v47.2h23.6v-47.2h11.8c11.8,0,23.6-11.8,23.6-23.6V86.3
			C345.5,72.1,336.1,62.7,321.9,62.7z M321.9,180.7h-47.1V86.3h47.1V180.7z"/>
	</g>
</g>
</svg>
