<?xml version="1.0" encoding="utf-8"?>
<!-- Generator: Adobe Illustrator 22.0.1, SVG Export Plug-In . SVG Version: 6.00 Build 0)  -->
<svg version="1.0" id="图层_1" xmlns="http://www.w3.org/2000/svg" xmlns:xlink="http://www.w3.org/1999/xlink" x="0px" y="0px"
	 viewBox="0 0 360 360" style="enable-background:new 0 0 360 360;" xml:space="preserve">
<g>
	<g>
		<path d="M263,263.5h23.6c7.1,0,11.8-4.7,11.8-11.8V39.5c0-7.1-4.7-11.8-11.8-11.8H263c-7.1,0-11.8,4.7-11.8,11.8v212.1
			C251.2,258.8,255.9,263.5,263,263.5z M168.7,263.5h23.6c7.1,0,11.8-4.7,11.8-11.8V110.3c0-7.1-4.7-11.8-11.8-11.8h-23.6
			c-7.1,0-11.8,4.7-11.8,11.8v141.4C156.9,258.8,161.6,263.5,168.7,263.5z M74.4,263.5H98c7.1,0,11.8-4.7,11.8-11.8V181
			c0-7.1-4.7-11.8-11.8-11.8H74.4c-7.1,0-11.8,4.7-11.8,11.8v70.7C62.6,258.8,67.4,263.5,74.4,263.5z M321.9,287H39.1
			c-14.1,0-23.6,11.8-23.6,23.6c0,14.1,9.4,23.6,23.6,23.6h282.9c14.1,0,23.6-11.8,23.6-23.6C345.5,298.8,336.1,287,321.9,287z"/>
	</g>
</g>
</svg>
