<?xml version="1.0" encoding="utf-8"?>
<!-- Generator: Adobe Illustrator 22.0.1, SVG Export Plug-In . SVG Version: 6.00 Build 0)  -->
<svg version="1.0" id="图层_1" xmlns="http://www.w3.org/2000/svg" xmlns:xlink="http://www.w3.org/1999/xlink" x="0px" y="0px"
	 viewBox="0 0 360 360" style="enable-background:new 0 0 360 360;" xml:space="preserve">
<path d="M17.5,48.4v259.3h330V48.4H17.5z M129.8,83l6.5-11.1l6.5,11.1l13.3,2.4l-9.2,9.3l1.7,12.6l-12.2-5.4l-12.2,5.4l1.7-12.6
	l-9.2-9.3L129.8,83z M129.8,124.3l6.5-11.1l6.5,11.1l13.3,2.4l-9.2,9.3l1.7,12.6l-12.2-5.4l-12.2,5.4l1.7-12.6l-9.2-9.3L129.8,124.3
	z M63.8,83l6.5-11.1L76.8,83l13.3,2.4l-9.2,9.3l1.7,12.6l-12.2-5.4l-12.2,5.4l1.7-12.6l-9.2-9.3L63.8,83z M63.8,124.3l6.5-11.1
	l6.5,11.1l13.3,2.4l-9.2,9.3l1.7,12.6l-12.2-5.4l-12.2,5.4l1.7-12.6l-9.2-9.3L63.8,124.3z M323.3,284.1H41v-23.6h282.4V284.1z
	 M323.3,236.9H41v-23.6h282.4V236.9z M323.3,189.8H41v-23.6h141.5h140.8V189.8z M323.3,142.6H182.5v-23.6h140.8V142.6z M323.3,95.5
	H182.5V71.9h140.8V95.5z"/>
</svg>
