<?xml version="1.0" encoding="utf-8"?>
<!-- Generator: Adobe Illustrator 22.0.1, SVG Export Plug-In . SVG Version: 6.00 Build 0)  -->
<svg version="1.0" id="图层_1" xmlns="http://www.w3.org/2000/svg" xmlns:xlink="http://www.w3.org/1999/xlink" x="0px" y="0px"
	 viewBox="0 0 360 360" style="enable-background:new 0 0 360 360;" xml:space="preserve">
<path d="M182.5,12.5c-91.9,0-165,73.1-165,165c0,91.9,73.1,165,165,165c91.9,0,165-73.1,165-165C347.5,85.5,272,12.5,182.5,12.5z
	 M88.2,201c-14.1,0-23.6-9.4-23.6-23.6s9.4-23.6,23.6-23.6c14.1,0,23.6,9.4,23.6,23.6C111.8,189.3,100,201,88.2,201z M182.5,201
	c-14.1,0-23.6-9.4-23.6-23.6s9.4-23.6,23.6-23.6c14.1,0,23.6,9.4,23.6,23.6C206,189.3,194.3,201,182.5,201z M276.8,201
	c-14.1,0-23.6-9.4-23.6-23.6s9.4-23.6,23.6-23.6c14.1,0,23.6,9.4,23.6,23.6C300.3,189.3,288.5,201,276.8,201z"/>
</svg>
