<?xml version="1.0" encoding="utf-8"?>
<!-- Generator: Adobe Illustrator 22.0.1, SVG Export Plug-In . SVG Version: 6.00 Build 0)  -->
<svg version="1.0" id="图层_1" xmlns="http://www.w3.org/2000/svg" xmlns:xlink="http://www.w3.org/1999/xlink" x="0px" y="0px"
	 viewBox="0 0 360 360" style="enable-background:new 0 0 360 360;" xml:space="preserve">
<path d="M298.4,15.5H62.6c-25.9,0-47.1,21.2-47.1,47.1v235.7c0,25.9,21.2,47.1,47.1,47.1h235.7c25.9,0,47.1-21.2,47.1-47.1V62.6
	C345.5,36.7,324.3,15.5,298.4,15.5z M109.8,286.6c0,7.1-4.7,11.8-11.8,11.8H74.4c-7.1,0-11.8-4.7-11.8-11.8V168.7
	c0-7.1,4.7-11.8,11.8-11.8H98c7.1,0,11.8,4.7,11.8,11.8V286.6z M203.5,286.6c0,7.1-4.7,11.8-11.8,11.8h-23.6
	c-7.1,0-11.8-4.7-11.8-11.8v-165c0-7.1,4.7-11.8,11.8-11.8h23.6c7.1,0,11.8,4.7,11.8,11.8V286.6z M298.4,286.6
	c0,7.1-4.7,11.8-11.8,11.8H263c-7.1,0-11.8-4.7-11.8-11.8V145.1c0-7.1,4.7-11.8,11.8-11.8h23.6c7.1,0,11.8,4.7,11.8,11.8V286.6z"/>
</svg>
