<?xml version="1.0" encoding="utf-8"?>
<!-- Generator: Adobe Illustrator 22.0.1, SVG Export Plug-In . SVG Version: 6.00 Build 0)  -->
<svg version="1.0" id="图层_1" xmlns="http://www.w3.org/2000/svg" xmlns:xlink="http://www.w3.org/1999/xlink" x="0px" y="0px"
	 viewBox="0 0 360 360" style="enable-background:new 0 0 360 360;" xml:space="preserve">
<path d="M300.4,36.1H64.6c-25.9,0-47.1,21.2-47.1,47.1v188.6c0,25.9,21.2,47.1,47.1,47.1h235.7c25.9,0,47.1-21.2,47.1-47.1V83.2
	C347.5,57.3,326.3,36.1,300.4,36.1z M309.6,197.8H286c-1.6,0-3.2-0.3-4.6-0.9c-1.5-0.6-2.9-1.4-4.1-2.6l-41.7-41.7l-75,75
	c-0.3,0.3-0.7,0.4-1.1,0.7c-0.7,0.5-1.3,1-2.1,1.4c-0.6,0.3-1.2,0.5-1.8,0.7c-0.9,0.3-1.7,0.4-2.6,0.5c-0.6,0-1.1,0-1.7,0
	c-1-0.1-1.9-0.2-2.8-0.5c-0.5-0.2-1-0.4-1.5-0.7c-0.5-0.3-1.1-0.3-1.6-0.7l-51.5-36l-31.8,22.3c-5.3,3.7-12.7,2.4-16.4-2.9
	c-3.7-5.3-2.4-12.7,2.9-16.4l38.6-27c4.2-2.9,9.5-2.7,13.5,0.1c0.1,0.1,0.2,0.1,0.3,0.1l49.8,34.9l76.4-76.4
	c3.4-3.4,8.5-4.3,12.8-2.6c1.4,0.6,2.8,1.4,3.9,2.6l46.7,46.7h19c6.5,0,11.8,5.3,11.8,11.8C321.4,192.5,316.1,197.8,309.6,197.8z"/>
</svg>
