<?xml version="1.0" encoding="utf-8"?>
<!-- Generator: Adobe Illustrator 22.0.1, SVG Export Plug-In . SVG Version: 6.00 Build 0)  -->
<svg version="1.0" id="图层_1" xmlns="http://www.w3.org/2000/svg" xmlns:xlink="http://www.w3.org/1999/xlink" x="0px" y="0px"
	 viewBox="0 0 360 360" style="enable-background:new 0 0 360 360;" xml:space="preserve">
<path d="M298.4,39H62.6c-25.9,0-47.1,21.2-47.1,47.1v188.6c0,25.9,21.2,47.1,47.1,47.1h235.7c25.9,0,47.1-21.2,47.1-47.1V86.2
	C345.5,60.3,324.3,39,298.4,39z M152.8,244.1c-10.2,7.4-24.5,11.1-42.9,11.1c-17.8,0-31.7-3.4-41.6-10.3
	C56,236.4,49.4,223,48.5,204.7h23.5c1.6,11.1,5.5,18.9,11.7,23.4c5.8,4.2,14.6,6.3,26.3,6.3c10.5,0,18.9-1.7,25.1-5.2
	c6.2-3.8,9.3-8.6,9.3-14.4c0-7.7-4.5-13.7-13.5-18.2c-3.2-1.6-12.6-4.8-28.1-9.5c-17.9-5.7-29-9.7-33.2-12.1
	c-11-6.6-16.6-16.3-16.6-29.1c0-12.9,5.4-23,16.2-30.1c10-7,22.8-10.5,38.4-10.5c17.1,0,30.4,3.5,39.8,10.5
	c10.1,7.6,15.9,19.2,17.4,35h-23.4c-2-8.9-5.7-15.3-11.1-19.2c-5.1-3.9-13.1-5.9-23.9-5.9c-9.2,0-16.1,1.3-20.8,3.8
	c-5.9,3-8.9,7.9-8.9,15c0,6.3,3.4,11.3,10.1,14.8c3.2,1.8,11.5,4.7,24.7,8.9c19,5.8,31.6,10.5,37.8,14.1
	c12.5,7.4,18.8,17.8,18.8,31.1C168,226.3,162.9,236.6,152.8,244.1z M308.7,252.4H285v-63.9h-73.2v63.9h-23.7V108h23.7v60.2H285V108
	h23.7V252.4z"/>
</svg>
