<?xml version="1.0" encoding="utf-8"?>
<!-- Generator: Adobe Illustrator 22.0.1, SVG Export Plug-In . SVG Version: 6.00 Build 0)  -->
<svg version="1.0" id="图层_1" xmlns="http://www.w3.org/2000/svg" xmlns:xlink="http://www.w3.org/1999/xlink" x="0px" y="0px"
	 viewBox="0 0 360 360" style="enable-background:new 0 0 360 360;" xml:space="preserve">
<g>
	<g>
		<path d="M340.4,174.2l-51.4-57.9c-3.5-2.8-6.3-3.7-8.4-2.7c-2.1,1-3.1,3.5-3.1,7.6c0,2.4-0.1,21.8,0,24.1c0,3.1-0.9,5.1-2.8,5.9
			c-1.9,0.8-5,1.2-9.3,1.1c-0.5,0-26.1,0-57.4-0.1c0-32,0.1-58.5,0.1-59.3c0-3.1,0.5-5.5,1.3-7.1c0.8-1.6,2.6-2.5,5.3-2.7
			c2.6,0,22.2-0.7,24.6-0.8c4.2,0.1,6.6-1.2,7.3-3.8c0.7-2.6-0.5-5.8-3.6-9.6l-53.3-48.9c-2.7-3.2-5.3-4.8-7.6-4.7
			c-2.3,0.1-4.9,1.9-7.7,5.4l-59,51.2c-2.8,3.5-3.7,6.3-2.6,8.3c1.1,2,3.6,3,7.7,3c2.4,0,23,0.4,25.2,0.3c3.1-0.3,5.1,0.8,5.9,3.3
			c0.8,2.5,1.1,6,1,10.4c0,0.2,0,24.4-0.1,54.7c-32.1,0-58.7-0.1-59.5-0.1c-3.1,0-5.5-0.5-7.1-1.3c-1.6-0.8-2.5-2.6-2.7-5.3
			c0-2.6-0.7-23.9-0.8-26.3c0.1-4.2-1.2-6.6-3.8-7.3c-2.6-0.7-5.8,0.5-9.6,3.6l-48.9,55.8c-3.2,2.7-4.8,5.3-4.7,7.6
			c0.1,2.3,1.9,4.9,5.4,7.7l51.2,56.4c3.5,2.8,6.3,3.7,8.3,2.6c2-1.1,3-3.6,3-7.7c0-2.4,0.4-21.3,0.3-23.5c-0.3-3.1,0.8-5.1,3.3-5.9
			c2.5-0.8,6-1.1,10.4-1c0.2,0,24.5,0,54.8,0.1c0,33-0.1,61-0.1,62.2c0.1,3-0.3,5.1-1.1,6.2c-0.8,1.1-2.6,1.7-5.5,1.8
			c-2.6,0-25,0.7-27.4,0.8c-4.1,0-6.5,1.3-7.2,3.9c-0.7,2.5,0.5,5.8,3.7,9.7l56.7,48.9c2.6,3.1,5.1,4.6,7.5,4.4
			c2.4-0.1,5-1.9,7.8-5.1l55.4-51.4c2.8-3.5,3.7-6.3,2.7-8.4c-1-2.1-3.5-3.1-7.6-3.1c-2.4,0-20.1-0.1-22.4,0c-3.1,0-5.1-0.9-5.9-2.8
			c-0.8-1.9-1.2-5-1.1-9.3c0-0.5,0-26.2,0.1-57.6c33,0,60.8,0.1,62.1,0.1c3-0.1,5.1,0.3,6.2,1.1c1.1,0.8,1.7,2.6,1.8,5.5
			c0,2.6,0.7,23.2,0.8,25.6c0,4.1,1.3,6.5,3.9,7.2c2.5,0.7,5.8-0.5,9.7-3.7l48.9-54.1c3.1-2.6,4.6-5.1,4.4-7.5
			C345.3,179.6,343.6,177,340.4,174.2z"/>
	</g>
</g>
</svg>
