<?xml version="1.0" encoding="utf-8"?>
<!-- Generator: Adobe Illustrator 22.0.1, SVG Export Plug-In . SVG Version: 6.00 Build 0)  -->
<svg version="1.0" id="图层_1" xmlns="http://www.w3.org/2000/svg" xmlns:xlink="http://www.w3.org/1999/xlink" x="0px" y="0px"
	 viewBox="0 0 360 360" style="enable-background:new 0 0 360 360;" xml:space="preserve">
<g>
	<g>
		<path d="M320.9,155.9V90.1c0-3.1-1.2-6.1-3.5-8.3l-63.8-63.8c-2.2-2.2-5.2-3.4-8.3-3.4H61.6c-13,0-23.6,10.6-23.6,23.6v117.9h0
			c-13,0-23.6,10.6-23.6,23.6v94.3c0,13,10.6,23.6,23.6,23.6h0v23.6c0,13,10.6,23.6,23.6,23.6h235.7c13,0,23.6-10.6,23.6-23.6v-23.6
			c13,0,23.6-10.6,23.6-23.6v-94.3C344.5,166.5,333.9,155.9,320.9,155.9z M297.4,302.1c0,10.4-8.5,18.9-18.9,18.9h-198
			c-10.4,0-18.9-8.5-18.9-18.9v-4.7h235.7V302.1z M69.8,268.7v-84.1h34.9c20.3,0,30.5,8.6,30.5,25.8c0,17.4-10.2,26-30.8,26H83.6
			v32.3H69.8z M147,268.7v-84.1h30.8c13.6,0,23.9,3.8,31,11.3c6.8,7.1,10.2,17.4,10.2,30.8c0,13.3-3.4,23.5-10.2,30.8
			c-7.1,7.5-17.4,11.3-31,11.3H147z M286.8,219.7v11.8h-41.1v37.2h-13.8v-84.1h57.4v11.8h-43.6v23.3H286.8z M297.4,155.9H61.6v-99
			c0-10.4,8.5-18.9,18.9-18.9h146.1v47.1c0,13,10.6,23.6,23.6,23.6h47.1V155.9z M117,221.3c2.8-2.3,4.2-5.9,4.2-11
			c0-4.9-1.4-8.5-4.4-10.7c-2.7-2.2-7.2-3.3-13.3-3.3h-20v28.3h20C109.7,224.6,114.1,223.5,117,221.3z M175.1,196.4h-14.4v60.6h14.4
			c10.5,0,18.1-2.4,23-7.3c4.7-5,7.1-12.6,7.1-23c0-10.7-2.4-18.4-7.1-23.1C193.3,198.7,185.7,196.4,175.1,196.4z"/>
	</g>
</g>
</svg>
