<?xml version="1.0" encoding="utf-8"?>
<!-- Generator: Adobe Illustrator 22.0.1, SVG Export Plug-In . SVG Version: 6.00 Build 0)  -->
<svg version="1.0" id="图层_1" xmlns="http://www.w3.org/2000/svg" xmlns:xlink="http://www.w3.org/1999/xlink" x="0px" y="0px"
	 viewBox="0 0 360 360" style="enable-background:new 0 0 360 360;" xml:space="preserve">
<g>
	<path d="M15.5,120.7V266c0,0.1,0,0.3,0,0.4c0.5,7.8,6.9,14,14.9,14.1c0,0,0,0,0.1,0h298.9c0.1,0,0.3,0,0.4,0c0.2,0,0.5,0,0.7,0
		c7.8,0,14.3-6,14.9-13.7c0-0.2,0.1-0.3,0.1-0.5V120.7l-165,59.9L15.5,120.7z"/>
	<path d="M345.5,75.5c0-8.1-6.4-14.6-14.3-15l0,0H30.3l0,0c-8.2,0.1-14.7,6.8-14.7,15c0,0,0,0.1,0,0.1l0,0v14.6l165,59.9l165-59.9
		V76.1l0,0C345.5,75.8,345.5,75.7,345.5,75.5z"/>
</g>
</svg>
