<?xml version="1.0" encoding="utf-8"?>
<!-- Generator: Adobe Illustrator 22.0.1, SVG Export Plug-In . SVG Version: 6.00 Build 0)  -->
<svg version="1.0" id="图层_1" xmlns="http://www.w3.org/2000/svg" xmlns:xlink="http://www.w3.org/1999/xlink" x="0px" y="0px"
	 viewBox="0 0 360 360" style="enable-background:new 0 0 360 360;" xml:space="preserve">
<g>
	<g>
		<path d="M340.3,316.8l-76.2-76.2c18.3-23.5,29.2-53.1,29.2-85.2c0-76.7-62.2-138.9-139-138.9c-76.7,0-138.9,62.2-138.9,138.9
			c0,76.8,62.2,139,138.9,139c32.1,0,61.7-10.9,85.2-29.2l76.2,76.2c3.4,3.4,7.8,5.1,12.3,5.1c4.4,0,8.9-1.7,12.3-5.1
			C347.1,334.5,347.1,323.5,340.3,316.8z M154.3,259.6c-57.5,0-104.2-46.7-104.2-104.2c0-57.5,46.7-104.2,104.2-104.2
			c57.5,0,104.2,46.7,104.2,104.2C258.5,212.8,211.8,259.6,154.3,259.6z M205.5,143.1h-36.3v-36.3c0-8.2-6.6-14.9-14.9-14.9
			c-8.2,0-14.9,6.7-14.9,14.9v36.3h-36.3c-8.2,0-14.9,6.6-14.9,14.8c0,8.2,6.6,14.9,14.9,14.9h36.3v36.3c0,8.2,6.7,14.8,14.9,14.9
			c8.2,0,14.9-6.7,14.9-14.9v-36.3h36.3c8.2,0,14.9-6.7,14.9-14.9C220.3,149.7,213.7,143.1,205.5,143.1z"/>
	</g>
</g>
</svg>
