<?xml version="1.0" encoding="utf-8"?>
<!-- Generator: Adobe Illustrator 22.0.1, SVG Export Plug-In . SVG Version: 6.00 Build 0)  -->
<svg version="1.0" id="图层_1" xmlns="http://www.w3.org/2000/svg" xmlns:xlink="http://www.w3.org/1999/xlink" x="0px" y="0px"
	 viewBox="0 0 360 360" style="enable-background:new 0 0 360 360;" xml:space="preserve">
<path d="M179.5,14.5c-91.1,0-165,73.9-165,165c0,91.2,73.9,165,165,165c91.1,0,165-73.8,165-165C344.5,88.4,270.6,14.5,179.5,14.5z
	 M179.5,310.8C107,310.8,48.2,252,48.2,179.5C48.2,107,107,48.2,179.5,48.2S310.8,107,310.8,179.5C310.8,252,252,310.8,179.5,310.8z
	 M261.4,212.9l-70.8-42.7V90.5c0-4.8-3.9-8.7-8.7-8.7h-5.1c-4.8,0-8.7,3.9-8.7,8.7v87.6c0,3.8,2.4,7,5.7,8.2
	c0.3,0.2,0.6,0.4,0.9,0.6l75.1,45.2c4.1,2.5,9.5,1.1,11.9-3l2.6-4.3C266.8,220.8,265.5,215.4,261.4,212.9z"/>
</svg>
