<?xml version="1.0" encoding="utf-8"?>
<!-- Generator: Adobe Illustrator 22.0.1, SVG Export Plug-In . SVG Version: 6.00 Build 0)  -->
<svg version="1.0" id="图层_1" xmlns="http://www.w3.org/2000/svg" xmlns:xlink="http://www.w3.org/1999/xlink" x="0px" y="0px"
	 viewBox="0 0 360 360" style="enable-background:new 0 0 360 360;" xml:space="preserve">
<g>
	<g>
		<path d="M113.5,166.8h133.3c0.1,0,0.2,0,0.3,0c7,0,12.7-6.2,12.7-13.9c0-2.3-0.5-4.4-1.4-6.3l-19.6-88.2
			c-1.6-6-6.5-10.1-12.2-10.1h-88.9c-5.4,0-10.3,3.8-12,9.4l-24.1,90.7c-1.3,4.2-0.7,8.9,1.7,12.5
			C105.5,164.7,109.4,166.8,113.5,166.8z M155.4,199.9c-1.5-6-6.5-10.1-12.2-10.1H54.3c-5.4,0-10.3,3.8-12,9.4l-24.1,90
			c-1.3,4.2-0.7,8.9,1.7,12.5c2.4,3.6,6.2,5.8,10.3,5.8h133.3c0.1,0,0.2,0,0.3,0c7,0,12.7-6.2,12.7-13.9c0-2.3-0.5-4.4-1.4-6.3
			L155.4,199.9z M346.1,287.4l-19.6-87.5c-1.5-6-6.5-10.1-12.2-10.1h-88.9c-5.4,0-10.3,3.8-12,9.4l-24.1,90
			c-1.3,4.2-0.7,8.9,1.7,12.5c2.4,3.6,6.2,5.8,10.3,5.8h133.3c0.1,0,0.2,0,0.3,0c7,0,12.7-6.2,12.7-13.9
			C347.5,291.5,347,289.3,346.1,287.4z"/>
	</g>
</g>
</svg>
