<?xml version="1.0" encoding="utf-8"?>
<!-- Generator: Adobe Illustrator 22.0.1, SVG Export Plug-In . SVG Version: 6.00 Build 0)  -->
<svg version="1.0" id="图层_1" xmlns="http://www.w3.org/2000/svg" xmlns:xlink="http://www.w3.org/1999/xlink" x="0px" y="0px"
	 viewBox="0 0 360 360" style="enable-background:new 0 0 360 360;" xml:space="preserve">
<path d="M306.8,272.5c-14.2-51.1-58.7-89.5-113-94.4v-48.9c26.9-5.5,47.1-29.2,47.1-57.7c0-32.5-26.4-58.9-58.9-58.9
	c-32.5,0-58.9,26.4-58.9,58.9c0,28.5,20.2,52.3,47.1,57.7v48.9c-54.3,4.9-98.9,43.3-113,94.4C41,275.7,28.8,290,28.8,307.1
	c0,19.5,15.8,35.4,35.4,35.4c19.5,0,35.4-15.8,35.4-35.4c0-13.4-7.5-24.9-18.5-30.9c12.2-39.7,46.7-69.2,89.2-74v71.7
	c-13.7,4.9-23.6,17.8-23.6,33.2c0,19.5,15.8,35.4,35.4,35.4c19.5,0,35.4-15.8,35.4-35.4c0-15.4-9.9-28.3-23.6-33.2v-71.7
	c42.5,4.8,77,34.3,89.2,74c-11,6-18.5,17.5-18.5,30.9c0,19.5,15.8,35.4,35.4,35.4c19.5,0,35.4-15.8,35.4-35.4
	C335.2,290,323,275.7,306.8,272.5z"/>
</svg>
