<?xml version="1.0" encoding="utf-8"?>
<!-- Generator: Adobe Illustrator 22.0.1, SVG Export Plug-In . SVG Version: 6.00 Build 0)  -->
<svg version="1.0" id="图层_1" xmlns="http://www.w3.org/2000/svg" xmlns:xlink="http://www.w3.org/1999/xlink" x="0px" y="0px"
	 viewBox="0 0 360 360" style="enable-background:new 0 0 360 360;" xml:space="preserve">
<path d="M300.4,12.5H64.6c-25.9,0-47.1,21.2-47.1,47.1v235.7c0,25.9,21.2,47.1,47.1,47.1h235.7c25.9,0,47.1-21.2,47.1-47.1V59.6
	C347.5,33.7,326.3,12.5,300.4,12.5z M288.6,295.3H76.4c-6.5,0-11.8-5.3-11.8-11.8V165.7v0c0-1.6,0.3-3.1,0.9-4.6
	c0.1-0.3,0.4-0.5,0.5-0.7c0.5-1.1,1.1-2.2,2-3.1c0.9-0.9,2-1.5,3.1-2c0.3-0.1,0.5-0.4,0.7-0.5c1.5-0.6,3-0.9,4.5-0.9c0,0,0,0,0,0
	c0.1,0,0.2,0.1,0.3,0.1c1.4,0,2.9,0.3,4.2,0.9c0.9,0.4,1.5,1,2.3,1.5c0.5,0.4,1.1,0.6,1.5,1l33.3,33.3c4.6,4.6,4.6,12.1,0,16.7
	c-4.6,4.6-12.1,4.6-16.7,0l-13.2-13.2v77.6h200.4c6.5,0,11.8,5.3,11.8,11.8C300.4,290,295.1,295.3,288.6,295.3z M300.4,189.3
	L300.4,189.3c0,1.6-0.3,3.1-0.9,4.6c-0.1,0.3-0.4,0.5-0.5,0.7c-0.5,1.1-1.1,2.2-2,3.1c-0.9,0.9-2,1.5-3.1,2
	c-0.3,0.1-0.5,0.4-0.7,0.5c-1.5,0.6-3,0.9-4.5,0.9l0,0c-0.1,0-0.2-0.1-0.3-0.1c-1.4,0-2.9-0.3-4.2-0.9c-0.9-0.4-1.5-1-2.3-1.5
	c-0.5-0.4-1.1-0.6-1.5-1l-33.3-33.3c-4.6-4.6-4.6-12.1,0-16.7c4.6-4.6,12.1-4.6,16.7,0l13.2,13.2V83.2H76.4
	c-6.5,0-11.8-5.3-11.8-11.8c0-6.5,5.3-11.8,11.8-11.8h212.1c6.5,0,11.8,5.3,11.8,11.8V189.3z"/>
</svg>
