<?xml version="1.0" encoding="utf-8"?>
<!-- Generator: Adobe Illustrator 22.0.1, SVG Export Plug-In . SVG Version: 6.00 Build 0)  -->
<svg version="1.0" id="图层_1" xmlns="http://www.w3.org/2000/svg" xmlns:xlink="http://www.w3.org/1999/xlink" x="0px" y="0px"
	 viewBox="0 0 360 360" style="enable-background:new 0 0 360 360;" xml:space="preserve">
<g>
	<g>
		<path d="M347.3,198.3c-25-41.6-72-80.3-83.7-80.3c-11.8,0-36.1,38.6-47.8,57.1c-17.8,28.3-27.7,43.9-41.9,43.9
			c-15.9,0-23.4-14.9-31.8-26.6c-1.3-1.8-2.5-4.2-4-6.5c-0.5-0.8-1-1.6-1.5-2.3c-0.8-0.6-1.7-1-2.7-1c-0.9,0-1.6,0.3-2.3,0.7
			c-0.7,0.9-1.3,1.9-2.1,3c0,0.3-0.1,0.5-0.1,0.7c0-0.3,0.1-0.5,0.1-0.8c-4.4,6.7-19.4,33.4-22.6,39.4
			c-13.1,24.5-27.5,22.7-46.2,9.7c-8.8-6.2-23.9-18-41.8-32.7c12.3,79.1,80.8,139.7,163.8,139.7c83,0,151.6-60.7,163.8-139.8
			C347.4,198.7,347.7,198.9,347.3,198.3z M78.8,213.9c0.5,0.2,1,0.3,1.6,0.3c1.2,0,2.4-0.5,3.2-1.3c0.1-0.1,0-0.1,0.1-0.2
			c0,0,0.1,0,0.1,0c3-5.4,6.1-10.5,9.5-16.8c12.5-23.4,23.4-43.7,40.3-43.7c15.9,0,24.7,14.8,31.8,26.6c1,1.7,2.3,3.9,3.7,6v0
			c0.4,0.6,0.7,1.1,1.1,1.7c0.8,0.7,1.9,1.2,3,1.2c1.1,0,2.1-0.4,2.8-1.1c0.4-0.6,0.9-1.1,1.3-1.8c4.9-6.8,10.8-16.2,15.7-24
			c21.6-34.3,43.9-69.7,70.6-69.7c21.7,0,49.9,26.7,73.5,54.8c0.7,0.9,1.5,1.8,2.2,2.7c0.6,0.3,1.3,0.5,2,0.5c2.1,0,4.5-1.6,4.2-3.9
			c-0.2-1.2-0.4-1.9-0.7-3.2c-0.8-1.1-2.1-1.8-3.5-1.8c1.5,0,2.7,0.7,3.5,1.8C328.5,68,262.3,12.5,182.9,12.5
			c-87.9,0-159.7,68-165.4,154C38.4,184.4,63.4,204,77.2,213C77.8,213.4,78.3,213.6,78.8,213.9z"/>
	</g>
</g>
</svg>
