<?xml version="1.0" encoding="utf-8"?>
<!-- Generator: Adobe Illustrator 22.0.1, SVG Export Plug-In . SVG Version: 6.00 Build 0)  -->
<svg version="1.0" id="图层_1" xmlns="http://www.w3.org/2000/svg" xmlns:xlink="http://www.w3.org/1999/xlink" x="0px" y="0px"
	 viewBox="0 0 360 360" style="enable-background:new 0 0 360 360;" xml:space="preserve">
<path d="M274.3,68.2c8.6-2.1,17-4.6,25.2-7.3c-11.7-11.7-33.7-30.2-48.5-38C256.6,34.6,270.1,55.5,274.3,68.2z M107.2,258.5
	c24.1-4.4,49.3-6.7,75.2-6.7c26,0,51.2,2.3,75.5,6.8c5.4-21.3,8.8-43.6,9.6-66.6h-170C98.5,214.9,101.8,237.2,107.2,258.5z
	 M182.4,103.2c-25.7,0-50.7-2.3-74.6-6.6c-5.6,21.3-9.1,43.7-10.1,66.8h169.8c-1-23.2-4.6-45.6-10.1-66.8
	C233.3,100.9,208.2,103.2,182.4,103.2z M114.9,73.4c21.7,3.9,44.3,5.9,67.6,5.9c23.3,0,46-2.1,67.8-6c-6.9-19.8-15.8-38.4-26.1-55.6
	c-13.3-3.4-27.2-5.3-41.7-5.3c-14.3,0-28.2,1.8-41.4,5.2C130.6,34.8,121.8,53.6,114.9,73.4z M316.8,273.9c17-23.5,28-51.6,30.6-82.1
	h-55.9c-0.9,24.8-4.3,48.8-9.9,71.7C293.7,266.5,305.4,270,316.8,273.9z M281.1,91.6c5.7,23,9.3,47,10.4,71.8h56
	c-2.6-30.6-13.5-58.8-30.6-82.4C305.2,85.1,293.3,88.6,281.1,91.6z M90.1,286.9c-8.5,2.1-16.7,4.5-24.8,7.2
	c11.3,11.3,33.1,29.6,47.3,37.3C107.4,319.9,94.1,299.3,90.1,286.9z M275,286.9c-4,12.3-17.2,32.9-22.5,44.3
	c14.1-7.6,35.7-25.9,47-37.2C291.5,291.5,283.4,289.1,275,286.9z M251,281.7c-22-4-45-6.2-68.5-6.2c-23.5,0-46.4,2.1-68.3,6.1
	c6.7,19.6,15.2,38.1,25.3,55.2c13.7,3.7,28.1,5.7,43.1,5.7c15,0,29.5-2,43.3-5.7C235.8,319.7,244.3,301.3,251,281.7L251,281.7z
	 M48.1,81.1c-17.1,23.6-28,51.8-30.6,82.4h56.2c1-24.8,4.6-48.9,10.3-71.8C71.7,88.6,59.7,85.1,48.1,81.1z M17.5,191.8
	c2.7,30.5,13.6,58.6,30.6,82.1c11.5-4,23.3-7.5,35.4-10.4c-5.6-22.9-9-46.9-9.9-71.6L17.5,191.8L17.5,191.8z M90.8,68.2
	C95,55.5,108.5,34.5,114,22.7c-14.9,7.8-37,26.4-48.8,38.1C73.6,63.6,82.1,66.1,90.8,68.2z"/>
</svg>
