<?xml version="1.0" encoding="utf-8"?>
<!-- Generator: Adobe Illustrator 22.0.1, SVG Export Plug-In . SVG Version: 6.00 Build 0)  -->
<svg version="1.0" id="图层_1" xmlns="http://www.w3.org/2000/svg" xmlns:xlink="http://www.w3.org/1999/xlink" x="0px" y="0px"
	 viewBox="0 0 360 360" style="enable-background:new 0 0 360 360;" xml:space="preserve">
<style type="text/css">
	.st0{fill-rule:evenodd;clip-rule:evenodd;}
</style>
<path class="st0" d="M180.3,346.3c12.5,0,26.5-9.8,26.5-22.3V207.8H323c12.5,0,22.3-14,22.3-26.5c0-12.5-9.8-26.5-22.3-26.5H206.8
	V38.6c0-12.5-14-22.3-26.5-22.3c-12.5,0-26.5,9.8-26.5,22.3v116.2H37.6c-12.5,0-22.3,14-22.3,26.5c0,12.5,9.8,26.5,22.3,26.5h116.2
	V324C153.8,336.5,167.8,346.3,180.3,346.3L180.3,346.3z"/>
</svg>
