<?xml version="1.0" encoding="utf-8"?>
<!-- Generator: Adobe Illustrator 22.0.1, SVG Export Plug-In . SVG Version: 6.00 Build 0)  -->
<svg version="1.0" id="图层_1" xmlns="http://www.w3.org/2000/svg" xmlns:xlink="http://www.w3.org/1999/xlink" x="0px" y="0px"
	 viewBox="0 0 360 360" style="enable-background:new 0 0 360 360;" xml:space="preserve">
<style type="text/css">
	.st0{fill-rule:evenodd;clip-rule:evenodd;}
</style>
<g>
	<g>
		<path class="st0" d="M180.5,282.3c7.7,0,16.3-6.1,16.3-13.8v-71.7h71.7c7.7,0,13.7-8.6,13.7-16.3s-6.1-16.3-13.7-16.3h-71.7V92.5
			c0-7.7-8.6-13.7-16.3-13.7c-7.7,0-16.3,6-16.3,13.7v71.7H92.5c-7.7,0-13.7,8.6-13.7,16.3s6,16.3,13.7,16.3h71.7v71.7
			C164.1,276.2,172.8,282.3,180.5,282.3z M153,31.7h55c7.7,0,13.7-0.4,13.7-8.1c0-7.7-6-8.1-13.7-8.1h-55c-7.7,0-13.8,0.4-13.8,8.1
			C139.2,31.3,145.3,31.7,153,31.7z M24.1,111.7c7.7,0,8.6-6,8.6-13.7V53.8c0-9.1,12.1-22.2,21.1-22.2H98c7.7,0,13.8-0.4,13.8-8.1
			c0-7.7-6.1-8.1-13.8-8.1H59.5c-24.2,0-44,19.8-44,44V98C15.5,105.7,16.4,111.7,24.1,111.7z M24.1,221.7c7.7,0,8.6-6,8.6-13.7v-55
			c0-7.7-0.9-13.7-8.6-13.7c-7.7,0-8.6,6-8.6,13.7v55C15.5,215.7,16.4,221.7,24.1,221.7z M98,328.8H53.8c-9.1,0-21.1-11-21.1-20.1
			V263c0-7.7-0.9-13.7-8.6-13.7c-7.7,0-8.6,6-8.6,13.7v38.5c0,24.2,19.8,44,44,44H98c7.7,0,13.8-1.4,13.8-9.1S105.7,328.8,98,328.8z
			 M208,328.8h-55c-7.7,0-13.8-0.1-13.8,7.6s6.1,9.1,13.8,9.1h55c7.7,0,13.7-1.4,13.7-9.1S215.7,328.8,208,328.8z M337.4,249.3
			c-7.7,0-8.6,6-8.6,13.7v45.7c0,9.1-12.6,20.1-21.6,20.1H263c-7.7,0-13.7-0.1-13.7,7.6s6,9.1,13.7,9.1h38.5c24.2,0,44-19.8,44-44
			V263C345.5,255.3,345.1,249.3,337.4,249.3z M337.4,139.2c-7.7,0-8.6,6-8.6,13.7v55c0,7.7,0.9,13.7,8.6,13.7c7.7,0,8.1-6,8.1-13.7
			v-55C345.5,145.3,345.1,139.2,337.4,139.2z M301.5,15.5H263c-7.7,0-13.7,0.4-13.7,8.1c0,7.7,6,8.1,13.7,8.1h44.2
			c9.1,0,21.6,13.1,21.6,22.2V98c0,7.7,0.9,13.7,8.6,13.7c7.7,0,8.1-6,8.1-13.7V59.5C345.5,35.3,325.7,15.5,301.5,15.5z"/>
	</g>
</g>
</svg>
