<?xml version="1.0" encoding="utf-8"?>
<!-- Generator: Adobe Illustrator 22.0.1, SVG Export Plug-In . SVG Version: 6.00 Build 0)  -->
<svg version="1.0" id="图层_1" xmlns="http://www.w3.org/2000/svg" xmlns:xlink="http://www.w3.org/1999/xlink" x="0px" y="0px"
	 viewBox="0 0 360 360" style="enable-background:new 0 0 360 360;" xml:space="preserve">
<path d="M336.3,63.3L259,17.6c-10.5-6.2-24-2.7-30.1,7.8c-0.1,0.2-0.2,0.4-0.3,0.6l-94.1,171.2c-3.6,6.4-8.9,14.5-8.4,22.9
	l-6.1,61.4c0.2,2.6,0.8,4.9,1.8,7.3H17.5v55.8h136.3v-4.6l81.5-55.3c7.4-3.8,11.5-12.5,15.1-18.9l94.1-171.1
	C350.7,83.7,347,69.8,336.3,63.3L336.3,63.3z M224.4,251.3c-7.1,12.7-56.3,43.8-56.3,43.8c-5,2.5-9.3,4.1-14.2,1.3
	c-4.9-2.9-4.5-6.1-4.9-11.8c0,0,2.6-59.5,9.9-72.3l57.2-103.5l65.5,39.1L224.4,251.3z M230.4,83.1l20.5-34.7l65.5,39.1l-20.4,34.7
	L230.4,83.1z"/>
</svg>
