<?xml version="1.0" encoding="utf-8"?>
<!-- Generator: Adobe Illustrator 22.0.1, SVG Export Plug-In . SVG Version: 6.00 Build 0)  -->
<svg version="1.0" id="图层_1" xmlns="http://www.w3.org/2000/svg" xmlns:xlink="http://www.w3.org/1999/xlink" x="0px" y="0px"
	 viewBox="0 0 360 360" style="enable-background:new 0 0 360 360;" xml:space="preserve">
<path d="M25.4,327.3c-6,0-10.9-4.8-10.9-10.7v-257c0-5.9,20.4-8.3,26.1-8.3c5.7,0,28.9,2.4,28.9,8.3v212.7h264.1
	c6,0,10.9,23.3,10.9,29s-4.9,26-10.9,26H25.4z M98.4,189.5L177,95.1c2.1-2.7,5.2-4.3,8.7-4.3c0,0,0,0,0,0c2.3,0,4.3,0.7,6.1,1.9
	l46.7,42.5l59.4-99.2c4.5-4.5,54.9,10.6,43.1,33.9c-0.3,2.8-78,130.8-78,130.8c-1.9,1.5-4.3,2.3-6.7,2.3h0c-2.2,0-4.3-0.7-6.1-1.8
	l-61.9-41.2l-64.9,85.6C109.9,248.5,89.3,206.7,98.4,189.5z"/>
</svg>
