<?xml version="1.0" encoding="utf-8"?>
<!-- Generator: Adobe Illustrator 22.0.1, SVG Export Plug-In . SVG Version: 6.00 Build 0)  -->
<svg version="1.0" id="图层_1" xmlns="http://www.w3.org/2000/svg" xmlns:xlink="http://www.w3.org/1999/xlink" x="0px" y="0px"
	 viewBox="0 0 360 360" style="enable-background:new 0 0 360 360;" xml:space="preserve">
<style type="text/css">
	.st0{fill-rule:evenodd;clip-rule:evenodd;}
</style>
<path class="st0" d="M315.1,345.1h-270c-16.6,0-30-13.4-30-30V45.3c0-16.5,13.4-30,30-30h150h20h10c5.5,0,10,4.5,10,10
	c0,5.5-4.5,10-10,10h-10h-20h-140c-11,0-20,9-20,20v249.8c0,11,9,20,20,20h250c11,0,20-9,20-20V145.2v-18.2v-1.8c0-5.5,4.5-10,10-10
	c5.5,0,10,4.5,10,10v20v169.9C345.1,331.7,331.7,345.1,315.1,345.1L315.1,345.1 M151.8,212.7c-3.9,3.9-10.2,3.9-14.1,0
	c-3.9-3.9-3.9-10.2,0-14.1L317.4,18c3.9-3.9,10.2-3.9,14.1,0c3.9,3.9,3.9,10.2,0,14.1L151.8,212.7L151.8,212.7 M151.8,212.7"/>
</svg>
