<?xml version="1.0" encoding="utf-8"?>
<!-- Generator: Adobe Illustrator 22.0.1, SVG Export Plug-In . SVG Version: 6.00 Build 0)  -->
<svg version="1.0" id="图层_1" xmlns="http://www.w3.org/2000/svg" xmlns:xlink="http://www.w3.org/1999/xlink" x="0px" y="0px"
	 viewBox="0 0 360 360" style="enable-background:new 0 0 360 360;" xml:space="preserve">
<g>
	<g>
		<path d="M340.5,315.9l-76.2-76.2c18.3-23.5,29.2-53.1,29.2-85.2c0-76.7-62.2-138.9-139-138.9c-76.7,0-138.9,62.2-138.9,138.9
			c0,76.8,62.2,139,138.9,139c32.1,0,61.7-10.9,85.2-29.2l76.2,76.2c3.4,3.4,7.8,5.1,12.3,5.1c4.4,0,8.9-1.7,12.3-5.1
			C347.3,333.7,347.3,322.7,340.5,315.9z M154.5,258.7C97,258.7,50.3,212,50.3,154.5C50.3,97.1,97,50.3,154.5,50.3
			c57.5,0,104.2,46.7,104.2,104.2C258.7,212,212,258.7,154.5,258.7z M205.7,139.7H103.4c-8.2,0-14.9,6.6-14.9,14.8
			c0,8.2,6.6,14.9,14.9,14.9h102.3c8.2,0,14.9-6.7,14.9-14.9C220.5,146.3,213.9,139.7,205.7,139.7z"/>
	</g>
</g>
</svg>
