<?xml version="1.0" encoding="utf-8"?>
<!-- Generator: Adobe Illustrator 22.0.1, SVG Export Plug-In . SVG Version: 6.00 Build 0)  -->
<svg version="1.0" id="图层_1" xmlns="http://www.w3.org/2000/svg" xmlns:xlink="http://www.w3.org/1999/xlink" x="0px" y="0px"
	 viewBox="0 0 360 360" style="enable-background:new 0 0 360 360;" xml:space="preserve">
<style type="text/css">
	.st0{fill-rule:evenodd;clip-rule:evenodd;}
</style>
<path class="st0" d="M343.8,160.7c-1.3-7-8.2-14.1-15.4-15.7l-5.4-1.2c-12.6-3.7-23.8-11.8-30.9-23.8c-7.1-12-8.8-25.7-5.7-38.2l0,0
	l1.7-4.9c2.1-6.8-0.6-16.2-6.3-20.8c0,0-5-4.1-19.3-12.1C248.3,36.2,242.1,34,242.1,34c-6.9-2.5-16.6-0.1-21.7,5.1l-3.8,3.9
	c-9.6,8.8-22.4,14.1-36.7,14.1c-14.2,0-27.2-5.4-36.8-14.3l-3.6-3.8c-5-5.2-14.8-7.5-21.7-5.1c0,0-6.2,2.2-20.4,10.1
	c-14.2,8-19.2,12.2-19.2,12.2C72.6,60.9,69.9,70.2,72,77l1.6,5c3,12.5,1.4,26.1-5.7,38.1c-7.1,12-18.4,20.2-31.1,23.8l-5.2,1.1
	c-7.1,1.6-14.1,8.6-15.4,15.7c0,0-1.2,6.3-1.2,22.3s1.2,22.3,1.2,22.3c1.3,7,8.2,14.1,15.4,15.7l5,1.1l0,0
	c12.7,3.6,24.1,11.8,31.2,23.9c7.1,12,8.8,25.7,5.7,38.2l0,0l-1.5,4.8c-2.1,6.8,0.6,16.2,6.3,20.8c0,0,5,4.1,19.3,12.1
	c14.2,8,20.4,10.1,20.4,10.1c6.9,2.5,16.6,0.1,21.7-5.1l3.6-3.7c9.6-8.9,22.6-14.3,36.9-14.3c14.3,0,27.3,5.5,36.9,14.3l0,0l3.6,3.7
	c5,5.2,14.7,7.5,21.7,5.1c0,0,6.2-2.2,20.4-10.1c14.2-8,19.2-12.1,19.2-12.1c5.6-4.6,8.4-14,6.3-20.8l-1.6-5c-3-12.4-1.4-26,5.7-38
	c7.1-12,18.5-20.2,31.2-23.9l0,0l5-1.1c7.1-1.6,14.1-8.6,15.4-15.7c0,0,1.2-6.3,1.2-22.3C344.9,167,343.8,160.7,343.8,160.7
	L343.8,160.7 M180,246.9c-36.3,0-65.8-28.6-65.8-63.9c0-35.3,29.4-63.9,65.8-63.9c36.3,0,65.8,28.6,65.8,63.9
	C245.8,218.3,216.3,246.9,180,246.9L180,246.9 M180,246.9"/>
</svg>
