<?xml version="1.0" encoding="utf-8"?>
<!-- Generator: Adobe Illustrator 22.0.1, SVG Export Plug-In . SVG Version: 6.00 Build 0)  -->
<svg version="1.0" id="图层_1" xmlns="http://www.w3.org/2000/svg" xmlns:xlink="http://www.w3.org/1999/xlink" x="0px" y="0px"
	 viewBox="0 0 360 360" style="enable-background:new 0 0 360 360;" xml:space="preserve">
<path d="M179.7,14.7c-91.1,0-165,73.9-165,165s73.9,165,165,165s165-73.9,165-165S270.8,14.7,179.7,14.7z M257.5,238
	c5.3,5.3,5.3,14.1,0,19.4s-14.1,5.3-19.4,0l-58.3-58.3l-58.3,58.3c-5.3,5.3-14.1,5.3-19.4,0s-5.3-14.1,0-19.4l58.3-58.3l-58.3-58.3
	c-5.3-5.3-5.3-14.1,0-19.4s14.1-5.3,19.4,0l58.3,58.3l58.3-58.3c5.3-5.3,14.1-5.3,19.4,0s5.3,14.1,0,19.4l-58.3,58.3L257.5,238z"/>
</svg>
