<?xml version="1.0" encoding="utf-8"?>
<!-- Generator: Adobe Illustrator 22.0.1, SVG Export Plug-In . SVG Version: 6.00 Build 0)  -->
<svg version="1.0" id="图层_1" xmlns="http://www.w3.org/2000/svg" xmlns:xlink="http://www.w3.org/1999/xlink" x="0px" y="0px"
	 viewBox="0 0 360 360" style="enable-background:new 0 0 360 360;" xml:space="preserve">
<g>
	<g>
		<path d="M180.5,14.5c-91.1,0-165,73.9-165,165s73.9,165,165,165s165-73.9,165-165S271.6,14.5,180.5,14.5z M180.5,326.2
			c-81,0-146.7-65.7-146.7-146.7S99.5,32.8,180.5,32.8s146.7,65.7,146.7,146.7S261.5,326.2,180.5,326.2z M235.5,114
			c-10.1,0-18.3,8.2-18.3,18.3s8.2,18.3,18.3,18.3s18.3-8.2,18.3-18.3S245.6,114,235.5,114z M143.8,132.3c0-10.1-8.2-18.3-18.3-18.3
			s-18.3,8.2-18.3,18.3s8.2,18.3,18.3,18.3S143.8,142.5,143.8,132.3z M180.4,193.5c-27,0-50.8,14.1-64.9,35.8
			c-4.4,6.7-1.1,15.6,6.8,15.6h0.8c3.1,0,6-2.3,7.8-4.9c10.6-15.8,29.8-28.2,49.6-28.2c20,0,39.9,12.8,50.4,28.7
			c1.8,2.7,5.1,4.4,8.3,4.4h0.5c7.8,0,10-9,5.7-15.6C231.1,207.7,207.3,193.5,180.4,193.5z"/>
	</g>
</g>
</svg>
