<?xml version="1.0" encoding="utf-8"?>
<!-- Generator: Adobe Illustrator 22.0.1, SVG Export Plug-In . SVG Version: 6.00 Build 0)  -->
<svg version="1.0" id="图层_1" xmlns="http://www.w3.org/2000/svg" xmlns:xlink="http://www.w3.org/1999/xlink" x="0px" y="0px"
	 viewBox="0 0 360 360" style="enable-background:new 0 0 360 360;" xml:space="preserve">
<style type="text/css">
	.st0{fill-rule:evenodd;clip-rule:evenodd;}
</style>
<path class="st0" d="M345,145c0,2.9-1.7,6-5.2,9.4l-72,69l17.1,97.4c0.1,0.9,0.2,2.2,0.2,3.9c0,2.7-0.7,5-2.1,6.9
	c-1.4,1.9-3.4,2.8-6,2.8c-2.5,0-5.2-0.8-7.9-2.3l-89-46l-89,46c-2.9,1.6-5.6,2.3-7.9,2.3c-2.8,0-4.9-0.9-6.3-2.8
	c-1.4-1.9-2.1-4.2-2.1-6.9c0-0.8,0.1-2.1,0.4-3.9l17.1-97.4l-72.2-69c-3.3-3.5-5-6.6-5-9.4c0-4.8,3.7-7.8,11.1-9l99.6-14.2
	l44.6-88.7c2.5-5.3,5.8-8,9.7-8c4,0,7.2,2.7,9.7,8l44.6,88.7l99.6,14.2C341.3,137.2,345,140.2,345,145L345,145L345,145z"/>
</svg>
