<?xml version="1.0" encoding="utf-8"?>
<!-- Generator: Adobe Illustrator 22.0.1, SVG Export Plug-In . SVG Version: 6.00 Build 0)  -->
<svg version="1.0" id="图层_1" xmlns="http://www.w3.org/2000/svg" xmlns:xlink="http://www.w3.org/1999/xlink" x="0px" y="0px"
	 viewBox="0 0 360 360" style="enable-background:new 0 0 360 360;" xml:space="preserve">
<style type="text/css">
	.st0{fill-rule:evenodd;clip-rule:evenodd;}
</style>
<g>
	<g>
		<path class="st0" d="M116.8,141.1c1.3,3.5,3.5,6.2,6.6,7.8c0,0,1.1,0.7,2.2,0.9c0.1,0,0.2,0.1,0.3,0.2l0,0
			c0.1,0.1,0.1,0.2,0.1,0.3c0.3,20.3,20.3,58.3,51.5,58.3c31.2,0,51.3-38.1,51.5-58.3c0-0.1,0-0.2,0.1-0.3c0,0,0,0,0,0
			c0.1-0.1,0.2-0.2,0.3-0.2c1.1-0.3,2.2-0.9,2.2-0.9c3-1.6,5.3-4.3,6.6-7.8c1.9-5.2,3.2-17,3.5-20.8c1.1-12.8,0.2-19.6-3-23.4
			l-1.4-1.7l0-2.3c0-2.9,0.1-5.6,0.2-8.1c0.5-19,0.9-35.3-17.2-45.8l-1.7-1l-0.7-1.9c-7-18.9-29.7-20.4-37.1-20.9l-1.4-0.1
			c-1-0.1-3.7-0.1-3.7-0.1c-21.2,0.7-36.2,6.4-45.9,17.6c-13.5,15.6-12.8,37-12.3,56l0.2,6.7l-1.4,1.7c-3.2,3.8-4.1,10.7-2.9,23.3
			C113.5,123.3,114.8,135.7,116.8,141.1z M121.8,104.8c0.3-1.2,1.5-3.7,3.3-3.5c2.8,0.2,4.7,7.5,5.5,9.4c0.5,1.1,1.4,0.6,1.3-0.2
			c0,0-1.7-27.7-0.3-33.8c1.6-6.8,2.6-9.8,7.5-15.1c4.1-5.1,11.8-6.9,17-4.1l9.6,5.2c6.1,4,16,3.9,22.1-0.1c0,0,4.2-2.3,9.3-5.2
			c5.2-2.9,12.9-1,17.3,4.1c0,0,4.9,5.2,7.9,15.1c2.7,8.2,0.6,33.8,0.6,33.8c-0.1,0.8,0.9,1.3,1.3,0.2c0.8-1.9,2.7-9.2,5.5-9.4
			c1.9-0.1,3,2.3,3.4,3.5c0.5,2,0.9,6.1,0.2,14.6c-0.6,7.4-2,15.6-3,18.3c-0.6,1.7-1.8,2.8-3.4,3.4c-4.7,1.5-5.8,4.8-6,6.6
			c0,0.3-0.1,0.9-0.2,1.4c-0.1,0.5-0.1,1.3-0.1,1.8c-0.6,17.2-18.7,48.8-43.2,48.8s-42.6-31.6-43.2-48.8c0-0.5-0.1-1.3-0.1-1.8
			c-0.1-0.5-0.1-1.1-0.2-1.4c-0.2-1.8-1.2-5.2-6-6.6c-1.7-0.5-2.8-1.7-3.4-3.4c-1-2.7-2.3-11-3-18.3
			C120.9,110.9,121.3,106.9,121.8,104.8z M314.9,321.6c0,0-11.9-90.7-28.8-101.2c-9.5-6.6-33.1-5.3-58.4-22.9
			c-0.1-0.1-0.3-0.2-0.3-0.2c-2.5-2.1-6.7-2.6-6.4,1.4c1.3,9.9-9,48-22.6,79.8c-3.4-12.9-9.8-35.1-11.1-38.2c-0.3-0.6-0.1-1.5,0.3-2
			c1.9-2.4,6.7-8.9,7.4-12.3c1-4.4-1.1-7.4-4.3-10.2c-1.3-1.2-3.5-1.6-5-0.8l-5.5,2.7c-1.5,0.8-4,0.8-5.5,0l-5.5-2.7
			c-1.5-0.8-3.7-0.4-5,0.8c-3.2,2.8-5.3,5.8-4.3,10.2c0.8,3.4,5.6,9.9,7.5,12.3c0.4,0.5,0.5,1.4,0.3,2c-1.3,3.1-7.6,25.4-11,38.2
			c-13.6-31.8-23.9-69.9-22.6-79.8c0.3-3.9-3.9-3.5-6.4-1.4c0,0-0.2,0.1-0.3,0.2c-25.2,17.6-48.9,16.2-58.4,22.9
			C52,231,40.1,321.6,40.1,321.6C39,330.3,42.7,345,61.3,345h232.3C312.3,345,315.9,330.3,314.9,321.6z M154.4,143.5
			c10.4,0,18.8-9.2,18.8-20.5c0-0.9-0.1-1.9-0.2-2.8c1.4-0.3,2.9-0.5,4.4-0.5c1.5,0,3,0.2,4.5,0.5c-0.1,0.9-0.2,1.8-0.2,2.8
			c0,11.3,8.4,20.5,18.8,20.5c10.4,0,18.8-9.2,18.8-20.5c0-11.3-8.5-20.5-18.8-20.5c-7.2,0-13.4,4.4-16.6,10.8
			c-2.1-0.5-4.3-0.8-6.5-0.8c-2.2,0-4.4,0.3-6.4,0.8c-3.2-6.4-9.4-10.8-16.6-10.8c-10.4,0-18.8,9.2-18.8,20.5
			C135.6,134.3,144,143.5,154.4,143.5z M200.6,109.7c6.7,0,12.2,5.9,12.2,13.3c0,7.3-5.5,13.3-12.2,13.3c-6.7,0-12.2-5.9-12.2-13.3
			C188.4,115.6,193.9,109.7,200.6,109.7z M154.4,109.7c6.7,0,12.2,5.9,12.2,13.3c0,7.3-5.5,13.3-12.2,13.3
			c-6.7,0-12.2-5.9-12.2-13.3C142.2,115.6,147.7,109.7,154.4,109.7z"/>
	</g>
</g>
</svg>
