<?xml version="1.0" encoding="utf-8"?>
<!-- Generator: Adobe Illustrator 22.0.1, SVG Export Plug-In . SVG Version: 6.00 Build 0)  -->
<svg version="1.0" id="图层_1" xmlns="http://www.w3.org/2000/svg" xmlns:xlink="http://www.w3.org/1999/xlink" x="0px" y="0px"
	 viewBox="0 0 360 360" style="enable-background:new 0 0 360 360;" xml:space="preserve">
<path d="M345.5,179.5c0,91.1-73.9,165-165,165c-91.1,0-165-73.9-165-165s73.9-165,165-165C271.6,14.5,345.5,88.3,345.5,179.5z
	 M276.9,264.4c0.1-1.7,0.2-8.8-4.5-16.8c-2.9-5.1-7.2-9.5-12.7-13c-6.5-4.3-14.8-7.4-24.6-9.2c-0.1,0-0.2,0-0.2,0
	c-0.1,0-6.8-0.9-13.9-2.7c-11.9-3-14.1-5.7-14.3-6.1c-0.1-0.3-0.2-0.6-0.3-0.8c-0.1-0.6-0.3-2.8,0.2-8c1.2-14.1,8.7-22.5,14.6-29.3
	c1.9-2.2,3.8-4.3,5.2-6.3c6.2-8.9,6.7-19.1,6.8-19.5c0-0.1,0-0.2,0-0.2c0-1.3-0.2-2.5-0.5-3.5c-0.7-2.1-1.9-3.4-2.7-4.3
	c-0.2-0.2-0.3-0.3-0.4-0.4c0-0.1,0-0.3,0-0.5c0.5-3.6,0.8-6.7,1-9.6c0.3-5.1,0.5-12.8-0.8-20.4c-0.2-1.3-0.4-2.7-0.9-4.3
	c-1.4-5.3-3.6-9.8-6.7-13.4c0,0-0.1-0.1-0.1-0.1c-0.4-0.4-3.8-4.1-11.8-8c-10.3-5.1-23.3-8.2-38.6-9.4c-5.1-0.4-10.2-0.2-14.9,0.1
	l-0.2,0c-1.2,0.1-2.9,0.1-4.6,0.6c-4.5,1.2-5.6,4.4-5.8,5.7c-0.5,2.6,0.4,4.6,0.9,5.9c0,0,0,0,0,0c-0.8,1.2-2.1,2.4-3.2,3.4
	c0,0,0,0,0,0c-0.4,0.4-9.9,8.8-10.4,19.8c-1.4,8.2-1.3,20.9,0.3,29.2c0,0.2,0.1,0.4,0.1,0.6c0.1,0.3,0.1,0.6,0.2,0.9
	c-1.8,1.6-3.9,3.7-3.9,8c0,0.1,0,0.2,0,0.2c0,0.4,0.6,10.6,6.8,19.5c1.4,2.1,3.3,4.1,5.2,6.3c6,6.8,13.4,15.2,14.6,29.3
	c0.5,5.2,0.3,7.3,0.2,8c-0.1,0.3-0.2,0.5-0.3,0.8c-0.2,0.3-2.4,3-14.2,6c-7.1,1.8-13.9,2.7-13.9,2.7c-0.1,0-0.1,0-0.2,0
	c-9.7,1.7-17.9,4.7-24.4,8.9c-5.4,3.5-9.7,7.9-12.6,13c-5,8.7-4.6,16.4-4.5,17.2c0.2,2.3,2,4.1,4.2,4.4c-0.5,0.3-1.1,0.4-1.7,0.5
	H277L276.9,264.4z"/>
</svg>
