<?xml version="1.0" encoding="utf-8"?>
<!-- Generator: Adobe Illustrator 22.0.1, SVG Export Plug-In . SVG Version: 6.00 Build 0)  -->
<svg version="1.0" id="图层_1" xmlns="http://www.w3.org/2000/svg" xmlns:xlink="http://www.w3.org/1999/xlink" x="0px" y="0px"
	 viewBox="0 0 360 360" style="enable-background:new 0 0 360 360;" xml:space="preserve">
<style type="text/css">
	.st0{fill-rule:evenodd;clip-rule:evenodd;}
	.st1{fill:none;stroke:#000000;stroke-width:12;stroke-miterlimit:10;}
</style>
<path class="st0" d="M178.6,14.9c-91.1,0-165,73.9-165,165s73.9,165,165,165s165-73.9,165-165S269.8,14.9,178.6,14.9z M178.6,329.9
	c-82.8,0-150-67.2-150-150s67.2-150,150-150s150,67.2,150,150S261.5,329.9,178.6,329.9z"/>
<path class="st1" d="M267.5,264.3c0.1-1.6,0.1-8.2-4.2-15.7c-2.8-4.7-6.7-8.8-11.8-12.1c-6.1-4-13.9-6.9-23-8.5c-0.1,0-0.1,0-0.2,0
	c-0.1,0-6.3-0.9-13-2.5c-11.1-2.8-13.2-5.3-13.4-5.6c-0.1-0.3-0.2-0.5-0.3-0.8c-0.1-0.6-0.3-2.6,0.2-7.4c1.2-13.2,8.1-21,13.7-27.3
	c1.8-2,3.5-4,4.9-5.9c5.8-8.3,6.3-17.7,6.3-18.1c0-0.1,0-0.1,0-0.2c0-1.3-0.1-2.3-0.4-3.3c-0.6-2-1.8-3.2-2.6-4
	c-0.1-0.2-0.3-0.3-0.4-0.4c0-0.1,0-0.3,0-0.5c0.5-3.4,0.8-6.2,0.9-8.9c0.3-4.8,0.5-12-0.7-19c-0.1-1.2-0.4-2.5-0.8-4
	c-1.3-4.9-3.4-9.1-6.2-12.5c0,0-0.1-0.1-0.1-0.1c-0.3-0.4-3.5-3.8-11-7.5c-9.6-4.7-21.8-7.7-36.1-8.8c-4.8-0.4-9.5-0.2-13.9,0.1
	l-0.2,0c-1.1,0.1-2.7,0.1-4.3,0.5c-4.2,1.1-5.2,4.1-5.4,5.3c-0.5,2.4,0.4,4.3,0.8,5.5c0,0,0,0,0,0c-0.7,1.1-1.9,2.2-3,3.1
	c0,0,0,0,0,0c-0.4,0.3-9.2,8.2-9.8,18.4c-1.3,7.6-1.2,19.5,0.2,27.2c0,0.2,0.1,0.4,0.1,0.5c0.1,0.2,0.1,0.5,0.1,0.8
	c-1.6,1.5-3.6,3.4-3.6,7.4c0,0.1,0,0.2,0,0.2c0,0.4,0.6,9.8,6.3,18.1c1.3,1.9,3,3.8,4.8,5.9c5.6,6.3,12.5,14.1,13.7,27.3
	c0.4,4.9,0.2,6.8,0.2,7.4c-0.1,0.2-0.2,0.5-0.3,0.8c-0.2,0.3-2.2,2.8-13.3,5.6c-6.6,1.7-13,2.5-13,2.6c-0.1,0-0.1,0-0.2,0
	c-9.1,1.6-16.8,4.4-22.8,8.3c-5.1,3.3-9,7.3-11.8,12.1c-4.7,8.1-4.3,15.2-4.2,16c0.2,2.2,1.8,3.8,3.9,4.1c-0.5,0.3-1,0.4-1.6,0.5
	h175.7L267.5,264.3z"/>
</svg>
