<?xml version="1.0" encoding="utf-8"?>
<!-- Generator: Adobe Illustrator 22.0.1, SVG Export Plug-In . SVG Version: 6.00 Build 0)  -->
<svg version="1.0" id="图层_1" xmlns="http://www.w3.org/2000/svg" xmlns:xlink="http://www.w3.org/1999/xlink" x="0px" y="0px"
	 viewBox="0 0 360 360" style="enable-background:new 0 0 360 360;" xml:space="preserve">
<style type="text/css">
	.st0{fill-rule:evenodd;clip-rule:evenodd;}
</style>
<path class="st0" d="M179.9,14.4c-91.1,0-165,73.9-165,165s73.9,165,165,165s165-73.9,165-165S271,14.4,179.9,14.4z M179.9,329.4
	c-82.8,0-150-67.2-150-150s67.2-150,150-150s150,67.2,150,150S262.7,329.4,179.9,329.4z"/>
<g>
	<path d="M193.8,95.6l-4,5.1c19.3,25,45.4,44.1,78,57.3c-2.8,3.8-5.9,8.4-9.3,14.1c-31.9-15.5-57.9-35.9-78-61.2
		c-17.6,22.5-44.1,43.6-79.5,63.3c-2.5-4.7-5.4-9.3-9-13.9c37.9-18,65.3-39.6,82.3-64.7H193.8z M127,159.9h102
		c-0.7,16.1-1.5,28.6-2.3,37.6c-0.8,10.4-3.3,17.6-7.4,21.4c-4.2,4-11.5,5.9-21.8,5.8c-6.7,0-13.7-0.1-21.1-0.4
		c-0.7-4.5-1.6-9.4-2.8-14.8c9.8,1.1,17.3,1.6,22.3,1.6c6.2,0,10.5-1,12.8-3c2.2-1.9,3.6-5.7,4.2-11.6c0.7-6.8,1.2-14.7,1.6-23.7
		h-73.7v61.5c0,10.3,5.4,15.5,16.2,15.5h60.8c12.8,0,19.9-4.2,21.4-12.7c1.5-6.9,2.8-15.4,3.9-25.5c4.2,1.9,8.8,3.6,13.7,5.1
		c-1.4,9.4-3.1,18.2-5.1,26.4c-3.3,13.4-13.7,20-31.3,20H153c-17.3,0-26-8.6-26-25.7V159.9z"/>
</g>
</svg>
