<?xml version="1.0" encoding="utf-8"?>
<!-- Generator: Adobe Illustrator 22.0.1, SVG Export Plug-In . SVG Version: 6.00 Build 0)  -->
<svg version="1.0" id="图层_1" xmlns="http://www.w3.org/2000/svg" xmlns:xlink="http://www.w3.org/1999/xlink" x="0px" y="0px"
	 viewBox="0 0 360 360" style="enable-background:new 0 0 360 360;" xml:space="preserve">
<g>
	<g>
		<path d="M180.5,14.5c-91.1,0-165,73.9-165,165c0,91.1,73.9,165,165,165s165-73.9,165-165C345.5,88.4,271.6,14.5,180.5,14.5z
			 M180.5,333.5c-85.1,0-154-68.9-154-154c0-85.1,68.9-154,154-154c85.1,0,154,68.9,154,154C334.5,264.6,265.6,333.5,180.5,333.5z
			 M156.5,264.3h13.2V254h71.3v10.3h13.2v-62.9h-97.8V264.3z M169.7,213.1h71.3v29.2h-71.3V213.1z M133.5,94.7
			c-8.5,30.2-21.1,57.9-38,82.8c1.9,4.6,3.8,9.3,5.7,14.1c5.8-7.7,11.4-16.1,16.7-25.4v98.1h12.7V141.1c5.9-13,11.3-27.2,16.3-42.6
			L133.5,94.7z M214.3,113.9c-4-6.9-8.1-13.4-12.2-19.6l-11.5,6c3.7,5.8,7.3,11.6,10.7,17.5h-56.1v12h121v-12h-59.4L214.3,113.9z
			 M154.6,185.3H256v-11.7H154.6V185.3z M154.6,157.6H256v-11.7H154.6V157.6z"/>
	</g>
</g>
</svg>
