<?xml version="1.0" encoding="utf-8"?>
<!-- Generator: Adobe Illustrator 22.0.1, SVG Export Plug-In . SVG Version: 6.00 Build 0)  -->
<svg version="1.0" id="图层_1" xmlns="http://www.w3.org/2000/svg" xmlns:xlink="http://www.w3.org/1999/xlink" x="0px" y="0px"
	 viewBox="0 0 360 360" style="enable-background:new 0 0 360 360;" xml:space="preserve">
<path d="M313.3,123c-0.2,0-0.4,0-0.6,0c-14.4-62.2-69.2-108.5-135-108.5c-67.6,0-123.7,48.9-136.1,113.7
	c-12.1,2.2-21.3,12.8-21.3,25.7v51.5c0,14.4,11.6,26.1,25.8,26.1c8.1,0,15.2-3.8,19.9-9.6c11.4,30.2,34.7,54.6,64.1,67.4
	c0,0,2.6,1.1,3.6,0.4c0.4-0.2,0.8-0.7,0.9-1.1c0.1-0.4,0.2-1.4-0.5-2.1c-6.8-5.1-31.4-31.1-36.8-67.5c-2.3-16,9.7-31.7,23.6-34.3
	c22.4-4.2,44.7-8.9,67.2-13c14.3-2.6,24-10.4,30-23.4c1.4-3,3.4-9.2,4.3-18.1c0.2-1.3,1.3-2.3,2.7-2.3c0.9,0,1.7,0.5,2.2,1.2
	l0.6-0.4c8.8,12.8,26.4,41.3,28.9,71.2c2.9,34.3,1.3,57.7-24.9,81.7c0,0-0.1,0.1-0.1,0.1c-0.4,0.4-0.6,0.9-0.6,1.5
	c0,0.7,0.4,1.4,1,1.8c0.4,0.2,1.1,0.5,1.7,0.3c0.4-0.2,0.7-0.4,1.1-0.6c26.5-14.6,46.9-39,56.3-68.4c3.8,5.7,9.8,9.7,16.7,11.1
	c-11.1,50.5-56.1,82.1-111.9,86.9c-3.3-8.3-11.6-14.2-21.2-14.2c-12.6,0-22.9,10-22.9,22.3s10.2,22.3,22.9,22.3
	c10.2,0,18.7-6.5,21.7-15.5c64.6-5.2,116.4-43.6,127.2-103.3c9.5-4,16.3-13.4,16.3-24.3v-52.1C339.8,134.8,327.9,123,313.3,123
	L313.3,123z M289.4,137.9c-16.8-45.6-60.5-78.2-111.8-78.2C126.5,59.7,83,92,66,137.4c-0.8-1-1.8-1.9-2.8-2.8
	c9.6-55.2,57.2-97.2,114.5-97.2c57.1,0,104.4,41.6,114.4,96.4C291.1,135.1,290.2,136.5,289.4,137.9L289.4,137.9z"/>
</svg>
