<?xml version="1.0" encoding="utf-8"?>
<!-- Generator: Adobe Illustrator 22.0.1, SVG Export Plug-In . SVG Version: 6.00 Build 0)  -->
<svg version="1.1" id="图层_1" xmlns="http://www.w3.org/2000/svg" xmlns:xlink="http://www.w3.org/1999/xlink" x="0px" y="0px"
	 viewBox="0 0 360 360" style="enable-background:new 0 0 360 360;" xml:space="preserve">
<g>
	<g>
		<path d="M64.6,107.8h235.7c13,0,23.6-10.6,23.6-23.6V37.1c0-13-10.6-23.6-23.6-23.6H64.6c-13,0-23.6,10.6-23.6,23.6v47.1
			C41.1,97.2,51.7,107.8,64.6,107.8z M206.1,131.4H64.6c-13,0-23.6,10.6-23.6,23.6v165c0,13,10.6,23.6,23.6,23.6h141.4
			c13,0,23.6-10.6,23.6-23.6v-165C229.6,142,219,131.4,206.1,131.4z M300.4,131.4h-23.6c-13,0-23.6,10.6-23.6,23.6v165
			c0,13,10.6,23.6,23.6,23.6h23.6c13,0,23.6-10.6,23.6-23.6v-165C323.9,142,313.3,131.4,300.4,131.4z"/>
	</g>
</g>
</svg>
