<?xml version="1.0" encoding="utf-8"?>
<!-- Generator: Adobe Illustrator 22.0.1, SVG Export Plug-In . SVG Version: 6.00 Build 0)  -->
<svg version="1.1" id="图层_1" xmlns="http://www.w3.org/2000/svg" xmlns:xlink="http://www.w3.org/1999/xlink" x="0px" y="0px"
	 viewBox="0 0 360 360" style="enable-background:new 0 0 360 360;" xml:space="preserve">
<path d="M274,14.5H91c-27.7,0-49.9,21.2-49.9,47.3v235.4c0,26.1,22.3,47.3,49.8,47.3h145.6l87.4-82.9v-200
	C323.9,35.5,301.6,14.5,274,14.5z M194.3,238.5c0,6.5-5.3,11.7-11.8,11.7c-6.5,0-11.8-5.3-11.8-11.7l-0.1-42.5h-35.3
	c-6.5,0-11.8-5.3-11.8-11.7c0-6.5,5.3-11.7,11.8-11.7h35.3V149h-35.1c-6.5,0-11.8-5.3-11.8-11.7c0-6.5,5.3-11.7,11.8-11.7h31.4
	l-40.3-44.3c-4.3-4.8-4-12.2,0.8-16.6c4.8-4.3,12.3-4,16.6,0.8l38.4,42.2l38.4-42.2c4.4-4.8,11.8-5.1,16.6-0.8
	c4.8,4.3,5.2,11.8,0.8,16.6L198,125.5h31.7c6.5,0,11.8,5.3,11.8,11.7c0,6.5-5.3,11.7-11.8,11.7h-35.5v23.5h35.3
	c6.5,0,11.8,5.3,11.8,11.7c0,6.5-5.3,11.7-11.8,11.7h-35.3L194.3,238.5z M234.7,312.8v-35.3c0-6.4,5.6-11.7,12.4-11.7h37.1
	L234.7,312.8z"/>
</svg>
