<?xml version="1.0" encoding="utf-8"?>
<!-- Generator: Adobe Illustrator 22.0.1, SVG Export Plug-In . SVG Version: 6.00 Build 0)  -->
<svg version="1.0" id="图层_1" xmlns="http://www.w3.org/2000/svg" xmlns:xlink="http://www.w3.org/1999/xlink" x="0px" y="0px"
	 viewBox="0 0 360 360" style="enable-background:new 0 0 360 360;" xml:space="preserve">
<g>
	<g>
		<path d="M205.5,127.6h52.4v-11.7h-44.3c3.3-4.4,6.9-9.2,10.7-14.4l-12.5-6.9c-4.6,7.7-9.2,14.8-13.7,21.3h-43.9l7.2-5.2
			c-4.6-5.6-9.5-11.1-14.8-16.5l-10,7.2c4.5,5,8.4,9.8,11.8,14.4h-47.2v11.7h52.4V163H95.6v11.7h167.8V163h-57.9V127.6z M192.9,163
			h-26.8v-35.4h26.8V163z M122.4,131.2l-9.3,8.4c7.4,7.4,13.8,14.2,18.9,20.3l10-8.9C136.3,144.8,129.8,138.2,122.4,131.2z
			 M119.7,264.8h13.1v-7.9h93.5v7.9h13.1v-76H119.7V264.8z M132.8,200.5h93.5v16.7h-93.5V200.5z M132.8,228.5h93.5v16.7h-93.5V228.5
			z M225.2,160.4c6.6-6.8,13.2-14,19.6-21.7l-11-7.9c-6,8-12,15.2-18.2,21.5L225.2,160.4z M179.5,14.5c-91.1,0-165,73.9-165,165
			c0,91.1,73.9,165,165,165s165-73.9,165-165C344.5,88.4,270.6,14.5,179.5,14.5z M179.5,333.5c-85.1,0-154-68.9-154-154
			c0-85.1,68.9-154,154-154c85.1,0,154,68.9,154,154C333.5,264.6,264.6,333.5,179.5,333.5z"/>
	</g>
</g>
</svg>
