<?xml version="1.0" encoding="utf-8"?>
<!-- Generator: Adobe Illustrator 22.0.1, SVG Export Plug-In . SVG Version: 6.00 Build 0)  -->
<svg version="1.0" id="图层_1" xmlns="http://www.w3.org/2000/svg" xmlns:xlink="http://www.w3.org/1999/xlink" x="0px" y="0px"
	 viewBox="0 0 360 360" style="enable-background:new 0 0 360 360;" xml:space="preserve">
<style type="text/css">
	.st0{fill-rule:evenodd;clip-rule:evenodd;}
</style>
<path class="st0" d="M179.4,13.4c-91.1,0-165,73.9-165,165s73.9,165,165,165s165-73.9,165-165S270.5,13.4,179.4,13.4z M179.4,328.4
	c-82.8,0-150-67.2-150-150s67.2-150,150-150s150,67.2,150,150S262.2,328.4,179.4,328.4z"/>
<g>
	<path d="M103.9,140.2c9.8,8,19.2,15.9,27.9,23.7c-3,3.2-6.4,6.9-10.2,11.1c-10.5-10.4-19.3-18.8-26.4-25.1L103.9,140.2z M118.5,191
		c5.6,2.9,10.3,5.1,13.9,6.5c-7.9,29.3-13.5,50.9-17.1,64.9l-14.4-6.7C107.8,236.1,113.7,214.6,118.5,191z M111.8,95
		c7.1,6,16.1,14.1,26.7,24.3c-3.9,3.8-7.4,7.3-10.5,10.5c-8.6-9.5-17-18.2-25.3-26L111.8,95z M169.3,128.8h12.8v43.6
		c0,17.8-1.6,32.1-4.9,42.9c15.2,11.7,28.5,22.3,39.7,31.6l-9.5,10.7c-9.4-8.9-21-19.1-34.8-30.6c-7.3,14.4-20.3,27.1-39.2,38.1
		c-2.6-3.8-5.4-7.5-8.6-11.3c17.5-10.1,29.4-21.3,35.9-33.6c5.7-10.7,8.6-26.5,8.6-47.6V128.8z M141.8,101.4h66.3v111.1h-12.7v-98.8
		h-41v98.8h-12.7V101.4z M250.6,91.7h12.8v149.6c0,13.5-6.5,20.2-19.5,20.2c-5.6,0-12.3-0.1-20-0.4c-0.5-4.3-1.3-9.1-2.5-14.4
		c7.5,0.8,13.9,1.2,19.2,1.2c6.7,0,10-3.3,10-10V91.7z M235.5,222.5h-12.3V105.9h12.3V222.5z"/>
</g>
</svg>
