<?xml version="1.0" encoding="utf-8"?>
<!-- Generator: Adobe Illustrator 22.0.1, SVG Export Plug-In . SVG Version: 6.00 Build 0)  -->
<svg version="1.0" id="图层_1" xmlns="http://www.w3.org/2000/svg" xmlns:xlink="http://www.w3.org/1999/xlink" x="0px" y="0px"
	 viewBox="0 0 360 360" style="enable-background:new 0 0 360 360;" xml:space="preserve">
<style type="text/css">
	.st0{fill-rule:evenodd;clip-rule:evenodd;}
</style>
<path class="st0" d="M180.5,14.8c-91.1,0-165,73.9-165,165s73.9,165,165,165s165-73.9,165-165S271.6,14.8,180.5,14.8z M180.5,329.8
	c-82.8,0-150-67.2-150-150s67.2-150,150-150s150,67.2,150,150S263.3,329.8,180.5,329.8z"/>
<g>
	<path d="M92.8,154.7h28.3c-5-7.9-9.7-14.7-14.1-20.4l9.5-6.7c3.9,4.7,8.8,11.3,14.9,19.9l-9.9,7.2h23.2
		c6.4-9.2,12.3-18.3,17.7-27.2l12.5,7c-5.7,7.3-11.1,14.1-16.3,20.2h26.6V166H92.8V154.7z M111.3,206.7l12,5.6
		c-6.3,13.2-12.6,25.2-18.8,35.9c-3.4-2.1-7.3-4.2-11.6-6.3C98.6,233,104.7,221.3,111.3,206.7z M97.8,187.6h35.9v-16.7h12.7v16.7
		h34.5v11.2h-34.5v45.9c0,12.4-6,18.6-17.9,18.6c-5,0-10.7-0.1-17.1-0.2c-0.5-3.9-1.1-8.3-1.9-13.4c6.8,0.7,12.1,1.1,16,1.1
		c5.5,0,8.3-3,8.3-9v-43.1H97.8V187.6z M98.5,113.9h38c-2.5-4.8-5.4-10-8.6-15.6l11.3-5.3c3.6,6,7,12,10.2,18.1l-5.9,2.8h37.4v11.2
		H98.5V113.9z M161.9,207.6c6.6,8.9,12.3,17.1,17.2,24.6l-11.2,7.7c-5.2-9-10.6-17.5-16.3-25.5L161.9,207.6z M191.4,108.7
		c24.3-0.2,46.6-2.6,67.1-7.2l4.6,13.5c-23.2,3-42.9,5-59.2,6v41h64.2v12H243V266h-13v-92.1h-26v8.6c0,36-8.6,64-25.8,84
		c-2.8-3.6-5.9-7.4-9.3-11.2c15.1-16.5,22.7-41,22.7-73.3V108.7z"/>
</g>
</svg>
