<?xml version="1.0" encoding="utf-8"?>
<!-- Generator: Adobe Illustrator 22.0.1, SVG Export Plug-In . SVG Version: 6.00 Build 0)  -->
<svg version="1.0" id="图层_1" xmlns="http://www.w3.org/2000/svg" xmlns:xlink="http://www.w3.org/1999/xlink" x="0px" y="0px"
	 viewBox="0 0 360 360" style="enable-background:new 0 0 360 360;" xml:space="preserve">
<path d="M56.7,274.6L71,216.4l43.4,43.9L56.7,274.6z M126,249.2l-43.4-43.9L212.8,74.1l43.4,43.9L126,249.2z M267.2,106.9L223.9,63
	l32.8-32.8c5.8-5.8,15.9-5.8,21.7,0L300,52.5c5.8,5.8,5.8,15.9,0,21.7L267.2,106.9L267.2,106.9z M330.2,345.1H30.8
	c-8.5,0-15.3-11.3-15.3-19.7c0-8.5,6.9-18.6,15.3-18.6h299.3c8.5,0,15.3,10.1,15.3,18.6C345.5,333.8,338.6,345.1,330.2,345.1z"/>
</svg>
