<?xml version="1.0" encoding="utf-8"?>
<!-- Generator: Adobe Illustrator 22.0.1, SVG Export Plug-In . SVG Version: 6.00 Build 0)  -->
<svg version="1.0" id="图层_1" xmlns="http://www.w3.org/2000/svg" xmlns:xlink="http://www.w3.org/1999/xlink" x="0px" y="0px"
	 viewBox="0 0 360 360" style="enable-background:new 0 0 360 360;" xml:space="preserve">
<path d="M278.7,123.8c-19.6-25.1-49.3-34.1-50.1-45.3c0,0,0-0.1,0-0.1c0.2-19.6,13-23.7,20.2-30.8c3.6-3.6,6.4-7.3,7.5-11.6
	c0.4-1.4,0.6-2.9,0.6-4.5c0-0.1,0-0.2,0-0.3c0-0.1,0-0.2,0-0.3c0-0.1,0-0.1,0-0.2l0,0c0,0,0,0,0-0.1c0-1.2-0.2-2.3-0.7-3.5
	c-0.3-0.6-0.7-1.2-1.1-1.7c-0.3-0.5-0.5-1-0.9-1.4c-0.6-0.7-1.4-1.2-2.1-1.7c-0.3-0.2-0.5-0.5-0.9-0.7c-0.8-0.4-1.7-0.7-2.6-0.9
	c-0.4-0.1-0.7-0.3-1.1-0.4c-0.1,0-0.2,0-0.2-0.1h0c-0.8,0-7.1-1.4-18.6-2.8c-5.8-0.7-12.8-1.4-21.2-1.9c-8.4-0.5-18-0.9-28.9-0.9
	c-8.2,0-15.7,0.2-22.4,0.5c-4.5,0.2-8.7,0.5-12.5,0.8c-21.2,1.7-32.6,4.3-33.7,4.3h0c-0.1,0-0.2,0-0.2,0.1c-0.4,0.1-0.7,0.3-1.1,0.4
	c-0.9,0.3-1.8,0.5-2.6,0.9c-0.3,0.2-0.6,0.5-0.9,0.7c-0.8,0.5-1.5,1-2.1,1.7c-0.4,0.4-0.6,0.9-0.9,1.4c-0.4,0.6-0.8,1.1-1.1,1.7
	c-0.5,1.1-0.7,2.3-0.7,3.5c0,0,0,0,0,0.1l0,0c0,0.1,0,0.1,0,0.2c0,0.1,0,0.2,0,0.3c0,0.1,0,0.2,0,0.3c0,1.6,0.2,3.1,0.6,4.5
	c1.1,4.3,3.9,7.9,7.5,11.6c7.2,7.2,19.9,11.2,20.2,30.8c0,0,0,0.1,0,0.1c-0.8,11.3-33.8,23.1-50,45.3C57.2,153.6,37,189.2,37,237.5
	v0v0v0c0,22.6,5.4,43.4,16.3,59.7c6.2,9.3,25.7,24,25.7,24l0,0c3.1,1.9,6.4,3.7,9.9,5.4c3.1,1.5,6.4,2.9,9.8,4.3
	c0.3,0.1,0.7,0.3,1,0.4c3.4,1.3,7,2.5,10.6,3.7c0.3,0.1,0.6,0.2,1,0.3c3.3,1,6.8,1.9,10.3,2.8c0.7,0.2,1.3,0.4,2,0.5
	c3.6,0.8,7.4,1.6,11.2,2.2c0.6,0.1,1.1,0.2,1.7,0.3c3.5,0.6,7.1,1,10.8,1.5c0.9,0.1,1.8,0.3,2.7,0.4c3.9,0.4,7.8,0.7,11.8,1
	c0.7,0,1.4,0.1,2.1,0.2c3.9,0.2,7.9,0.3,11.9,0.3c0.8,0,4.3,0,5.1,0c4,0,8-0.1,11.9-0.3c0.8,0,10.1-0.7,14-1.1
	c1-0.1,1.9-0.3,2.8-0.4c3.6-0.4,7.2-0.9,10.7-1.5c0.6-0.1,1.1-0.2,1.7-0.3c3.8-0.7,7.6-1.4,11.2-2.2c0.7-0.2,1.3-0.4,2-0.5
	c3.5-0.9,6.9-1.7,10.3-2.8c0.6-0.2,1.1-0.4,1.7-0.6c3.4-1.1,6.7-2.2,9.9-3.4c0.8-0.3,1.5-0.7,2.3-1c2.9-1.2,5.8-2.4,8.5-3.7
	c3.4-1.7,6.7-3.5,9.9-5.4l0,0l0,0l0,0c1.1-0.6,2.1-1.4,3.1-2.1c5.7-3.6,10.9-7.8,15.4-12.7c0.6-0.7,1.2-1.5,1.8-2.3
	c4.7-5.6,8.7-11.7,11.8-18.5c6.6-14.1,9.9-30.6,9.9-48.2v0v0v0C319.9,189.2,299.7,153.6,278.7,123.8z M225.6,226.6
	c6.5,0,11.8,5.3,11.8,11.8s-5.3,11.8-11.8,11.8h-35.4v35.4c0,6.5-5.3,11.8-11.8,11.8c-6.5,0-11.8-5.3-11.8-11.8v-35.4h-35.4
	c-6.5,0-11.8-5.3-11.8-11.8s5.3-11.8,11.8-11.8h35.4V203h-35.4c-6.5,0-11.8-5.3-11.8-11.8s5.3-11.8,11.8-11.8h31.1l-23.3-27.8
	c-4.2-5-3.5-12.4,1.5-16.6c5-4.2,12.4-3.5,16.6,1.5l21.3,25.4l21.3-25.4c4.2-5,11.6-5.6,16.6-1.5c5,4.2,5.6,11.6,1.5,16.6
	l-23.3,27.8h31.1c6.5,0,11.8,5.3,11.8,11.8s-5.3,11.8-11.8,11.8h-35.4v23.6H225.6z"/>
</svg>
