<?xml version="1.0" encoding="utf-8"?>
<!-- Generator: Adobe Illustrator 22.0.1, SVG Export Plug-In . SVG Version: 6.00 Build 0)  -->
<svg version="1.0" id="图层_1" xmlns="http://www.w3.org/2000/svg" xmlns:xlink="http://www.w3.org/1999/xlink" x="0px" y="0px"
	 viewBox="0 0 360 360" style="enable-background:new 0 0 360 360;" xml:space="preserve">
<g>
	<g>
		<path d="M320.7,226.7H103.2l33.9-26.3c9.8-7.6,12-22.3,4.9-32.8c-7.1-10.5-20.8-12.8-30.6-5.3l-88.8,68.8c-0.5,0.4-0.7,1-1.2,1.4
			c-0.8,0.8-1.6,1.5-2.3,2.4c-0.4,0.5-1,0.8-1.4,1.4c-0.2,0.3-0.2,0.7-0.4,1c-0.5,0.7-0.7,1.5-1.1,2.3c-0.5,1-0.9,2.1-1.2,3.2
			c-0.3,1-0.7,1.9-0.9,2.9c-0.2,0.9-0.1,1.7-0.2,2.6c0,0.6-0.3,1.1-0.3,1.8c0,0.6,0.3,1.2,0.3,1.8c0.1,0.9,0,1.7,0.2,2.6
			c0.2,1,0.6,1.9,0.9,2.9c0.4,1.1,0.7,2.2,1.2,3.2c0.4,0.8,0.7,1.6,1.1,2.3c0.2,0.3,0.2,0.7,0.4,1c0.4,0.6,1,0.9,1.4,1.4
			c0.7,0.9,1.5,1.6,2.3,2.4c0.5,0.4,0.7,1,1.2,1.4l88.8,68.8c9.8,7.6,23.5,5.2,30.6-5.3c7.1-10.5,4.9-25.2-4.9-32.8l-33.9-26.3
			h217.5c12.1,0,21.9-10.6,21.9-23.5C342.6,237.3,332.7,226.7,320.7,226.7z M343.2,107c-0.1-0.9,0-1.7-0.2-2.6
			c-0.2-1-0.6-1.9-0.9-2.9c-0.3-1.1-0.7-2.2-1.2-3.2c-0.4-0.8-0.7-1.6-1.1-2.3c-0.2-0.3-0.2-0.7-0.4-1c-0.4-0.6-1-0.9-1.4-1.4
			c-0.7-0.9-1.5-1.7-2.3-2.4c-0.5-0.4-0.7-1-1.2-1.4l-88.8-68.8c-9.8-7.6-23.5-5.2-30.6,5.3c-7.1,10.5-4.9,25.2,4.9,32.8l33.9,26.3
			H36.3c-12.1,0-21.9,10.6-21.9,23.5c0,12.9,9.9,23.5,21.9,23.5h217.5l-33.9,26.3c-9.8,7.6-12,22.3-4.9,32.8
			c7.1,10.5,20.8,12.8,30.6,5.3l88.8-68.8c0.5-0.4,0.7-1,1.2-1.4c0.8-0.8,1.6-1.5,2.3-2.4c0.4-0.5,1-0.8,1.4-1.4
			c0.2-0.3,0.2-0.7,0.4-1c0.5-0.7,0.7-1.5,1.1-2.3c0.5-1,0.9-2.1,1.2-3.2c0.3-1,0.7-1.9,0.9-2.9c0.2-0.9,0.1-1.7,0.2-2.6
			c0-0.6,0.3-1.1,0.3-1.8C343.5,108.1,343.2,107.6,343.2,107z"/>
	</g>
</g>
</svg>
