<?xml version="1.0" encoding="utf-8"?>
<!-- Generator: Adobe Illustrator 22.0.1, SVG Export Plug-In . SVG Version: 6.00 Build 0)  -->
<svg version="1.0" id="图层_1" xmlns="http://www.w3.org/2000/svg" xmlns:xlink="http://www.w3.org/1999/xlink" x="0px" y="0px"
	 viewBox="0 0 360 360" style="enable-background:new 0 0 360 360;" xml:space="preserve">
<path d="M321.5,35.8h-282c-13.2,0-24,9.3-24,20.6v248.1c0,11.3,10.8,20.6,24,20.6h282c13.2,0,24-9.3,24-20.6V56.4
	C345.5,45.1,334.7,35.8,321.5,35.8z M119.3,253c0,5.7-5.4,10.3-12,10.3H89.4c-6.6,0-12-4.6-12-10.3V149.9c0-5.7,5.4-10.3,12-10.3
	h17.8c6.6,0,12,4.6,12,10.3V253z M180.6,253c0,5.7-5.4,10.3-12,10.3h-17.8c-6.6,0-12-4.6-12-10.3V129.2c0-5.7,5.4-10.3,12-10.3h17.8
	c6.6,0,12,4.6,12,10.3V253z M242.6,253c0,5.7-5.4,10.3-12,10.3h-19.7c-6.6,0-12-4.6-12-10.3v-61.9c0-5.7,5.4-10.3,12-10.3h19.7
	c6.6,0,12,4.6,12,10.3V253z M303.9,253c0,5.7-5.4,10.3-12,10.3h-17.2c-6.6,0-12-4.6-12-10.3v-20.6c0-5.7,5.4-10.3,12-10.3h17.2
	c6.6,0,12,4.6,12,10.3V253z"/>
</svg>
