<?xml version="1.0" encoding="utf-8"?>
<!-- Generator: Adobe Illustrator 22.0.1, SVG Export Plug-In . SVG Version: 6.00 Build 0)  -->
<svg version="1.0" id="图层_1" xmlns="http://www.w3.org/2000/svg" xmlns:xlink="http://www.w3.org/1999/xlink" x="0px" y="0px"
	 viewBox="0 0 360 360" style="enable-background:new 0 0 360 360;" xml:space="preserve">
<path d="M180.2,15.2c-90.9,0-165,73.9-165,165.1s74.1,164.9,165,164.9c90.9,0,165-73.9,165-165.1S271.1,15.2,180.2,15.2z
	 M272.5,148.6L165.3,258.5c-2.5,2.7-6,4.1-9.7,4.1c-3.7,0-7.2-1.4-9.7-4.1l-57.6-57.7c-5.4-5.4-5.4-14.1,0-19.4
	c5.4-5.4,14.1-5.4,19.3,0l47.8,47.8l97.5-100.1c5.2-5.4,14.1-5.6,19.3-0.2C277.7,134.5,277.9,143.2,272.5,148.6z"/>
</svg>
