<?xml version="1.0" encoding="utf-8"?>
<!-- Generator: Adobe Illustrator 22.0.1, SVG Export Plug-In . SVG Version: 6.00 Build 0)  -->
<svg version="1.0" id="图层_1" xmlns="http://www.w3.org/2000/svg" xmlns:xlink="http://www.w3.org/1999/xlink" x="0px" y="0px"
	 viewBox="0 0 360 360" style="enable-background:new 0 0 360 360;" xml:space="preserve">
<path d="M205.4,17.4C114.8,3.8,31,65,17.4,155.6C3.8,246.2,65,330,155.6,343.6l0,0c90.6,13.6,174.4-47.6,188-138.2
	C357.2,114.8,296,31,205.4,17.4z M227.6,228.3L227.6,228.3l-1.7,1.5c-3.7,3.2-9.3,2.8-12.5-0.9l-39.1-45c-1.4-1.6-2.2-3.7-2.2-5.8
	c0-0.1,0-0.2,0-0.3V88.3c0-4.9,3.9-8.8,8.8-8.8h2.2c4.9,0,8.8,4,8.8,8.8V174l36.4,41.9C231.7,219.6,231.3,225.1,227.6,228.3z"/>
</svg>
