<?xml version="1.0" encoding="utf-8"?>
<!-- Generator: Adobe Illustrator 22.0.1, SVG Export Plug-In . SVG Version: 6.00 Build 0)  -->
<svg version="1.0" id="图层_1" xmlns="http://www.w3.org/2000/svg" xmlns:xlink="http://www.w3.org/1999/xlink" x="0px" y="0px"
	 viewBox="0 0 360 360" style="enable-background:new 0 0 360 360;" xml:space="preserve">
<path d="M298.4,39.1h-23.6V27.3c0-6.5-5.3-11.8-11.8-11.8h-23.6c-6.5,0-11.8,5.3-11.8,11.8v11.8h-94.3V27.3
	c0-6.5-5.3-11.8-11.8-11.8H98c-6.5,0-11.8,5.3-11.8,11.8v11.8H62.6c-25.9,0-47.1,21.2-47.1,47.1v212.1c0,25.9,21.2,47.1,47.1,47.1
	h235.7c25.9,0,47.1-21.2,47.1-47.1V86.2C345.5,60.3,324.3,39.1,298.4,39.1z M251.1,137c-0.2,1.3-0.8,2.8-1.3,4.1l-48.4,141.7
	c-4.4,12.2-18,18.5-30.2,14.1c-12.2-4.4-18.5-18-14.1-30.2L194,156.6h-60.6c-13,0-23.6-10.6-23.6-23.6c0-13,10.6-23.6,23.6-23.6
	h94.3c1.4,0,2.8,0,4.1,0.2c1.4,0.2,2.6,0.7,3.9,1.2c0.2,0.1,0.3,0.2,0.5,0.3l0,0c1,0.4,1.8,1.1,2.8,1.6c1.5,0.8,2.9,1.7,4.1,2.8
	c0.8,0.7,1.5,1.5,2.3,2.4c1.2,1.3,2.1,2.8,2.9,4.4c0.4,0.8,0.9,1.6,1.2,2.5c1,2.6,1.7,5.3,1.7,8.3
	C251.2,134.5,251.3,135.7,251.1,137z"/>
</svg>
