<?xml version="1.0" encoding="utf-8"?>
<!-- Generator: Adobe Illustrator 22.0.1, SVG Export Plug-In . SVG Version: 6.00 Build 0)  -->
<svg version="1.0" id="图层_1" xmlns="http://www.w3.org/2000/svg" xmlns:xlink="http://www.w3.org/1999/xlink" x="0px" y="0px"
	 viewBox="0 0 360 360" style="enable-background:new 0 0 360 360;" xml:space="preserve">
<path d="M274.8,39h-23.6c0-13-10.6-23.6-23.6-23.6h-94.3c-13,0-23.6,10.6-23.6,23.6H86.2c-25.9,0-47.1,21.2-47.1,47.1v212.1
	c0,25.9,21.2,47.1,47.1,47.1h188.6c25.9,0,47.1-21.2,47.1-47.1V86.2C321.9,60.3,300.7,39,274.8,39z M239.4,274.8H121.6
	c-6.5,0-11.8-5.3-11.8-11.8c0-6.5,5.3-11.8,11.8-11.8h117.9c6.5,0,11.8,5.3,11.8,11.8C251.2,269.5,245.9,274.8,239.4,274.8z
	 M239.4,204H121.6c-6.5,0-11.8-5.3-11.8-11.8c0-6.5,5.3-11.8,11.8-11.8h117.9c6.5,0,11.8,5.3,11.8,11.8
	C251.2,198.7,245.9,204,239.4,204z M239.4,133.3H121.6c-6.5,0-11.8-5.3-11.8-11.8c0-6.5,5.3-11.8,11.8-11.8h117.9
	c6.5,0,11.8,5.3,11.8,11.8C251.2,128,245.9,133.3,239.4,133.3z"/>
</svg>
