<?xml version="1.0" encoding="utf-8"?>
<!-- Generator: Adobe Illustrator 22.0.1, SVG Export Plug-In . SVG Version: 6.00 Build 0)  -->
<svg version="1.0" id="图层_1" xmlns="http://www.w3.org/2000/svg" xmlns:xlink="http://www.w3.org/1999/xlink" x="0px" y="0px"
	 viewBox="0 0 360 360" style="enable-background:new 0 0 360 360;" xml:space="preserve">
<path d="M297.4,15.5H61.6c-25.9,0-47.1,21.2-47.1,47.1v235.7c0,25.9,21.2,47.1,47.1,47.1h235.7c25.9,0,47.1-21.2,47.1-47.1V62.6
	C344.5,36.7,323.3,15.5,297.4,15.5z M297.4,274.8c0,13-10.6,23.6-23.6,23.6h-94.3c-13,0-23.6-10.6-23.6-23.6V204H85.2
	c-13,0-23.6-10.6-23.6-23.6V86.2c0-13,10.6-23.6,23.6-23.6h94.3c13,0,23.6,10.6,23.6,23.6v70.7h70.7c13,0,23.6,10.6,23.6,23.6V274.8
	z"/>
</svg>
