<?xml version="1.0" encoding="utf-8"?>
<!-- Generator: Adobe Illustrator 22.0.1, SVG Export Plug-In . SVG Version: 6.00 Build 0)  -->
<svg version="1.0" id="图层_1" xmlns="http://www.w3.org/2000/svg" xmlns:xlink="http://www.w3.org/1999/xlink" x="0px" y="0px"
	 viewBox="0 0 360 360" style="enable-background:new 0 0 360 360;" xml:space="preserve">
<path d="M344.7,40.9c-3.6-15-19.2-26.4-37.8-26.4h0H54.1h0c-18.6,0-34.2,11.3-37.8,26.4c-0.5,2.1-0.8,4.4-0.8,6.6v288
	c0,5,4.7,9,10.5,9c0,0,0,0,0,0c0.6,0,2.9,0,3.5,0c2.3,0,4.6-0.6,6.5-1.9l43.4-29.2l43.4,29.2c3.8,2.6,9.2,2.6,13,0l44.7-30.1
	l44.7,30.1c3.8,2.6,9.2,2.6,13,0l43.4-29.2l43.4,29.2c1.9,1.3,4.2,1.9,6.5,1.9c0.6,0,2.9,0,3.5,0l0,0c5.8,0,10.5-4,10.5-9v-288
	C345.5,45.2,345.2,43,344.7,40.9z M298.4,167.7c0,6.5-5.3,11.8-11.8,11.8c-6.5,0-11.8-5.3-11.8-11.8v-41.5l-65.5,65.5
	c-4.6,4.6-12.1,4.6-16.7,0l-41.7-41.7l-75,75c-4.6,4.6-12.1,4.6-16.7,0c-4.6-4.6-4.6-12.1,0-16.7l83.3-83.3c4.6-4.6,12.1-4.6,16.7,0
	l41.7,41.7l58-58h-43.1c-6.5,0-11.8-5.3-11.8-11.8c0-6.5,5.3-11.8,11.8-11.8h70.7c6.5,0,11.8,5.3,11.8,11.8V167.7z"/>
</svg>
