<?xml version="1.0" encoding="utf-8"?>
<!-- Generator: Adobe Illustrator 22.0.1, SVG Export Plug-In . SVG Version: 6.00 Build 0)  -->
<svg version="1.0" id="图层_1" xmlns="http://www.w3.org/2000/svg" xmlns:xlink="http://www.w3.org/1999/xlink" x="0px" y="0px"
	 viewBox="0 0 360 360" style="enable-background:new 0 0 360 360;" xml:space="preserve">
<g>
	<g>
		<path d="M298.4,251.2V62.6c0-25.9-21.2-47.1-47.1-47.1H62.6c-25.9,0-47.1,21.2-47.1,47.1v188.6c0,25.9,21.2,47.1,47.1,47.1h188.6
			C277.1,298.4,298.4,277.1,298.4,251.2z M227.6,180.5h-47.1v47.1c0,13-10.6,23.6-23.6,23.6s-23.6-10.6-23.6-23.6v-47.1H86.2
			c-13,0-23.6-10.6-23.6-23.6c0-13,10.6-23.6,23.6-23.6h47.1V86.2c0-13,10.6-23.6,23.6-23.6s23.6,10.6,23.6,23.6v47.1h47.1
			c13,0,23.6,10.6,23.6,23.6C251.2,169.9,240.6,180.5,227.6,180.5z M333.7,98c-6.5,0-11.8,5.3-11.8,11.8v179.1c0,18.1-14.9,33-33,33
			H109.8c-6.5,0-11.8,5.3-11.8,11.8c0,6.5,5.3,11.8,11.8,11.8h188.6c25.9,0,47.1-21.2,47.1-47.1V109.8
			C345.5,103.3,340.2,98,333.7,98z"/>
	</g>
</g>
</svg>
