<?xml version="1.0" encoding="utf-8"?>
<!-- Generator: Adobe Illustrator 22.0.1, SVG Export Plug-In . SVG Version: 6.00 Build 0)  -->
<svg version="1.0" id="图层_1" xmlns="http://www.w3.org/2000/svg" xmlns:xlink="http://www.w3.org/1999/xlink" x="0px" y="0px"
	 viewBox="0 0 360 360" style="enable-background:new 0 0 360 360;" xml:space="preserve">
<g>
	<g>
		<path d="M230.9,100.2c62.2,0,112.6-15,112.6-33.6c0-18.6-50.4-33.6-112.6-33.6s-112.6,15-112.6,33.6
			C118.3,85.2,168.7,100.2,230.9,100.2z M230.9,173.1c62.2,0,112.6-15.1,112.6-33.6c0-0.4,0-0.8-0.1-1.2V80.2
			c-2.6,17.9-51.9,32.1-112.5,32.1c-60.5,0-109.9-14.3-112.4-32.1h-0.1v59.9h0C119.3,158.4,169.3,173.1,230.9,173.1z M230.9,249.1
			c62.2,0,112.6-15.1,112.6-33.6c0-0.4,0-0.8-0.1-1.2v-58.1c-2.6,17.9-51.9,32.1-112.5,32.1c-60.5,0-109.9-14.3-112.4-32.1h-0.1V216
			h0C119.3,234.3,169.3,249.1,230.9,249.1z M59.8,222.8c-25.6,0-46.3,6.1-46.3,13.7s20.7,13.7,46.3,13.7c25.6,0,46.3-6.1,46.3-13.7
			S85.4,222.8,59.8,222.8z M106,246L106,246C106,246,106.1,246,106,246L106,246z M59.8,259.1c-24.9,0-45.2-5.8-46.2-13.1h0v24.4
			c0.4,7.4,21,13.5,46.3,13.5c25.6,0,46.3-6.1,46.3-13.7c0-0.2,0-0.4,0-0.5v-23.6C104.8,253.3,84.6,259.1,59.8,259.1z M106,280.9
			L106,280.9C106,281,106.1,280.9,106,280.9L106,280.9z M59.8,294c-24.9,0-45.2-5.8-46.2-13.1h0v24.4c0.4,7.4,21,13.5,46.3,13.5
			c25.6,0,46.3-6.1,46.3-13.7c0-0.2,0-0.4,0-0.5V281C104.8,288.2,84.6,294,59.8,294z M343.4,234.4c-2.6,17.9-51.9,32.1-112.5,32.1
			c-60.5,0-109.9-14.3-112.4-32.1h-0.1v59.9h0c1,18.3,51,33.1,112.5,33.1c62.2,0,112.6-15.1,112.6-33.6c0-0.4,0-0.8-0.1-1.2V234.4z"
			/>
	</g>
</g>
</svg>
