<?xml version="1.0" encoding="utf-8"?>
<!-- Generator: Adobe Illustrator 22.0.1, SVG Export Plug-In . SVG Version: 6.00 Build 0)  -->
<svg version="1.0" id="图层_1" xmlns="http://www.w3.org/2000/svg" xmlns:xlink="http://www.w3.org/1999/xlink" x="0px" y="0px"
	 viewBox="0 0 360 360" style="enable-background:new 0 0 360 360;" xml:space="preserve">
<path d="M298.4,34H62.6c-25.9,0-47.1,21.2-47.1,47.1v141.4c0,25.9,21.2,47.1,47.1,47.1h70.7v23.6H98c-6.5,0-11.8,5.3-11.8,11.8
	s5.3,11.8,11.8,11.8h35.4h94.3H263c6.5,0,11.8-5.3,11.8-11.8s-5.3-11.8-11.8-11.8h-35.4v-23.6h70.7c25.9,0,47.1-21.2,47.1-47.1V81.2
	C345.5,55.3,324.3,34,298.4,34z M156.9,85.6c0-2.4,2-4.4,4.4-4.4h14.7c2.4,0,4.4,2,4.4,4.4v132.6c0,2.4-2,4.4-4.4,4.4h-14.7
	c-2.4,0-4.4-2-4.4-4.4V85.6z M86.2,218.2c0,2.4-2,4.4-4.4,4.4H67.1c-2.4,0-4.4-2-4.4-4.4v-38.3c0-2.4,2-4.4,4.4-4.4h14.7
	c2.4,0,4.4,2,4.4,4.4V218.2z M114.2,222.6c-2.4,0-4.4-2-4.4-4.4v-61.9c0-2.4,2-4.4,4.4-4.4h14.7c2.4,0,4.4,2,4.4,4.4v61.9
	c0,2.4-2,4.4-4.4,4.4H114.2z M227.6,218.2c0,2.4-2,4.4-4.4,4.4h-14.7c-2.4,0-4.4-2-4.4-4.4v-75.1c0-2.4,2-4.4,4.4-4.4h14.7
	c2.4,0,4.4,2,4.4,4.4V218.2z M274.8,218.2c0,2.4-2,4.4-4.4,4.4h-14.7c-2.4,0-4.4-2-4.4-4.4v-109c0-2.4,2-4.4,4.4-4.4h14.7
	c2.4,0,4.4,2,4.4,4.4V218.2z"/>
</svg>
