<?xml version="1.0" encoding="utf-8"?>
<!-- Generator: Adobe Illustrator 22.0.1, SVG Export Plug-In . SVG Version: 6.00 Build 0)  -->
<svg version="1.0" id="图层_1" xmlns="http://www.w3.org/2000/svg" xmlns:xlink="http://www.w3.org/1999/xlink" x="0px" y="0px"
	 viewBox="0 0 360 360" style="enable-background:new 0 0 360 360;" xml:space="preserve">
<g>
	<g>
		<path d="M146.1,242.1h27.4v-8.3h-27.4V242.1z M146.1,258.7h27.4v-8.8h-27.4V258.7z M186.7,258.7h27.9v-8.8h-27.9V258.7z
			 M286.1,133.2h-8.6c-1-7.5-4.6-31.3-14.8-55.3c-21.8-51.6-55.3-62.5-79.5-62.5c-34.4,0-62.9,21.5-82.6,62.3
			c-11.6,24-16.7,47.8-18.2,55.4h-8.6c-13,0-23.6,10.6-23.6,23.6v165.1c0,13,10.6,23.6,23.6,23.6h212.3c13,0,23.6-10.6,23.6-23.6
			V156.8C309.7,143.8,299.1,133.2,286.1,133.2z M85.7,180.4c-6.5,0-11.8-5.3-11.8-11.8c0-6.5,5.3-11.8,11.8-11.8
			c6.5,0,11.8,5.3,11.8,11.8C97.4,175.1,92.2,180.4,85.7,180.4z M239,217.6h-52.4v7.8h40.6V267h-40.6v7.3h44v8.3h-44v6.9H239v8.8
			H121.1v-8.8h52.4v-6.9h-43.5v-8.3h43.5V267h-40.1v-41.6h40.1v-7.8h-51.9v-9.3h51.9v-7.8c-19.3,0.7-33.3,1-42.1,1l-1.5-9.3
			c36.2-0.7,68.8-1.6,97.9-2.9l2,9.3c-9.5,0.3-23.8,0.8-43.1,1.5v8.3H239V217.6z M112.4,133.2c5-22.2,24-89,70.9-89
			c47.5,0,61.6,69.2,64.7,89H112.4z M274.3,180.4c-6.5,0-11.8-5.3-11.8-11.8c0-6.5,5.3-11.8,11.8-11.8c6.5,0,11.8,5.3,11.8,11.8
			C286.1,175.1,280.9,180.4,274.3,180.4z M186.7,242.1h27.9v-8.3h-27.9V242.1z"/>
	</g>
</g>
</svg>
