<?xml version="1.0" encoding="utf-8"?>
<!-- Generator: Adobe Illustrator 22.0.1, SVG Export Plug-In . SVG Version: 6.00 Build 0)  -->
<svg version="1.0" id="图层_1" xmlns="http://www.w3.org/2000/svg" xmlns:xlink="http://www.w3.org/1999/xlink" x="0px" y="0px"
	 viewBox="0 0 360 360" style="enable-background:new 0 0 360 360;" xml:space="preserve">
<path d="M282.6,211.6c-3.3,0-6.4,0.5-9.6,0.9l-51.3-78.9c12-11.2,19.6-26.9,19.6-44.6c0-33.9-27.7-61.3-61.9-61.3
	c-34.2,0-61.9,27.4-61.9,61.3c0,17.2,7.2,32.7,18.8,43.9l-51.7,79.5c-2.7-0.4-5.4-0.8-8.3-0.8c-34.2,0-61.9,27.4-61.9,61.3
	s27.7,61.3,61.9,61.3c34.2,0,61.9-27.4,61.9-61.3h82.5c0,33.9,27.7,61.3,61.9,61.3c34.2,0,61.9-27.4,61.9-61.3
	S316.8,211.6,282.6,211.6z M134.4,252.5c-5.2-14.6-15.8-26.5-29.5-33.6l48.4-74.4c8,3.7,16.7,5.9,26.1,5.9c9,0,17.4-2,25.1-5.4
	l48.4,74.4c-13.2,7.2-23.3,18.8-28.4,33.1H134.4z"/>
</svg>
