<?xml version="1.0" encoding="utf-8"?>
<!-- Generator: Adobe Illustrator 22.0.1, SVG Export Plug-In . SVG Version: 6.00 Build 0)  -->
<svg version="1.0" id="图层_1" xmlns="http://www.w3.org/2000/svg" xmlns:xlink="http://www.w3.org/1999/xlink" x="0px" y="0px"
	 viewBox="0 0 360 360" style="enable-background:new 0 0 360 360;" xml:space="preserve">
<path d="M320.3,83.8l-123.6-65c-8.1-4.3-21.4-4.4-29.5-0.1L43.4,83.8c-8.1,4.3-14.6,14.6-14.6,23.1l0.1,147.4
	c0,8.5,7.1,18.4,15.2,22.7l123.6,65c8.2,4.3,21.1,5,29.2,0.7L320.4,278c8.1-4.3,14.7-14.7,14.7-23.2l0-147.7
	C335.2,98.6,328.5,88.1,320.3,83.8z M236.9,204.4c6.1,0,8.4,6.7,8.4,12.6c0,4.9-1.4,10.8-8.4,10.8h-43.4V264c0,6.4-1.2,8.7-1.7,9.4
	c-0.6,0.8-5.7,1.7-10,1.7c-5.5,0-9.9-1.3-10.3-1.8c-0.5-0.7-1.8-2.9-1.8-9.3v-36.2H127c-6.1,0-8.4-5.2-8.4-11.2
	c0-4.5,1.1-10.3,1.5-10.7c1.2-1,3.4-1.6,6.2-1.6h43.4v-23.5H127c-6.1,0-8.4-2.2-8.4-8.2c0-4.4,1.1-13.2,1.5-13.6
	c1.2-1,3.4-1.6,6.2-1.6h30.3l-30.8-59.6l5.1-0.2c-1.5-2.7-7.5-5.2-7.5-7.6c0-1.2,5.4-2.5,7.4-3.9l0.2-0.1c2-1.5,4.4-2.3,7.2-2.3
	c2,0,4.1,1.8,6.2,5.3l33.3,62.9l4.2,6.9l3.9-6.9l33.3-62.8c2.2-3.5,4.4-5.6,6-5.6c2.5,0,4.9,0.8,7.4,2.4l0.1,0
	c2,1.2,9.7,2.4,9.7,3.6c0,1.4-0.5,3.9-2.9,8l0.6,5.3l-31.5,54.5h28.5c6.1,0,8.4,9.6,8.4,15.6c0,4.9-1.4,7.9-8.4,7.9h-43.4v23.5
	H236.9z"/>
</svg>
