<?xml version="1.0" encoding="utf-8"?>
<!-- Generator: Adobe Illustrator 22.0.1, SVG Export Plug-In . SVG Version: 6.00 Build 0)  -->
<svg version="1.0" id="图层_1" xmlns="http://www.w3.org/2000/svg" xmlns:xlink="http://www.w3.org/1999/xlink" x="0px" y="0px"
	 viewBox="0 0 360 360" style="enable-background:new 0 0 360 360;" xml:space="preserve">
<path d="M333,116c-15-36.1-42.5-66.3-77-84c-14.7-7.7-30.7-13.2-47.3-16.3c-0.8-0.2-2-0.2-3.1-0.2c-6.8,0-12.5,5.8-12.5,12.7v64.3
	l0,0c0,5.6,3.6,10.6,9.1,12.3c6.2,1.8,12.1,4.4,17.5,7.7c14.4,8.5,25.7,21.6,32,37.2c3.9,9.1,5.8,19,5.8,29.6c0,6.8-1,13.2-2.4,19.4
	c-1.6,6.2-3.8,12.3-6.9,17.7c-2.8,5-2.1,11.1,2,15.3l44.8,45.3c0.6,0.4,1.2,1.2,1.9,1.6c5.7,4.3,13.6,2.7,17.5-2.9
	c10-14.1,17.6-29.3,23-45.7c5-16.1,7.7-33.2,7.7-50.7C345.4,157,341,135.6,333,116L333,116z M232.5,249.9L232.5,249.9
	c-3.9-3.9-10-5.1-15-2.2c-20.2,11.2-45.3,12.3-66.7,3.5c-18.8-7.7-34.1-22.9-41.8-42c-3.7-9.1-5.9-19.2-5.9-29.9
	c0-10.6,2.2-20.6,5.9-29.6c6.3-15.6,17.6-28.7,32.1-37.2c5.2-3.1,10.6-5.6,16.4-7.4c5.8-1.1,10.2-6.2,10.2-12.5V28.2
	c0-0.6,0-1.4-0.2-2c-1.2-6.9-7.7-11.6-14.6-10.5c-17,2.9-33.1,8.5-47.9,16.3c-34.7,17.7-62.2,47.9-77.2,84
	c-7.9,19.6-12.3,41-12.3,63.3c0,67.4,40.9,128,102.1,153.6c19.4,8.1,40.7,12.6,63,12.6c34.1,0,67.5-10.6,95.4-30.6l0.1-0.4
	c0.4-0.3,1.2-0.7,1.7-1.2c4.8-5,4.9-13.1,0-18L232.5,249.9L232.5,249.9z"/>
</svg>
