<?xml version="1.0" encoding="utf-8"?>
<!-- Generator: Adobe Illustrator 22.0.1, SVG Export Plug-In . SVG Version: 6.00 Build 0)  -->
<svg version="1.0" id="图层_1" xmlns="http://www.w3.org/2000/svg" xmlns:xlink="http://www.w3.org/1999/xlink" x="0px" y="0px"
	 viewBox="0 0 360 360" style="enable-background:new 0 0 360 360;" xml:space="preserve">
<g>
	<g>
		<path d="M121,122l58.5,206.6L241.8,122H121z M180.2,329.8c-0.1,0.2-0.2,0.3-0.3,0.3l0,0.1c0,0.6-0.8,0.7-1,0.2l-72-208.3H15.5
			l164.4,211.2L345.5,122H256L180.2,329.8z M179.2,329.6c0,0.4,0.4,0.6,0.7,0.5l-0.4-1.4L179.2,329.6z M345.5,107.5l-54.8-80.7
			h-92.4l58.5,80.7H345.5z M161.1,26.8H70.3l-54.8,80.7h88.4L161.1,26.8z M239.6,107.5L181,26.8h-2.9L121,107.5H239.6z"/>
	</g>
</g>
</svg>
