<?xml version="1.0" encoding="utf-8"?>
<!-- Generator: Adobe Illustrator 22.0.1, SVG Export Plug-In . SVG Version: 6.00 Build 0)  -->
<svg version="1.0" id="图层_1" xmlns="http://www.w3.org/2000/svg" xmlns:xlink="http://www.w3.org/1999/xlink" x="0px" y="0px"
	 viewBox="0 0 360 360" style="enable-background:new 0 0 360 360;" xml:space="preserve">
<path d="M180.5,14.5c-91.1,0-165,73.9-165,165c0,91.1,73.9,165,165,165c91.1,0,165-73.9,165-165C345.5,88.3,271.6,14.5,180.5,14.5z
	 M90.5,140l84.8-58c2.9-2,7.6-2,10.4,0l84.8,58c2.9,2,2.9,5.2,0,7.1l-84.8,58c-2.9,2-7.6,2-10.4,0l-84.8-58
	C87.6,145.2,87.6,141.9,90.5,140z M89.7,174.9l2.4-2.5c2.4-2.5,6.8-3,9.7-1.1l73.5,48.5c2.9,1.9,7.6,1.9,10.5,0l73.4-48.7
	c2.9-1.9,7.2-1.4,9.6,1.1l2.6,2.7c2.4,2.5,2,6.2-0.8,8.1l-84.8,58c-2.9,2-7.6,2-10.4,0l-84.8-58C87.6,181.1,87.3,177.4,89.7,174.9z
	 M270.5,218.9l-84.8,58c-2.9,2-7.6,2-10.4,0l-84.8-58c-2.9-2-3.2-5.6-0.8-8.1l2.4-2.5c2.4-2.5,6.8-3,9.7-1.1l73.5,48.5
	c2.9,1.9,7.6,1.9,10.5,0l73.4-48.7c2.9-1.9,7.2-1.4,9.6,1.1l2.6,2.7C273.8,213.3,273.4,217,270.5,218.9z"/>
</svg>
