<?xml version="1.0" encoding="utf-8"?>
<!-- Generator: Adobe Illustrator 22.0.1, SVG Export Plug-In . SVG Version: 6.00 Build 0)  -->
<svg version="1.0" id="图层_1" xmlns="http://www.w3.org/2000/svg" xmlns:xlink="http://www.w3.org/1999/xlink" x="0px" y="0px"
	 viewBox="0 0 360 360" style="enable-background:new 0 0 360 360;" xml:space="preserve">
<g>
	<g>
		<path d="M227.7,122.8c-1.8-1.7-4.2-2.5-7-2.5c-2,0-3.7,0.4-5.2,1.1c-1.5,0.8-2.6,1.7-3.6,2.8c-1,1.1-2,2.6-3,4.2
			c-1,1.6-2,3.2-2.9,4.7l-24.7,38.2l-27.7-40.5c-2.4-3.7-4.5-6.3-6.3-8c-1.8-1.7-4.2-2.5-7.1-2.5c-2.9,0-5.2,0.9-7,2.5
			c-1.8,1.7-2.7,3.9-2.7,6.7c0,1.6,0.3,3,0.9,4.3c0.6,1.3,2,3.4,4,6.4l25.6,37.5h-10.8c-8.1,0-12.1,2.5-12.1,7.4c0,5,4,7.5,12.1,7.5
			h19.3v23.3h-19.3c-8.1,0-12.1,2.5-12.1,7.5c0,4.9,4,7.4,12.1,7.4h19.3v6.4c0,10.8,3.9,16.2,11.7,16.2c7.7,0,11.6-5.4,11.6-16.2
			v-6.4h19.3c8,0,12-2.5,12-7.4c0-5-4-7.5-12-7.5h-19.4v-23.3h19.4c8,0,12-2.5,12-7.5c0-4.9-4-7.4-12-7.4h-10.9l24.7-38
			c1.6-2.4,2.6-4.3,3.4-5.8c0.7-1.6,1.1-3.3,1.1-5.1C230.4,126.4,229.6,124.4,227.7,122.8z M298.4,51.4H62.6
			c-25.9,0-47.1,21.2-47.1,47.1v165c0,25.9,21.2,47.1,47.1,47.1h235.7c25.9,0,47.1-21.2,47.1-47.1v-165
			C345.5,72.6,324.3,51.4,298.4,51.4z M180.5,287.1c-52.1,0-94.3-47.5-94.3-106.1s42.2-106.1,94.3-106.1s94.3,47.5,94.3,106.1
			C274.8,239.6,232.6,287.1,180.5,287.1z"/>
	</g>
</g>
</svg>
