<?xml version="1.0" encoding="utf-8"?>
<!-- Generator: Adobe Illustrator 22.0.1, SVG Export Plug-In . SVG Version: 6.00 Build 0)  -->
<svg version="1.0" id="图层_1" xmlns="http://www.w3.org/2000/svg" xmlns:xlink="http://www.w3.org/1999/xlink" x="0px" y="0px"
	 viewBox="0 0 360 360" style="enable-background:new 0 0 360 360;" xml:space="preserve">
<g>
	<g>
		<path d="M296.2,37.6h-22c0,0,0,9,0,14.1v29.2c0,15.5-11.4,28.1-25.6,28.2H111.7C97.5,109,86,96.4,86.1,80.9V51.7
			c0-5.2-0.1-9.4-0.1-14.1H64.7c-14.1,0-25.6,12.5-25.6,27.9v252.2c0,15.4,11.5,27.9,25.6,27.9h231.7c14.1,0,25.6-12.5,25.6-27.9
			V65.4C321.9,50.1,310.4,37.6,296.2,37.6z M249.7,174L171.1,260c-2.7,3-6.6,4.7-10.6,4.7h-0.1c-4,0-7.9-1.8-10.6-4.8l-38.4-43
			c-5.3-5.9-4.8-15,1.1-20.2c5.9-5.3,15-4.8,20.2,1.1l27.8,31.2l67.9-74.3c5.4-5.5,14.2-5.8,19.9-0.6
			C254.2,159.3,254.8,168.1,249.7,174z M125.8,87.5h107.9c9.3,0,16.9-8.4,16.9-18.8V34.2c0-3.5-0.9-6.6-2.4-9.4
			c-3-5.7-8.5-9.3-14.5-9.3H125.8c-6.2,0-11.6,3.8-14.5,9.3c-1.5,2.9-2.4,6.1-2.4,9.4v34.5C108.9,79.1,116.5,87.5,125.8,87.5z"/>
	</g>
</g>
</svg>
