<?xml version="1.0" encoding="utf-8"?>
<!-- Generator: Adobe Illustrator 22.0.1, SVG Export Plug-In . SVG Version: 6.00 Build 0)  -->
<svg version="1.0" id="图层_1" xmlns="http://www.w3.org/2000/svg" xmlns:xlink="http://www.w3.org/1999/xlink" x="0px" y="0px"
	 viewBox="0 0 360 360" style="enable-background:new 0 0 360 360;" xml:space="preserve">
<g>
	<g>
		<path d="M284.1,14.5h-165v70.7c0,13-10.6,23.6-23.6,23.6H24.8v188.6c0,25.9,21.2,47.1,47.1,47.1h212.1c25.9,0,47.1-21.2,47.1-47.1
			V61.6C331.2,35.7,310,14.5,284.1,14.5z M225.1,179.5c6.5,0,11.8,5.3,11.8,11.8s-5.3,11.8-11.8,11.8h-35.4v23.6h35.4
			c6.5,0,11.8,5.3,11.8,11.8c0,6.5-5.3,11.8-11.8,11.8h-35.4v35.4c0,6.5-5.3,11.8-11.8,11.8c-6.5,0-11.8-5.3-11.8-11.8v-35.4h-35.4
			c-6.5,0-11.8-5.3-11.8-11.8c0-6.5,5.3-11.8,11.8-11.8h35.4V203h-35.4c-6.5,0-11.8-5.3-11.8-11.8s5.3-11.8,11.8-11.8h30.5
			l-41.7-41.7c-4.6-4.6-4.6-12.1,0-16.7c4.6-4.6,12.1-4.6,16.7,0l41.7,41.7l41.7-41.7c4.6-4.6,12.1-4.6,16.7,0
			c4.6,4.6,4.6,12.1,0,16.7l-41.7,41.7H225.1z M95.5,61.6V14.5L24.8,85.2h47.1C84.9,85.2,95.5,74.6,95.5,61.6z"/>
	</g>
</g>
</svg>
