<?xml version="1.0" encoding="utf-8"?>
<!-- Generator: Adobe Illustrator 22.0.1, SVG Export Plug-In . SVG Version: 6.00 Build 0)  -->
<svg version="1.0" id="图层_1" xmlns="http://www.w3.org/2000/svg" xmlns:xlink="http://www.w3.org/1999/xlink" x="0px" y="0px"
	 viewBox="0 0 360 360" style="enable-background:new 0 0 360 360;" xml:space="preserve">
<path d="M168.5,70.6L144,22.4c-1-3.9-4.5-6.9-8.7-6.9H56c-5.1,0-9.2,4.1-9.2,9.1c0,2,0.8,3.7,1.8,5.2l36.5,73.6
	C116.1,73.7,168.5,70.6,168.5,70.6z M177.1,89.3c-70.8,0-128.2,57.3-128.2,128.1s57.4,128.1,128.2,128.1
	c70.8,0,128.2-57.3,128.2-128.1S248,89.3,177.1,89.3z M243,206l-25.3,24.6l6,34.8c2,11.7-4.7,16.8-15.4,11.1l-31.2-16.4l-31.2,16.4
	c-10.5,5.5-17.4,0.7-15.4-11.1l6-34.8L111.2,206c-8.5-8.3-6.1-16.3,5.9-18.1l34.9-5.1l15.6-31.6c5.2-10.6,13.6-10.8,19,0l15.6,31.6
	l34.9,5.1C248.9,189.6,251.7,197.6,243,206z M304.3,29.9c1.1-1.5,1.9-3.2,1.9-5.2c0-5-4.1-9.1-9.2-9.1h-79.3c-4.3,0-7.7,3-8.7,6.9
	l-24.5,48.1c0,0,52.3,3.2,83.2,32.9L304.3,29.9z"/>
</svg>
