<?xml version="1.0" encoding="utf-8"?>
<!-- Generator: Adobe Illustrator 22.0.1, SVG Export Plug-In . SVG Version: 6.00 Build 0)  -->
<svg version="1.0" id="图层_1" xmlns="http://www.w3.org/2000/svg" xmlns:xlink="http://www.w3.org/1999/xlink" x="0px" y="0px"
	 viewBox="0 0 360 360" style="enable-background:new 0 0 360 360;" xml:space="preserve">
<g>
	<g>
		<path d="M317.5,20.4h-275C27.4,20.4,15,32.7,15,47.8v198.8c0,15.1,12.4,27.4,27.5,27.4H143c-2.8,15.8-10.4,35.5-19.8,48.9
			c-5.3,9.3-0.7,13.7,6.9,13.7h99.7c7.6,0,11.4-6.1,6.9-13.7c-11.9-19.1-18-35-19.6-48.9h100.4c15.1,0,27.5-12.3,27.5-27.4V47.8
			C345,32.7,332.6,20.4,317.5,20.4z M223,322.9H137c11.4-16.8,19.6-48,19.6-48h46.8C203.5,275,210.1,304.8,223,322.9z M331.2,239.7
			c0,11.3-9.3,20.6-20.6,20.6H49.4c-11.3,0-20.6-9.3-20.6-20.6V219h302.5V239.7z M331.2,205.3H28.8V54.6c0-11.3,9.3-20.6,20.6-20.6
			h261.2c11.3,0,20.6,9.3,20.6,20.6V205.3z M180,246.4c3.8,0,6.9-3.1,6.9-6.9c0-3.8-3.1-6.9-6.9-6.9c-3.8,0-6.9,3.1-6.9,6.9
			C173.1,243.3,176.2,246.4,180,246.4z"/>
	</g>
</g>
</svg>
