<?xml version="1.0" encoding="utf-8"?>
<!-- Generator: Adobe Illustrator 22.0.1, SVG Export Plug-In . SVG Version: 6.00 Build 0)  -->
<svg version="1.0" id="图层_1" xmlns="http://www.w3.org/2000/svg" xmlns:xlink="http://www.w3.org/1999/xlink" x="0px" y="0px"
	 viewBox="0 0 360 360" style="enable-background:new 0 0 360 360;" xml:space="preserve">
<g>
	<g>
		<path d="M276.8,14.5H84.2c-15.1,0-27.5,12.4-27.5,27.5v275c0,15.1,12.4,27.5,27.5,27.5h192.5c15.1,0,27.5-12.4,27.5-27.5V42
			C304.2,26.9,291.9,14.5,276.8,14.5z M290.5,310.1c0,11.3-9.3,20.6-20.6,20.6H91.1c-11.3,0-20.6-9.3-20.6-20.6v-20.6h220V310.1z
			 M290.5,275.7h-220V69.5h220V275.7z M290.5,55.8h-220v-6.9c0-11.3,9.3-20.6,20.6-20.6h178.8c11.3,0,20.6,9.3,20.6,20.6V55.8z
			 M180.5,323.9c7.6,0,13.8-6.2,13.8-13.8s-6.2-13.8-13.8-13.8c-7.6,0-13.7,6.2-13.7,13.8S172.9,323.9,180.5,323.9z M180.5,35.1
			c-3.8,0-6.9,3.1-6.9,6.9s3.1,6.9,6.9,6.9c3.8,0,6.9-3.1,6.9-6.9S184.3,35.1,180.5,35.1z"/>
	</g>
</g>
</svg>
