<?xml version="1.0" encoding="utf-8"?>
<!-- Generator: Adobe Illustrator 22.0.1, SVG Export Plug-In . SVG Version: 6.00 Build 0)  -->
<svg version="1.0" id="图层_1" xmlns="http://www.w3.org/2000/svg" xmlns:xlink="http://www.w3.org/1999/xlink" x="0px" y="0px"
	 viewBox="0 0 360 360" style="enable-background:new 0 0 360 360;" xml:space="preserve">
<style type="text/css">
	.st0{fill:none;stroke:#000000;stroke-width:16;stroke-miterlimit:10;}
</style>
<g>
	<g>
		<path d="M230.6,69.1l-1.8,17.2c16.3-0.5,32.5,5.9,45.2,18.1c12.2,12.3,18.1,28.1,18.1,44l17.2-1.8c-0.5-20-8.1-39.5-23.1-54.4
			C270.9,76.8,251,69.1,230.6,69.1z M311.5,66.8c-20.8-20.9-47.5-31.8-75-33.1l-2.3,17.7c23.5,0.9,46.6,10.4,64.6,28.1
			c18.1,17.7,27.6,40.8,28.5,64l17.6-2.3C343.6,114,332.3,87.3,311.5,66.8z"/>
	</g>
</g>
<path class="st0" d="M265.6,176.8c-3.4,0-6.9,0.4-10.3,0.9c0.4-2.2,0.4-4.3,0.4-6.5c0-24.6-17.6-44.4-39.1-44.4
	c-12.5,0-23.6,6.9-30.9,17.3c-12.9-18.1-32.7-30.2-54.6-30.2c-37.8,0-68.8,34.1-69.6,76.8c-21.9,6.9-38.7,29.8-38.7,56.9
	c0,31.9,22.8,57.8,51.1,57.8H266c31.4,0,56.7-28.9,56.7-64.3S297,176.8,265.6,176.8L265.6,176.8z"/>
</svg>
