<?xml version="1.0" encoding="utf-8"?>
<!-- Generator: Adobe Illustrator 22.0.1, SVG Export Plug-In . SVG Version: 6.00 Build 0)  -->
<svg version="1.0" id="图层_1" xmlns="http://www.w3.org/2000/svg" xmlns:xlink="http://www.w3.org/1999/xlink" x="0px" y="0px"
	 viewBox="0 0 360 360" style="enable-background:new 0 0 360 360;" xml:space="preserve">
<g>
	<g>
		<path d="M262,288.2h33c9.1,0,16.5-7.4,16.5-16.5V57.2c0-9.1-7.4-16.5-16.5-16.5h-33c-9.1,0-16.5,7.4-16.5,16.5v214.5
			C245.5,280.8,252.9,288.2,262,288.2z M262,65.5c0-4.5,3.7-8.2,8.2-8.2h16.5c4.5,0,8.2,3.7,8.2,8.2v198c0,4.5-3.7,8.2-8.2,8.2
			h-16.5c-4.5,0-8.2-3.7-8.2-8.2V65.5z M163,288.2h33c9.1,0,16.5-7.4,16.5-16.5v-132c0-9.1-7.4-16.5-16.5-16.5h-33
			c-9.1,0-16.5,7.4-16.5,16.5v132C146.5,280.8,153.9,288.2,163,288.2z M163,148c0-4.5,3.7-8.2,8.2-8.2h16.5c4.5,0,8.2,3.7,8.2,8.2
			v115.5c0,4.5-3.7,8.2-8.2,8.2h-16.5c-4.5,0-8.2-3.7-8.2-8.2V148z M64,288.2h33c9.1,0,16.5-7.4,16.5-16.5v-49.5
			c0-9.1-7.4-16.5-16.5-16.5H64c-9.1,0-16.5,7.4-16.5,16.5v49.5C47.5,280.8,54.9,288.2,64,288.2z M64,230.5c0-4.5,3.7-8.2,8.2-8.2
			h16.5c4.5,0,8.2,3.7,8.2,8.2v33c0,4.5-3.7,8.2-8.2,8.2H72.3c-4.5,0-8.2-3.7-8.2-8.2V230.5z M336.2,304.8H22.8
			c-4.5,0-8.2,3.7-8.2,8.2c0,4.5,3.7,8.3,8.2,8.3h313.5c4.5,0,8.2-3.7,8.2-8.3C344.5,308.5,340.8,304.8,336.2,304.8z"/>
	</g>
</g>
</svg>
