<?xml version="1.0" encoding="utf-8"?>
<!-- Generator: Adobe Illustrator 22.0.1, SVG Export Plug-In . SVG Version: 6.00 Build 0)  -->
<svg version="1.0" id="图层_1" xmlns="http://www.w3.org/2000/svg" xmlns:xlink="http://www.w3.org/1999/xlink" x="0px" y="0px"
	 viewBox="0 0 360 360" style="enable-background:new 0 0 360 360;" xml:space="preserve">
<g>
	<g>
		<path d="M246.4,14.5H122.6c-15.1,0-27.5,12.4-27.5,27.5v275c0,15.1,12.4,27.5,27.5,27.5h123.8c15.1,0,27.5-12.4,27.5-27.5V42
			C273.9,26.9,261.5,14.5,246.4,14.5z M260.1,310.1c0,11.3-9.3,20.6-20.6,20.6h-110c-11.3,0-20.6-9.3-20.6-20.6v-20.6h151.3V310.1z
			 M260.1,275.8H108.9V48.9c0-11.3,9.3-20.6,20.6-20.6h110c11.3,0,20.6,9.3,20.6,20.6V275.8z M184.5,323.9c7.6,0,13.7-6.2,13.7-13.8
			c0-7.6-6.2-13.8-13.7-13.8s-13.8,6.2-13.8,13.8C170.7,317.7,176.9,323.9,184.5,323.9z M205.1,39.7h-41.3c-3.8,0-6.9,3.1-6.9,6.9
			s3.1,6.9,6.9,6.9h41.3c3.8,0,6.9-3.1,6.9-6.9S208.9,39.7,205.1,39.7z"/>
	</g>
</g>
</svg>
