<?xml version="1.0" encoding="utf-8"?>
<!-- Generator: Adobe Illustrator 22.0.1, SVG Export Plug-In . SVG Version: 6.00 Build 0)  -->
<svg version="1.0" id="图层_1" xmlns="http://www.w3.org/2000/svg" xmlns:xlink="http://www.w3.org/1999/xlink" x="0px" y="0px"
	 viewBox="0 0 360 360" style="enable-background:new 0 0 360 360;" xml:space="preserve">
<g>
	<g>
		<path d="M308,15.5H76.8c-18.2,0-33,14.9-33,33v33H27.3c-4.5,0-8.3,3.7-8.3,8.3s3.7,8.3,8.3,8.3h16.5v44H27.3
			c-4.5,0-8.3,3.7-8.3,8.3c0,4.5,3.7,8.3,8.3,8.3h16.5v44H27.3c-4.5,0-8.3,3.7-8.3,8.3c0,4.5,3.7,8.3,8.3,8.3h16.5v44H27.3
			c-4.5,0-8.3,3.7-8.3,8.3c0,4.5,3.7,8.3,8.3,8.3h16.5v33c0,18.2,14.9,33,33,33H308c18.2,0,33-14.9,33-33v-264
			C341,30.3,326.1,15.5,308,15.5z M258.4,329H85.1c-13.6,0-24.8-11.1-24.8-24.8v-24.8h16.5c4.5,0,8.3-3.7,8.3-8.3
			c0-4.5-3.7-8.3-8.3-8.3H60.3v-44h16.5c4.5,0,8.3-3.7,8.3-8.3c0-4.5-3.7-8.3-8.3-8.3H60.3v-44h16.5c4.5,0,8.3-3.7,8.3-8.3
			c0-4.5-3.7-8.3-8.3-8.3H60.3V98h16.5c4.5,0,8.3-3.7,8.3-8.3s-3.7-8.3-8.3-8.3H60.3V56.7C60.3,43.1,71.5,32,85.1,32h173.3V329z
			 M324.5,304.2c0,13.6-11.1,24.8-24.8,24.8h-24.8V32h24.8c13.6,0,24.8,11.1,24.8,24.8V304.2z M126.4,205c-4.5,0-8.3,3.7-8.3,8.3
			c0,4.5,3.7,8.3,8.3,8.3h41.3V271c0,4.5,3.7,8.3,8.3,8.3c4.5,0,8.3-3.7,8.3-8.3v-49.5h41.3c4.5,0,8.3-3.7,8.3-8.3
			c0-4.5-3.7-8.3-8.3-8.3h-41.3v-24.8h41.4c4.5,0,8.3-3.7,8.3-8.3c0-4.5-3.7-8.3-8.3-8.3h-38.8l44.8-47.6c3.1-3.4,2.8-8.6-0.6-11.7
			c-3.4-3-8.6-2.8-11.7,0.6l-43.4,46.2L132.5,105c-3.1-3.4-8.3-3.6-11.7-0.6c-3.4,3-3.6,8.3-0.6,11.7l44.8,47.6h-38.5
			c-4.5,0-8.3,3.7-8.3,8.3c0,4.5,3.7,8.3,8.3,8.3h41.2V205H126.4z"/>
	</g>
</g>
</svg>
