<?xml version="1.0" encoding="utf-8"?>
<!-- Generator: Adobe Illustrator 22.0.1, SVG Export Plug-In . SVG Version: 6.00 Build 0)  -->
<svg version="1.0" id="图层_1" xmlns="http://www.w3.org/2000/svg" xmlns:xlink="http://www.w3.org/1999/xlink" x="0px" y="0px"
	 viewBox="0 0 360 360" style="enable-background:new 0 0 360 360;" xml:space="preserve">
<g>
	<g>
		<path d="M180,15.5c-91.1,0-165,73.9-165,165c0,91.1,73.9,165,165,165c91.1,0,165-73.9,165-165C345,89.4,271.1,15.5,180,15.5z
			 M180,323.5c-79,0-143-64-143-143c0-79,64-143,143-143c79,0,143,64,143,143C323,259.5,259,323.5,180,323.5z M270.7,214.5
			l-78.8-41.1v-69.9c0-6-5-11-11-11c-6.1,0-11,5-11,11v77c0,0.6,0.2,1,0.3,1.6c0.1,0.4,0.1,0.8,0.2,1.2c1,3.7,3.8,6.5,7.4,7.6
			l81.8,42.7c5.2,3,12,1.2,15-4C277.7,224.3,275.9,217.6,270.7,214.5z"/>
	</g>
</g>
</svg>
