<?xml version="1.0" encoding="utf-8"?>
<!-- Generator: Adobe Illustrator 22.0.1, SVG Export Plug-In . SVG Version: 6.00 Build 0)  -->
<svg version="1.0" id="图层_1" xmlns="http://www.w3.org/2000/svg" xmlns:xlink="http://www.w3.org/1999/xlink" x="0px" y="0px"
	 viewBox="0 0 360 360" style="enable-background:new 0 0 360 360;" xml:space="preserve">
<g>
	<g>
		<path d="M145.4,224.3c0,3.1,2.5,5.7,5.7,5.7c3.1,0,5.7-2.5,5.7-5.7c0-3.1-2.5-5.7-5.7-5.7C147.9,218.6,145.4,221.1,145.4,224.3z
			 M321.7,103.7h-75.6c-12.5,0-22.8,10.2-22.8,22.8v163.4c0,12.5,10.2,22.8,22.8,22.8h75.6c12.5,0,22.8-10.2,22.8-22.8V126.4
			C344.5,113.9,334.3,103.7,321.7,103.7z M322.5,273.1c0,9.4-7.7,17.1-17.1,17.1h-42.9c-9.4,0-17.1-7.7-17.1-17.1v-4.7h77.1V273.1z
			 M322.5,246.4h-77.1v-104c0-9.4,7.7-17.1,17.1-17.1h42.9c9.4,0,17.1,7.7,17.1,17.1V246.4z M281.2,284.4c3,0,5.5-2.5,5.5-5.5
			c0-3-2.5-5.5-5.5-5.5c-3,0-5.5,2.5-5.5,5.5C275.7,282,278.1,284.4,281.2,284.4z M294.1,136.2H273c-3.1,0-5.7,2.6-5.7,5.7
			c0,3.1,2.6,5.7,5.7,5.7h21.1c3.1,0,5.7-2.6,5.7-5.7C299.8,138.8,297.3,136.2,294.1,136.2z M36.2,87.4c0-9.4,7.7-17,17.1-17h196.8
			c9.4,0,17.1,7.7,17.1,17v6.1h22V71.1c0-12.5-10.2-22.7-22.8-22.7H37.3c-12.5,0-22.8,10.2-22.8,22.7v163.6
			c0,12.5,10.3,22.7,22.8,22.7h82.6c-2.4,13.1-7.2,32.5-14.9,43.6c-4.4,7.7-0.6,11.4,5.7,11.4h79.7c6.3,0,9.5-5.1,5.7-11.4
			c-9.8-15.8-13.5-32.1-14.8-43.6h31V236H53.3c-9.4,0-17.1-7.7-17.1-17v-5.5h176v-22h-176V87.4z M142.1,257.5h16.8
			c0,0,0.6,17.4,9,33.5l-34.8-0.1C140.5,275.8,142.1,257.5,142.1,257.5z"/>
	</g>
</g>
</svg>
