<?xml version="1.0" encoding="utf-8"?>
<!-- Generator: Adobe Illustrator 22.0.1, SVG Export Plug-In . SVG Version: 6.00 Build 0)  -->
<svg version="1.0" id="图层_1" xmlns="http://www.w3.org/2000/svg" xmlns:xlink="http://www.w3.org/1999/xlink" x="0px" y="0px"
	 viewBox="0 0 360 360" style="enable-background:new 0 0 360 360;" xml:space="preserve">
<path d="M180.3,13.4c-91.1,0-165,73.9-165,165c0,91.1,73.9,165,165,165s165-73.9,165-165C345.3,87.2,271.5,13.4,180.3,13.4z
	 M180.3,326.9c-82,0-148.5-66.5-148.5-148.5c0-82,66.5-148.5,148.5-148.5s148.5,66.5,148.5,148.5
	C328.8,260.4,262.4,326.9,180.3,326.9z"/>
<path d="M221,112.4c-13.1,0-25.5,5.5-35.3,14.2c-1.3,1.7-3.3,2.4-5.3,2.3c-2.1,0.1-4-0.7-5.3-2.3c-9.9-8.7-22.2-14.2-35.3-14.2
	c-27.1,0-50.1,23.7-50.1,49c0,40.6,57.5,82.9,78,95.6c4,2.3,8,3.8,12.7,3.9c4.7-0.1,8.7-1.6,12.7-3.9c20.5-12.6,78-53.8,78-95.4
	C271.1,135.3,248.1,112.4,221,112.4z M254.6,161.5c0,35.1-52.5,72.5-68.9,82c-1.4,0.9-3.4,1.3-5.3,1.1c-1.9,0.2-3.9-0.2-5.3-1.1
	c-16.4-9.5-68.9-50.2-68.9-82.2c0-20.8,18.7-33.2,33.6-33.2c9,0,17.2,3.2,23.8,9.5c9,8.7,24.6,8.7,33.7,0c6.6-6.3,14.8-9.5,23.8-9.5
	C235.9,128.2,254.6,141.6,254.6,161.5z"/>
</svg>
