<?xml version="1.0" encoding="utf-8"?>
<!-- Generator: Adobe Illustrator 22.0.1, SVG Export Plug-In . SVG Version: 6.00 Build 0)  -->
<svg version="1.0" id="图层_1" xmlns="http://www.w3.org/2000/svg" xmlns:xlink="http://www.w3.org/1999/xlink" x="0px" y="0px"
	 viewBox="0 0 360 360" style="enable-background:new 0 0 360 360;" xml:space="preserve">
<g>
	<g>
		<path d="M136.6,15.5H49.7C30.6,15.5,15,31.1,15,50.2v86.8c0,19.1,15.6,34.7,34.7,34.7h86.8c19.1,0,34.7-15.6,34.7-34.7V50.2
			C171.3,31.1,155.7,15.5,136.6,15.5z M153.9,128.4c0,14.3-11.7,26.1-26.1,26.1H58.4c-14.3,0-26.1-11.7-26.1-26.1V58.9
			c0-14.3,11.7-26.1,26.1-26.1h69.5c14.3,0,26.1,11.7,26.1,26.1V128.4z M127.9,85h-26.1V58.9c0-4.8-3.9-8.7-8.7-8.7
			s-8.7,3.9-8.7,8.7V85H58.4c-4.8,0-8.7,3.9-8.7,8.7c0,4.8,3.9,8.7,8.7,8.7h26.1v26.1c0,4.8,3.9,8.7,8.7,8.7s8.7-3.9,8.7-8.7v-26.1
			h26.1c4.8,0,8.7-3.9,8.7-8.7C136.6,88.9,132.7,85,127.9,85z M310.3,15.5h-86.8c-19.1,0-34.7,15.6-34.7,34.7v86.8
			c0,19.1,15.6,34.7,34.7,34.7h86.8c19.1,0,34.7-15.6,34.7-34.7V50.2C345,31.1,329.4,15.5,310.3,15.5z M327.6,128.4
			c0,14.3-11.7,26.1-26.1,26.1h-69.5c-14.3,0-26.1-11.7-26.1-26.1V58.9c0-14.3,11.7-26.1,26.1-26.1h69.5c14.3,0,26.1,11.7,26.1,26.1
			V128.4z M301.6,85h-69.5c-4.8,0-8.7,3.9-8.7,8.7c0,4.8,3.9,8.7,8.7,8.7h69.5c4.8,0,8.7-3.9,8.7-8.7C310.3,88.9,306.4,85,301.6,85z
			 M136.6,189.2H49.7c-19.1,0-34.7,15.6-34.7,34.7v86.8c0,19.1,15.6,34.7,34.7,34.7h86.8c19.1,0,34.7-15.6,34.7-34.7v-86.8
			C171.3,204.8,155.7,189.2,136.6,189.2z M153.9,302.1c0,14.3-11.7,26.1-26.1,26.1H58.4c-14.3,0-26.1-11.7-26.1-26.1v-69.5
			c0-14.3,11.7-26.1,26.1-26.1h69.5c14.3,0,26.1,11.7,26.1,26.1V302.1z M123.9,236.6c-3.4-3.4-8.9-3.4-12.3,0l-18.4,18.4l-18.4-18.4
			c-3.4-3.4-8.9-3.4-12.3,0c-3.4,3.4-3.4,8.9,0,12.3l18.4,18.4l-18.4,18.4c-3.4,3.4-3.4,8.9,0,12.3c3.4,3.4,8.9,3.4,12.3,0
			l18.4-18.4l18.4,18.4c3.4,3.4,8.9,3.4,12.3,0c3.4-3.4,3.4-8.9,0-12.3l-18.4-18.4l18.4-18.4C127.2,245.5,127.2,240,123.9,236.6z
			 M310.3,189.2h-86.8c-19.1,0-34.7,15.6-34.7,34.7v86.8c0,19.1,15.6,34.7,34.7,34.7h86.8c19.1,0,34.7-15.6,34.7-34.7v-86.8
			C345,204.8,329.4,189.2,310.3,189.2z M327.6,302.1c0,14.3-11.7,26.1-26.1,26.1h-69.5c-14.3,0-26.1-11.7-26.1-26.1v-69.5
			c0-14.3,11.7-26.1,26.1-26.1h69.5c14.3,0,26.1,11.7,26.1,26.1V302.1z M301.6,241.3h-69.5c-4.8,0-8.7,3.9-8.7,8.7
			c0,4.8,3.9,8.7,8.7,8.7h69.5c4.8,0,8.7-3.9,8.7-8.7C310.3,245.2,306.4,241.3,301.6,241.3z M301.6,276h-69.5
			c-4.8,0-8.7,3.9-8.7,8.7c0,4.8,3.9,8.7,8.7,8.7h69.5c4.8,0,8.7-3.9,8.7-8.7C310.3,279.9,306.4,276,301.6,276z"/>
	</g>
</g>
</svg>
