<?xml version="1.0" encoding="utf-8"?>
<!-- Generator: Adobe Illustrator 22.0.1, SVG Export Plug-In . SVG Version: 6.00 Build 0)  -->
<svg version="1.0" id="图层_1" xmlns="http://www.w3.org/2000/svg" xmlns:xlink="http://www.w3.org/1999/xlink" x="0px" y="0px"
	 viewBox="0 0 360 360" style="enable-background:new 0 0 360 360;" xml:space="preserve">
<style type="text/css">
	.st0{fill-rule:evenodd;clip-rule:evenodd;}
</style>
<g>
	<g>
		<path class="st0" d="M337.8,324.7H22.2c-4,0-7.2,6-7.2,10v1.1c0,4,3.2,9.3,7.2,9.3h315.6c4,0,7.2-4.1,7.2-9.3
			S341.8,324.7,337.8,324.7z M89.8,278.4c0.7,0,1.5-0.1,2.2-0.3l42.4-13.3c1.1-0.3,2.1-1,2.9-1.8L342.9,56.7
			c1.4-1.4,2.1-3.2,2.1-5.1s-0.8-3.8-2.1-5.1l-29.2-29.3c-2.8-2.8-7.4-2.8-10.2,0L98,223.4c-0.8,0.8-1.4,1.9-1.8,3L83,269
			c-0.8,2.6-0.1,5.4,1.8,7.3C86.1,277.6,88,278.4,89.8,278.4z M308.6,32.5l19,19l-19,19l-19-19L308.6,32.5z M109.5,232.4L279.4,61.8
			l19,19L128.4,251.4l-27.6,8.7L109.5,232.4z"/>
	</g>
</g>
</svg>
