<?xml version="1.0" encoding="utf-8"?>
<!-- Generator: Adobe Illustrator 22.0.1, SVG Export Plug-In . SVG Version: 6.00 Build 0)  -->
<svg version="1.0" id="图层_1" xmlns="http://www.w3.org/2000/svg" xmlns:xlink="http://www.w3.org/1999/xlink" x="0px" y="0px"
	 viewBox="0 0 360 360" style="enable-background:new 0 0 360 360;" xml:space="preserve">
<g>
	<g>
		<path d="M186.4,318L186.4,318L69,318c-11.4,0-20.7-9.3-20.7-20.6V49.9c0-11.3,9.3-20.6,20.7-20.6h207.1c11.4,0,20.7,9.3,20.7,20.6
			v130.6c0,3.8,3.1,6.9,6.9,6.9c3.8,0,6.9-3.1,6.9-6.9V43c0-15.1-12.4-27.5-27.6-27.5h-221c-15.2,0-27.6,12.4-27.6,27.5v261.2
			c0,15.1,12.4,27.5,27.6,27.5h124.3v0c3.8,0,6.9-3.1,6.9-6.9C193.3,321,190.2,318,186.4,318z M322.9,334.2l-26.1-30.9
			c13.9-11.3,22.7-28.5,22.7-47.8c0-34.2-27.8-61.9-62.1-61.9s-62.1,27.7-62.1,61.9c0,34.2,27.8,61.9,62.1,61.9
			c10,0,19.5-2.4,27.9-6.6c0.2,0.3,0.2,0.5,0.4,0.8l26.6,31.6c2.4,2.9,6.8,3.3,9.7,0.8C325,341.5,325.3,337.1,322.9,334.2z
			 M257.4,303.6c-26.7,0-48.3-21.5-48.3-48.1c0-26.6,21.6-48.1,48.3-48.1c26.7,0,48.3,21.5,48.3,48.1
			C305.7,282,284.1,303.6,257.4,303.6z M258.6,84H92.9c-3.8,0-6.9,3.1-6.9,6.9c0,3.8,3.1,6.9,6.9,6.9h165.7c3.8,0,6.9-3.1,6.9-6.9
			C265.5,87.1,262.4,84,258.6,84z M258.6,139H92.9c-3.8,0-6.9,3.1-6.9,6.9c0,3.8,3.1,6.9,6.9,6.9h165.7c3.8,0,6.9-3.1,6.9-6.9
			C265.5,142.1,262.4,139,258.6,139z M189.6,194H92.9c-3.8,0-6.9,3.1-6.9,6.9c0,3.8,3.1,6.9,6.9,6.9h96.7c3.8,0,6.9-3.1,6.9-6.9
			C196.5,197.1,193.4,194,189.6,194z"/>
	</g>
</g>
</svg>
