<?xml version="1.0" encoding="utf-8"?>
<!-- Generator: Adobe Illustrator 22.0.1, SVG Export Plug-In . SVG Version: 6.00 Build 0)  -->
<svg version="1.0" id="图层_1" xmlns="http://www.w3.org/2000/svg" xmlns:xlink="http://www.w3.org/1999/xlink" x="0px" y="0px"
	 viewBox="0 0 360 360" style="enable-background:new 0 0 360 360;" xml:space="preserve">
<g>
	<g>
		<path d="M305,83.2h-54.9V42c0-15.1-12.4-27.4-27.5-27.4H58c-15.1,0-27.5,12.3-27.5,27.4v274.4h137.3v-13.7H44.2V48.9
			c0-11.3,9.3-20.6,20.6-20.6h151c11.3,0,20.6,9.3,20.6,20.6v130.4h13.7V96.9h48c11.3,0,20.6,9.3,20.6,20.6v75.5h13.7v-82.3
			C332.5,95.5,320.1,83.2,305,83.2z M112.9,76.3c0-3.8-3.1-6.9-6.9-6.9H92.3c-3.8,0-6.9,3.1-6.9,6.9V90c0,3.8,3.1,6.9,6.9,6.9H106
			c3.8,0,6.9-3.1,6.9-6.9V76.3z M167.8,96.9h13.7c3.8,0,6.9-3.1,6.9-6.9V76.3c0-3.8-3.1-6.9-6.9-6.9h-13.7c-3.8,0-6.9,3.1-6.9,6.9
			V90C160.9,93.8,164,96.9,167.8,96.9z M106,138.1H92.3c-3.8,0-6.9,3.1-6.9,6.9v13.7c0,3.8,3.1,6.9,6.9,6.9H106
			c3.8,0,6.9-3.1,6.9-6.9v-13.7C112.9,141.1,109.8,138.1,106,138.1z M188.4,144.9c0-3.8-3.1-6.9-6.9-6.9h-13.7
			c-3.8,0-6.9,3.1-6.9,6.9v13.7c0,3.8,3.1,6.9,6.9,6.9h13.7c3.8,0,6.9-3.1,6.9-6.9V144.9z M291.3,144.9c3.8,0,6.9-3.1,6.9-6.9v-13.7
			c0-3.8-3.1-6.9-6.9-6.9h-13.7c-3.8,0-6.9,3.1-6.9,6.9v13.7c0,3.8,3.1,6.9,6.9,6.9H291.3z M289.3,302.4
			c13.8-11.3,22.6-28.5,22.6-47.7c0-34.1-27.7-61.7-61.8-61.7s-61.8,27.6-61.8,61.7c0,34.1,27.7,61.7,61.8,61.7
			c10,0,19.4-2.4,27.7-6.6c0.2,0.2,0.2,0.5,0.4,0.8l26.5,31.5c2.4,2.9,6.8,3.3,9.7,0.8c2.9-2.4,3.3-6.8,0.8-9.7L289.3,302.4z
			 M250.1,302.7c-26.5,0-48-21.5-48-48c0-26.5,21.5-48,48-48c26.5,0,48,21.5,48,48C298.2,281.2,276.7,302.7,250.1,302.7z"/>
	</g>
</g>
</svg>
