<?xml version="1.0" encoding="utf-8"?>
<!-- Generator: Adobe Illustrator 22.0.1, SVG Export Plug-In . SVG Version: 6.00 Build 0)  -->
<svg version="1.0" id="图层_1" xmlns="http://www.w3.org/2000/svg" xmlns:xlink="http://www.w3.org/1999/xlink" x="0px" y="0px"
	 viewBox="0 0 360 360" style="enable-background:new 0 0 360 360;" xml:space="preserve">
<path d="M179.7,14.7c-91.1,0-165,73.9-165,165c0,91.1,73.9,165,165,165c91.1,0,165-73.9,165-165C344.7,88.6,270.8,14.7,179.7,14.7z
	 M179.7,328.2c-82,0-148.5-66.5-148.5-148.5c0-82,66.5-148.5,148.5-148.5c82,0,148.5,66.5,148.5,148.5
	C328.2,261.7,261.7,328.2,179.7,328.2z M258.4,129.4L147.6,240.2l-46.7-46.7c-3.2-3.2-8.4-3.2-11.7,0c-3.2,3.2-3.2,8.4,0,11.7
	l52.5,52.5c3.2,3.2,8.4,3.2,11.7,0l116.7-116.7c3.2-3.2,3.2-8.4,0-11.7C266.9,126.2,261.7,126.2,258.4,129.4z"/>
</svg>
