<?xml version="1.0" encoding="utf-8"?>
<!-- Generator: Adobe Illustrator 22.0.1, SVG Export Plug-In . SVG Version: 6.00 Build 0)  -->
<svg version="1.0" id="图层_1" xmlns="http://www.w3.org/2000/svg" xmlns:xlink="http://www.w3.org/1999/xlink" x="0px" y="0px"
	 viewBox="0 0 360 360" style="enable-background:new 0 0 360 360;" xml:space="preserve">
<path d="M322.9,316.9L299.3,44.1c0-15.8-13.9-28.6-30.9-28.6H94.6c-17.1,0-31,12.8-31,28.6L40.1,316.9c0,15.8,13.9,28.6,31,28.6H292
	C309.1,345.5,322.9,332.7,322.9,316.9L322.9,316.9z M227.3,194.5c6.3,0,11.5,5.2,11.5,11.5c0,6.3-5.2,11.5-11.5,11.5h-34.4v45.9
	c0,6.3-5.2,11.5-11.5,11.5c-6.3,0-11.5-5.2-11.5-11.5v-45.9h-34.4c-6.3,0-11.5-5.2-11.5-11.5c0-6.3,5.2-11.5,11.5-11.5h34.4v-22.9
	h-34.2c-6.3,0-11.5-5.2-11.5-11.5c0-6.3,5.2-11.5,11.5-11.5h30.6L127,105.4c-4.2-4.7-3.9-12,0.8-16.2c4.7-4.2,12-3.9,16.2,0.8
	l37.4,41.2L218.8,90c4.2-4.7,11.5-5,16.2-0.8c4.7,4.2,5,11.5,0.8,16.2l-39.2,43.2h30.9c6.3,0,11.5,5.2,11.5,11.5
	c0,6.3-5.2,11.5-11.5,11.5h-34.6v22.9H227.3z"/>
</svg>
