<?xml version="1.0" encoding="utf-8"?>
<!-- Generator: Adobe Illustrator 22.0.1, SVG Export Plug-In . SVG Version: 6.00 Build 0)  -->
<svg version="1.0" id="图层_1" xmlns="http://www.w3.org/2000/svg" xmlns:xlink="http://www.w3.org/1999/xlink" x="0px" y="0px"
	 viewBox="0 0 360 360" style="enable-background:new 0 0 360 360;" xml:space="preserve">
<style type="text/css">
	.st0{fill-rule:evenodd;clip-rule:evenodd;}
</style>
<g>
	<g>
		<path class="st0" d="M180.5,15.5c-91.1,0-165,73.9-165,165c0,91.1,73.9,165,165,165c91.1,0,165-73.9,165-165
			C345.5,89.4,271.6,15.5,180.5,15.5z M67.5,271.1c-14-12.1-25-40.3-25-40.3c10.4,1.1,39.7,1.8,39.7,1.8l21-83.5l-26.9,1L80,131
			l19.9-2.5l61.3-39.4l-6.5,26.6l10.5-0.3l62.7-36.1l-4.3,24l10.3,0.2l42.7-31.6L287,83.2l-33.2,134.1c31.8-6.3,68.8-26.2,72.1-27.3
			c0,9.4-3.2,22.7-3.2,22.7C258.6,275.5,68.6,271.3,67.5,271.1z M122.5,232.8l19.7-1.7l21.4-88.5l-17.1-2.9L122.5,232.8z
			 M191.5,227.4l18-2.7l22.1-91.1l-16,0.7L191.5,227.4z"/>
	</g>
</g>
</svg>
