<?xml version="1.0" encoding="utf-8"?>
<!-- Generator: Adobe Illustrator 22.0.1, SVG Export Plug-In . SVG Version: 6.00 Build 0)  -->
<svg version="1.0" id="图层_1" xmlns="http://www.w3.org/2000/svg" xmlns:xlink="http://www.w3.org/1999/xlink" x="0px" y="0px"
	 viewBox="0 0 360 360" style="enable-background:new 0 0 360 360;" xml:space="preserve">
<path d="M346,311.2c0,4.8-0.8,9.2-2.4,13.4c-1.6,4.1-3.8,7.8-6.7,10.9c-2.9,3.1-6.3,5.6-10.2,7.3c-3.9,1.8-8.1,2.6-12.8,2.6H49.3
	c-4.6,0-9-0.9-13.1-2.6c-4.1-1.8-7.8-4.2-10.9-7.3c-3.2-3.1-5.7-6.8-7.5-10.9c-1.8-4.1-2.7-8.6-2.7-13.4V120.4
	c0-9.5,3.2-17.6,9.7-24.3c6.4-6.6,14.3-10,23.5-10h264.7c9.2,0,17.1,3.3,23.5,10c6.4,6.6,9.7,14.7,9.7,24.3v60h-82.8
	c-9.2,0-20.8,3.3-27.2,9.8c-6.4,6.5-9.7,16.8-9.7,26.3c0.2,6.5,1.6,12.3,4,17.3c1.9,4.3,8.9,8.9,13.4,12.4c4.5,3.5,11,5.3,19.5,5.3
	H346V311.2L346,311.2z M296.4,62.2H130.9c13.1-7,25.5-4.2,37.2-10.8c10.2-5.5,20.3-11,30.3-16.6c10-5.5,17.7-9.8,23.3-12.8
	c8.5-4.8,16.1-7,22.8-6.6c6.7,0.4,12.3,1.6,16.9,3.6c5.3,2.8,10,6.4,13.9,10.9L296.4,62.2z M246.8,216.5c0-4.8,1.6-8.8,4.7-12
	c3.2-3.3,7.1-4.9,11.7-4.9c4.6,0,8.5,1.6,11.7,4.9c3.2,3.3,4.7,7.3,4.7,12c0,4.8-1.6,8.8-4.7,12.2c-3.2,3.4-7,5.1-11.7,5.1
	c-4.6,0-8.5-1.7-11.7-5.1C248.4,225.4,246.8,221.3,246.8,216.5L246.8,216.5z"/>
</svg>
