<?xml version="1.0" encoding="utf-8"?>
<!-- Generator: Adobe Illustrator 22.0.1, SVG Export Plug-In . SVG Version: 6.00 Build 0)  -->
<svg version="1.0" id="图层_1" xmlns="http://www.w3.org/2000/svg" xmlns:xlink="http://www.w3.org/1999/xlink" x="0px" y="0px"
	 viewBox="0 0 360 360" style="enable-background:new 0 0 360 360;" xml:space="preserve">
<path d="M180.5,15.5c-91.1,0-165,73.9-165,165c0,91.1,73.9,165,165,165c91.1,0,165-73.9,165-165C345.5,89.3,271.6,15.5,180.5,15.5z
	 M255.1,264.1c-36-19.7-60.9-47.3-74.9-82.8c-3.1,9.9-6.5,18-10,24.3c-12.6,22.3-34,41.7-64.3,58.5l-12.6-16.2
	c27.4-14.1,46.9-30.8,58.5-50.2c4-6.7,7.5-15.3,10.4-25.8H99.9v-19.1h66.6c1.8-10.8,3.1-23.2,4.1-37.1H105V96.8h150.5v18.9h-64.9
	c-1.3,14.7-2.6,27.1-4.1,37.1h74.7v19.1h-66c13.2,32.7,37.3,58,72.4,76L255.1,264.1z"/>
</svg>
