<?xml version="1.0" encoding="utf-8"?>
<!-- Generator: Adobe Illustrator 22.0.1, SVG Export Plug-In . SVG Version: 6.00 Build 0)  -->
<svg version="1.0" id="图层_1" xmlns="http://www.w3.org/2000/svg" xmlns:xlink="http://www.w3.org/1999/xlink" x="0px" y="0px"
	 viewBox="0 0 360 360" style="enable-background:new 0 0 360 360;" xml:space="preserve">
<g>
	<g>
		<path d="M102.3,149.5c-14.6,0-21.7,9.9-21.7,30.2c0,9.8,1.9,17.4,5.6,22.4c3.7,5,8.8,7.4,15.7,7.4c6.1,0,11.2-2.2,15.4-6.4
			c4.2-4.3,6.3-12.3,6.3-23.8c0-9.4-1.8-16.8-5.3-22.1C114.9,152,109.7,149.5,102.3,149.5z M298.7,14H62.3C36.3,14,15,35.3,15,61.3
			v236.4c0,26,21.3,47.3,47.3,47.3h236.4c26,0,47.3-21.3,47.3-47.3V61.3C346,35.3,324.7,14,298.7,14z M133.4,211.7
			c-7.9,8.2-18.5,12.3-31.6,12.3c-13.4,0-24-4.4-31.5-13c-7.4-8.6-11.2-19.3-11.2-31.8c0-12.5,4-23.1,11.9-31.5
			c7.9-8.4,18.6-12.7,31.5-12.7c13.1,0,23.6,4.3,31.2,12.7c7.6,8.4,11.5,19.1,11.5,31.7C145.3,192.6,141.3,203.5,133.4,211.7z
			 M220.7,151.6h-26.2v71.1h-21.4v-71.1h-26.2v-15.3h73.8V151.6z M249.8,201.6c3.7,4.9,8.6,7.3,14.8,7.3c4.9,0,9-1.6,12.5-4.9
			c3.4-3.3,5.4-7.2,5.9-11.8l0.1-1.2l18.8,1.8l-0.1,1.2c-1.1,8.7-5.1,15.9-11.9,21.5c-6.8,5.6-15.7,8.4-26.6,8.4
			c-9.2,0-16.8-2-22.6-6c-5.8-4-10.3-9.4-13.4-16.2c-3.1-6.7-4.7-14.3-4.7-22.4c0-13.1,3.7-23.8,11-32c7.3-8.3,17.5-12.4,30.3-12.4
			c10,0,18.5,2.7,25.1,8c6.7,5.3,11,13,12.7,22.8l0.2,1.2l-18.7,1.7l-0.2-1c-2.9-12.2-9.1-18.1-18.9-18.1c-6.3,0-11.1,2.4-14.5,7.4
			c-3.5,5.1-5.3,12.6-5.3,22.3C244.1,189.1,246,196.6,249.8,201.6z"/>
	</g>
</g>
</svg>
