<?xml version="1.0" encoding="utf-8"?>
<!-- Generator: Adobe Illustrator 22.0.1, SVG Export Plug-In . SVG Version: 6.00 Build 0)  -->
<svg version="1.0" id="图层_1" xmlns="http://www.w3.org/2000/svg" xmlns:xlink="http://www.w3.org/1999/xlink" x="0px" y="0px"
	 viewBox="0 0 360 360" style="enable-background:new 0 0 360 360;" xml:space="preserve">
<g>
	<g>
		<path d="M170.7,245h19.2v-23.4h-19.2V245z M132.8,245h18.9v-23.4h-18.9V245z M180.5,15.5c-91.1,0-165,73.9-165,165
			c0,91.1,73.9,165,165,165s165-73.9,165-165C345.5,89.4,271.6,15.5,180.5,15.5z M119.8,157.5c4.7-10.7,8.2-24.3,10.6-40.9h-26.6
			V98.5h128v9c-1.3,8.3-2.8,15.8-4.5,22.6h29.8v11.5c-1.9,25.3-4.6,40.9-8.1,46.8c-3.4,5.4-8.4,8.4-15.1,9l-17.7,0.2l-6.2-19.4
			c5.5,1.4,9.6,2.1,12.2,2.1c4.8,0,8.5-1.4,11.1-4.3c2.3-2.6,4-11.9,5.1-27.7H206c2.6-10.3,4.8-20.9,6.6-31.7h-62.8l-2.8,16h54.1
			v16.2c-2.4,9.1-6.9,17.2-13.4,24.5c6,3.5,12.6,7.7,19.8,12.6l-14.7,14.5c-5.5-4.8-12.2-9.7-20.2-14.7c-9,5.8-20.7,10.6-35.1,14.5
			l-9.2-16.6c10.2-2.8,18.8-5.8,25.8-9.2c-6.5-3.8-11.6-6.5-15.1-8.3l12.6-12.2c5.9,2.9,12.2,6.1,18.9,9.6
			c4.5-4.1,8.1-8.7,10.7-13.6h-38.7c-2,6.4-4,11.7-5.8,15.8c-7,14.2-17.3,27-30.9,38.3l-11.5-14.7
			C105.4,180.1,113.9,169.4,119.8,157.5z M266.7,262.5H94.5V245h19.2v-41.1h133.9V245h19.1V262.5z M209,245h19.6v-23.4H209V245z"/>
	</g>
</g>
</svg>
