<?xml version="1.0" encoding="utf-8"?>
<!-- Generator: Adobe Illustrator 22.0.1, SVG Export Plug-In . SVG Version: 6.00 Build 0)  -->
<svg version="1.0" id="图层_1" xmlns="http://www.w3.org/2000/svg" xmlns:xlink="http://www.w3.org/1999/xlink" x="0px" y="0px"
	 viewBox="0 0 360 360" style="enable-background:new 0 0 360 360;" xml:space="preserve">
<path d="M180.5,14.5c-91.1,0-165,73.9-165,165c0,39,13.6,74.7,36.2,102.9l71.9-50.4c2.7-1.9,5.8-2.5,8.8-1.9c3.1,0.5,6,2.1,7.9,4.8
	l33.9,48.4l78.2-54.8l-4.7-6.7c-6.4-9.2-0.9-22,10.3-23.5l44-6c12.1-1.6,21,11.1,15.3,21.9l-20.7,39.3c-5.2,9.9-19.1,10.8-25.6,1.6
	l-5.1-7.3l-87.6,61.4c-2.7,1.9-5.8,2.5-8.8,1.9c-3.1-0.4-6-2.1-8-4.8L127.6,258l-59.8,41.9c29.5,27.6,69,44.7,112.6,44.7
	c91.1,0,165-73.9,165-165C345.5,88.3,271.6,14.5,180.5,14.5z M226.3,179.5c6.3,0,11.5,5.2,11.5,11.5c0,6.3-5.2,11.5-11.5,11.5h-34.4
	v36.3c0,6.3-5.2,11.5-11.5,11.5c-6.3,0-11.5-5.2-11.5-11.5v-36.3h-34.4c-6.3,0-11.5-5.2-11.5-11.5c0-6.3,5.2-11.5,11.5-11.5h34.4
	v-23.7h-34.2c-6.3,0-11.5-5.2-11.5-11.5c0-6.3,5.2-11.5,11.5-11.5h30.6L126,80.8c-4.2-4.7-3.9-12,0.8-16.2c4.7-4.2,12-3.9,16.2,0.8
	l37.4,44.9l37.4-44.9c4.2-4.7,11.5-5,16.2-0.8c4.7,4.2,5,11.5,0.8,16.2l-39.2,52.1h30.9c6.3,0,11.5,5.2,11.5,11.5
	c0,6.3-5.2,11.5-11.5,11.5h-34.6v23.7H226.3z"/>
</svg>
