<?xml version="1.0" encoding="utf-8"?>
<!-- Generator: Adobe Illustrator 22.0.1, SVG Export Plug-In . SVG Version: 6.00 Build 0)  -->
<svg version="1.0" id="图层_1" xmlns="http://www.w3.org/2000/svg" xmlns:xlink="http://www.w3.org/1999/xlink" x="0px" y="0px"
	 viewBox="0 0 360 360" style="enable-background:new 0 0 360 360;" xml:space="preserve">
<path d="M308,26.4c-7.2-6.7-17.1-10.9-28-10.9H76.9c-10.8,0-20.8,4.2-28,10.9c-7.3,6.9-11.9,16.3-11.9,26.8V333h0.1
	c0,2.2,0.6,4.4,1.8,6.4c3.6,5.9,11.5,7.8,17.6,4.3L171,277.3c2.3-1.4,4.9-2,7.5-2c2.6,0,5.2,0.7,7.5,2l113.6,65.9
	c2.1,1.4,4.7,2.3,7.4,2.3c7.1,0,12.9-5.6,12.9-12.5V53.2C319.9,42.8,315.4,33.3,308,26.4z M237.4,145.1h-47.1v47.1
	c0,6.5-5.3,11.8-11.8,11.8c-6.5,0-11.8-5.3-11.8-11.8v-47.1h-47.1c-6.5,0-11.8-5.3-11.8-11.8c0-6.5,5.3-11.8,11.8-11.8h47.1V74.4
	c0-6.5,5.3-11.8,11.8-11.8c6.5,0,11.8,5.3,11.8,11.8v47.1h47.1c6.5,0,11.8,5.3,11.8,11.8C249.2,139.8,243.9,145.1,237.4,145.1z"/>
</svg>
