<?xml version="1.0" encoding="utf-8"?>
<!-- Generator: Adobe Illustrator 22.0.1, SVG Export Plug-In . SVG Version: 6.00 Build 0)  -->
<svg version="1.0" id="图层_1" xmlns="http://www.w3.org/2000/svg" xmlns:xlink="http://www.w3.org/1999/xlink" x="0px" y="0px"
	 viewBox="0 0 360 360" style="enable-background:new 0 0 360 360;" xml:space="preserve">
<g>
	<g>
		<path d="M218.2,317.1L218.2,317.1L48.9,317c-11.3,0-20.6-9.3-20.6-20.6V48.9c0-11.3,9.3-20.6,20.6-20.6h247.5
			c11.3,0,20.6,9.3,20.6,20.6v134.3h0c0,0.1,0,0.1,0,0.1c0,3.8,3.1,6.9,6.9,6.9c3.8,0,6.9-3.1,6.9-6.9c0-0.1,0-0.1,0-0.1h0V42
			c0-15.1-12.4-27.5-27.5-27.5H42c-15.1,0-27.5,12.4-27.5,27.5v261.2c0,15.1,12.4,27.5,27.5,27.5h176.2v-0.1
			c3.6-0.2,6.4-3.1,6.4-6.8C224.6,320.2,221.8,317.3,218.2,317.1z M342.9,333.2l-26-31c13.8-11.3,22.6-28.6,22.6-47.8
			c0-34.2-27.7-61.9-61.9-61.9c-34.2,0-61.9,27.7-61.9,61.9c0,34.2,27.7,61.9,61.9,61.9c10,0,19.4-2.4,27.8-6.6
			c0.2,0.3,0.2,0.5,0.4,0.8l26.5,31.6c2.4,2.9,6.8,3.3,9.7,0.8C344.9,340.5,345.3,336.1,342.9,333.2z M277.7,302.6
			c-26.6,0-48.1-21.5-48.1-48.1c0-26.6,21.5-48.1,48.1-48.1s48.1,21.5,48.1,48.1C325.8,281,304.2,302.6,277.7,302.6z M201,229.1
			c3.8,0,6.9-3.1,6.9-6.9v-20.6h20.6c3.8,0,6.9-3.1,6.9-6.9c0-3.8-3.1-6.9-6.9-6.9h-20.6v-20.6c0-3.8-3.1-6.9-6.9-6.9
			s-6.9,3.1-6.9,6.9v20.6h-20.6c-3.8,0-6.9,3.1-6.9,6.9c0,3.8,3.1,6.9,6.9,6.9h20.6v20.6C194.1,226,197.2,229.1,201,229.1z
			 M54.3,222.3c0,3.8,3.1,6.9,6.9,6.9s6.9-3.1,6.9-6.9c0-34.2,27.7-61.9,61.9-61.9c12.7,0,24.6,3.9,34.4,10.5l0.1-0.1
			c1.2,0.9,2.6,1.5,4.1,1.5c3.8,0,6.9-3.1,6.9-6.9c0-2.4-1.3-4.4-3.2-5.7l0.1-0.1c-4.3-2.9-8.9-5.4-13.8-7.4
			c15.8-9.7,26.4-27,26.4-46.9c0-30.4-24.6-55-55-55c-30.4,0-55,24.6-55,55c0,19.9,10.6,37.3,26.4,46.9
			C73.8,163.5,54.3,190.6,54.3,222.3z M88.7,105.3c0-22.8,18.5-41.2,41.2-41.2c22.8,0,41.2,18.5,41.2,41.2
			c0,22.8-18.5,41.2-41.2,41.2C107.2,146.6,88.7,128.1,88.7,105.3z"/>
	</g>
</g>
</svg>
