<?xml version="1.0" encoding="utf-8"?>
<!-- Generator: Adobe Illustrator 22.0.1, SVG Export Plug-In . SVG Version: 6.00 Build 0)  -->
<svg version="1.0" id="图层_1" xmlns="http://www.w3.org/2000/svg" xmlns:xlink="http://www.w3.org/1999/xlink" x="0px" y="0px"
	 viewBox="0 0 360 360" style="enable-background:new 0 0 360 360;" xml:space="preserve">
<style type="text/css">
	.st0{fill-rule:evenodd;clip-rule:evenodd;}
</style>
<g>
	<g>
		<path class="st0" d="M266.5,15.5H126.8v0.1l0,0L52.3,90.1h0v217.4c0,20.9,17.2,38,38.3,38h175.9c21.1,0,38.3-17,38.3-38v-254
			C304.7,32.5,287.6,15.5,266.5,15.5z M126.8,30.7v52.6c0,2.7-3,5.1-4.6,5.1H72.3l-2.6,0L126.8,30.7z M62.6,309.4V97.9h56.5
			c11.1,0,17.6-7.2,17.6-19V25.8h132.3c4.7,0,9.6,2.2,14,5.5c-0.2,0.2-0.3,0.3-0.4,0.5L67.9,323.2C64.7,318.9,62.6,314,62.6,309.4z
			 M294.4,310.5c0,11.6-14.3,24.7-26,24.7H88.1c-4.3,0-9-1.9-13-4.9L289.8,38.6c2.8,4,4.6,8.5,4.6,12.7V310.5z"/>
	</g>
</g>
</svg>
