<?xml version="1.0" encoding="utf-8"?>
<!-- Generator: Adobe Illustrator 22.0.1, SVG Export Plug-In . SVG Version: 6.00 Build 0)  -->
<svg version="1.0" id="图层_1" xmlns="http://www.w3.org/2000/svg" xmlns:xlink="http://www.w3.org/1999/xlink" x="0px" y="0px"
	 viewBox="0 0 360 360" style="enable-background:new 0 0 360 360;" xml:space="preserve">
<g>
	<g>
		<path d="M305.8,247.5c3.6,0,6.6-3,6.6-6.6c0-3.6-3-6.6-6.6-6.6h-11.2l9.4-11.7c2.4-2.7,2.2-6.9-0.5-9.4c-2.7-2.4-6.9-2.2-9.3,0.5
			l-8.3,10.6l-8.3-10.6c-2.4-2.7-6.6-2.9-9.3-0.5c-2.7,2.4-2.9,6.7-0.5,9.4l9.4,11.7h-11c-3.6,0-6.6,3-6.6,6.6c0,3.6,3,6.6,6.6,6.6
			h13.1v6.6h-13.2c-3.6,0-6.6,3-6.6,6.6s3,6.6,6.6,6.6h13.2v13.2c0,3.6,3,6.6,6.6,6.6c3.6,0,6.6-3,6.6-6.6v-13.2h13.2
			c3.6,0,6.6-3,6.6-6.6s-3-6.6-6.6-6.6h-13.2v-6.6H305.8z M213,262.9L213,262.9l-164.5,0c-10.9,0-19.8-8.9-19.8-19.9V91.6
			l128.4,80.8c0,0,0.1,0,0.1,0.1c0.4,0.3,0.9,0.4,1.3,0.6c0.4,0.1,0.7,0.3,1,0.4c0.4,0.1,0.8,0,1.3,0c0.4,0,0.8,0.1,1.3,0
			c0.4-0.1,0.7-0.3,1-0.4c0.5-0.2,0.9-0.3,1.3-0.6c0,0,0.1,0,0.1-0.1l128.4-80.8v85.2h0c0,0,0,0,0,0c0,3.7,3,6.6,6.6,6.6
			c3.7,0,6.6-3,6.6-6.6c0,0,0,0,0,0h0V77.5c0-14.6-11.9-26.5-26.4-26.5h-238c-14.5,0-26.4,11.9-26.4,26.5v172.2
			c0,14.6,11.9,26.5,26.4,26.5H213v0c3.7,0,6.6-3,6.6-6.6S216.6,262.9,213,262.9z M48.5,64.2h224.8c8.2,0,15.3,5.1,18.3,12.3
			l-130.7,82.4L30.2,76.5C33.2,69.3,40.3,64.2,48.5,64.2z M286,189.7c-32.9,0-59.5,26.7-59.5,59.6c0,32.9,26.6,59.6,59.5,59.6
			c32.9,0,59.5-26.7,59.5-59.6C345.5,216.4,318.8,189.7,286,189.7z M286,295.7c-25.6,0-46.3-20.8-46.3-46.4
			c0-25.6,20.7-46.4,46.3-46.4c25.6,0,46.3,20.8,46.3,46.4C332.2,275,311.5,295.7,286,295.7z"/>
	</g>
</g>
</svg>
