<?xml version="1.0" encoding="utf-8"?>
<!-- Generator: Adobe Illustrator 22.0.1, SVG Export Plug-In . SVG Version: 6.00 Build 0)  -->
<svg version="1.0" id="图层_1" xmlns="http://www.w3.org/2000/svg" xmlns:xlink="http://www.w3.org/1999/xlink" x="0px" y="0px"
	 viewBox="0 0 360 360" style="enable-background:new 0 0 360 360;" xml:space="preserve">
<style type="text/css">
	.st0{fill:none;stroke:#000000;stroke-width:10;stroke-miterlimit:10;}
</style>
<path class="st0" d="M340,146c0,2.8-1.6,5.8-5,9.1l-69.8,66.9l16.6,94.5c0.1,0.9,0.2,2.1,0.2,3.8c0,2.6-0.7,4.8-2,6.7
	c-1.4,1.8-3.3,2.7-5.8,2.7c-2.4,0-5-0.8-7.7-2.2l-86.3-44.6l-86.3,44.6c-2.8,1.6-5.4,2.2-7.7,2.2c-2.7,0-4.8-0.9-6.1-2.7
	c-1.4-1.8-2-4.1-2-6.7c0-0.8,0.1-2,0.4-3.8l16.6-94.5l-70-66.9c-3.2-3.4-4.8-6.4-4.8-9.1c0-4.7,3.6-7.6,10.8-8.7l96.6-13.8l43.3-86
	c2.4-5.1,5.6-7.8,9.4-7.8c3.9,0,7,2.6,9.4,7.8l43.3,86l96.6,13.8C336.5,138.5,340,141.4,340,146L340,146L340,146z"/>
</svg>
