<?xml version="1.0" encoding="utf-8"?>
<!-- Generator: Adobe Illustrator 22.0.1, SVG Export Plug-In . SVG Version: 6.00 Build 0)  -->
<svg version="1.0" id="图层_1" xmlns="http://www.w3.org/2000/svg" xmlns:xlink="http://www.w3.org/1999/xlink" x="0px" y="0px"
	 viewBox="0 0 360 360" style="enable-background:new 0 0 360 360;" xml:space="preserve">
<g>
	<g>
		<path d="M218.2,317.1L218.2,317.1L48.9,317c-11.3,0-20.6-9.3-20.6-20.6V48.9c0-11.3,9.3-20.6,20.6-20.6h247.5
			c11.3,0,20.6,9.3,20.6,20.6v134.3h0c0,0.1,0,0.1,0,0.1c0,3.8,3.1,6.9,6.9,6.9s6.9-3.1,6.9-6.9c0-0.1,0-0.1,0-0.1h0V42
			c0-15.1-12.4-27.5-27.5-27.5H42c-15.1,0-27.5,12.4-27.5,27.5v261.2c0,15.1,12.4,27.5,27.5,27.5h176.2v-0.1
			c3.6-0.2,6.4-3.1,6.4-6.8S221.8,317.3,218.2,317.1z M342.9,333.2l-26-31c13.8-11.3,22.6-28.6,22.6-47.8
			c0-34.2-27.7-61.9-61.9-61.9s-61.9,27.7-61.9,61.9c0,34.2,27.7,61.9,61.9,61.9c10,0,19.4-2.4,27.8-6.6c0.2,0.3,0.2,0.5,0.4,0.8
			l26.5,31.6c2.4,2.9,6.8,3.3,9.7,0.8S345.3,336.1,342.9,333.2z M277.7,302.6c-26.6,0-48.1-21.5-48.1-48.1s21.5-48.1,48.1-48.1
			c26.6,0,48.1,21.5,48.1,48.1S304.2,302.6,277.7,302.6z M234.5,117.6c0-34.2-27.7-61.9-61.9-61.9c-34.2,0-61.9,27.7-61.9,61.9
			c0,24.3,14,45.2,34.3,55.4c-35.9,11.6-61.8,45.3-61.8,85c0,3.8,3.1,6.9,6.9,6.9s6.9-3.1,6.9-6.9c0-41.8,33.9-75.6,75.6-75.6
			c15,0,29,4.4,40.7,11.9l0-0.1c1.2,0.9,2.6,1.6,4.2,1.6c3.8,0,6.9-3.1,6.9-6.9c0-2.7-1.6-5-3.9-6.1l0-0.1c-0.1,0-0.1-0.1-0.2-0.1
			c-6.3-4-13.1-7.3-20.3-9.6C220.5,162.8,234.5,141.9,234.5,117.6z M172.6,165.8c-26.6,0-48.1-21.5-48.1-48.1s21.5-48.1,48.1-48.1
			s48.1,21.5,48.1,48.1S199.2,165.8,172.6,165.8z"/>
	</g>
</g>
</svg>
