<?xml version="1.0" encoding="utf-8"?>
<!-- Generator: Adobe Illustrator 22.0.1, SVG Export Plug-In . SVG Version: 6.00 Build 0)  -->
<svg version="1.0" id="图层_1" xmlns="http://www.w3.org/2000/svg" xmlns:xlink="http://www.w3.org/1999/xlink" x="0px" y="0px"
	 viewBox="0 0 360 360" style="enable-background:new 0 0 360 360;" xml:space="preserve">
<g>
	<g>
		<path d="M180.6,14.3c-8.7,0-15.8,7.1-15.8,15.8v58.1c0,8.7,7.1,15.8,15.8,15.8c8.7,0,15.8-7.1,15.8-15.8V30.2
			C196.5,21.5,189.3,14.3,180.6,14.3z M119.8,42.2c-4.4-7.5-14.1-10.2-21.6-5.8c-7.5,4.4-10.2,14.1-5.8,21.6l29,50.3
			c4.4,7.5,14.1,10.2,21.6,5.8c7.5-4.4,10.2-14.1,5.8-21.6L119.8,42.2z M43.5,118.5l50.3,29c7.5,4.4,17.3,1.7,21.6-5.8
			c4.4-7.5,1.7-17.3-5.8-21.6L59.4,91c-7.5-4.4-17.3-1.7-21.6,5.8C33.4,104.4,36,114.1,43.5,118.5z M329.8,163.5h-58.1
			c-8.7,0-15.8,7.1-15.8,15.8c0,8.7,7.1,15.8,15.8,15.8h58.1c8.7,0,15.8-7.1,15.8-15.8C345.6,170.6,338.5,163.5,329.8,163.5z
			 M245.8,141.7L245.8,141.7c4.4,7.5,14.1,10.2,21.6,5.8l50.3-29c7.5-4.4,10.2-14.1,5.8-21.6c-4.4-7.5-14.1-10.2-21.6-5.8l-50.3,29
			C244,124.4,241.4,134.2,245.8,141.7z M218.3,114.2c7.5,4.4,17.3,1.7,21.6-5.8l29-50.3c4.4-7.5,1.7-17.3-5.8-21.6
			c-7.5-4.4-17.3-1.7-21.6,5.8l-29,50.3C208.1,100.1,210.7,109.8,218.3,114.2z M105.4,179.3c0-8.7-7.1-15.8-15.8-15.8H31.5
			c-8.7,0-15.8,7.1-15.8,15.8c0,8.7,7.1,15.8,15.8,15.8h58.1C98.3,195.2,105.4,188,105.4,179.3z M115.5,216.9
			c-4.4-7.5-14.1-10.2-21.6-5.8l-50.3,29c-7.5,4.4-10.2,14.1-5.8,21.6c4.4,7.5,14.1,10.2,21.6,5.8l50.3-29
			C117.2,234.2,119.8,224.5,115.5,216.9z M143,244.5c-7.5-4.4-17.3-1.7-21.6,5.8l-29,50.3c-4.4,7.5-1.7,17.3,5.8,21.6
			c7.5,4.4,17.3,1.7,21.6-5.8l29-50.3C153.2,258.6,150.6,248.8,143,244.5z M180.6,254.6c-8.7,0-15.8,7.1-15.8,15.8v58.1
			c0,8.7,7.1,15.8,15.8,15.8c8.7,0,15.8-7.1,15.8-15.8v-58.1C196.5,261.7,189.3,254.6,180.6,254.6z M239.9,250.3
			c-4.4-7.5-14.1-10.2-21.6-5.8s-10.2,14.1-5.8,21.6l29,50.3c4.4,7.5,14.1,10.2,21.6,5.8c7.5-4.4,10.2-14.1,5.8-21.6L239.9,250.3z
			 M317.7,240.2l-50.3-29c-7.5-4.4-17.3-1.7-21.6,5.8h0c-4.4,7.5-1.7,17.3,5.8,21.6l50.3,29c7.5,4.4,17.3,1.7,21.6-5.8
			C327.9,254.3,325.3,244.5,317.7,240.2z"/>
	</g>
</g>
</svg>
