<?xml version="1.0" encoding="utf-8"?>
<!-- Generator: Adobe Illustrator 22.0.1, SVG Export Plug-In . SVG Version: 6.00 Build 0)  -->
<svg version="1.0" id="图层_1" xmlns="http://www.w3.org/2000/svg" xmlns:xlink="http://www.w3.org/1999/xlink" x="0px" y="0px"
	 viewBox="0 0 360 360" style="enable-background:new 0 0 360 360;" xml:space="preserve">
<style type="text/css">
	.st0{fill-rule:evenodd;clip-rule:evenodd;}
</style>
<path class="st0" d="M179.6,15.3c-91.1,0-165,73.9-165,165c0,91.1,73.9,165,165,165s165-73.9,165-165
	C344.6,89.2,270.8,15.3,179.6,15.3z M259.9,260.6c-2.7,2.8-7.1,2.8-9.8,0l-72.3-74l-69.5,71.1c-2.6,2.7-6.9,2.7-9.5,0
	c-2.6-2.7-2.6-7,0-9.7l69.5-71.1l-65.6-67.2c-2.7-2.8-2.7-7.3,0-10.1c2.7-2.8,7.1-2.8,9.8,0l65.6,67.2l63.2-64.7
	c2.6-2.7,6.9-2.7,9.5,0c2.6,2.7,2.6,7,0,9.7l-63.2,64.7l72.3,74C262.7,253.3,262.7,257.8,259.9,260.6z"/>
</svg>
