<?xml version="1.0" encoding="utf-8"?>
<!-- Generator: Adobe Illustrator 22.0.1, SVG Export Plug-In . SVG Version: 6.00 Build 0)  -->
<svg version="1.0" id="图层_1" xmlns="http://www.w3.org/2000/svg" xmlns:xlink="http://www.w3.org/1999/xlink" x="0px" y="0px"
	 viewBox="0 0 360 360" style="enable-background:new 0 0 360 360;" xml:space="preserve">
<style type="text/css">
	.st0{fill-rule:evenodd;clip-rule:evenodd;}
</style>
<g>
	<g>
		<path class="st0" d="M180.6,14.9c-91.1,0-165,73.9-165,165c0,91.1,73.9,165,165,165c91.1,0,165-73.9,165-165
			C345.6,88.8,271.8,14.9,180.6,14.9z M178.8,303.4c-7.6,0-13.7-6.1-13.7-13.5c0-7.5,6.2-13.5,13.7-13.5c7.6,0,13.7,6.1,13.7,13.5
			C192.6,297.3,186.4,303.4,178.8,303.4z M192.6,234.7c0,7.6-6.2,13.7-13.7,13.7c-7.6,0-13.7-6.2-13.7-13.7V69.7
			c0-7.6,6.2-13.7,13.7-13.7c7.6,0,13.7,6.2,13.7,13.7V234.7z"/>
	</g>
</g>
</svg>
