<?xml version="1.0" encoding="utf-8"?>
<!-- Generator: Adobe Illustrator 22.0.1, SVG Export Plug-In . SVG Version: 6.00 Build 0)  -->
<svg version="1.0" id="图层_1" xmlns="http://www.w3.org/2000/svg" xmlns:xlink="http://www.w3.org/1999/xlink" x="0px" y="0px"
	 viewBox="0 0 360 360" style="enable-background:new 0 0 360 360;" xml:space="preserve">
<style type="text/css">
	.st0{fill-rule:evenodd;clip-rule:evenodd;}
</style>
<path d="M297.9,14.7H62.2c-25.9,0-47.1,21.2-47.1,47.1v235.7c0,25.9,21.2,47.1,47.1,47.1h235.7c25.9,0,47.1-21.2,47.1-47.1V61.9
	C345.1,35.9,323.9,14.7,297.9,14.7z M321.5,288.1c0,18.2-14.9,33-33,33H71.7c-18.2,0-33-14.9-33-33V71.3c0-18.2,14.9-33,33-33h216.9
	c18.2,0,33,14.9,33,33V288.1z"/>
<path class="st0" d="M117.1,171.2l46.8,48.7L272.6,86.7l0.5,58.8L167,272.7l-80-68.7L117.1,171.2z"/>
</svg>
