<?xml version="1.0" encoding="utf-8"?>
<!-- Generator: Adobe Illustrator 22.0.1, SVG Export Plug-In . SVG Version: 6.00 Build 0)  -->
<svg version="1.0" id="图层_1" xmlns="http://www.w3.org/2000/svg" xmlns:xlink="http://www.w3.org/1999/xlink" x="0px" y="0px"
	 viewBox="0 0 360 360" style="enable-background:new 0 0 360 360;" xml:space="preserve">
<path d="M297.4,15.5H61.6c-25.9,0-47.1,21.2-47.1,47.1v235.7c0,25.9,21.2,47.1,47.1,47.1h235.7c25.9,0,47.1-21.2,47.1-47.1V62.6
	C344.5,36.7,323.3,15.5,297.4,15.5z M320.9,288.9c0,18.2-14.9,33-33,33H71.1c-18.2,0-33-14.9-33-33V72.1c0-18.2,14.9-33,33-33h216.9
	c18.2,0,33,14.9,33,33V288.9z"/>
</svg>
