<?xml version="1.0" encoding="utf-8"?>
<!-- Generator: Adobe Illustrator 22.0.1, SVG Export Plug-In . SVG Version: 6.00 Build 0)  -->
<svg version="1.0" id="图层_1" xmlns="http://www.w3.org/2000/svg" xmlns:xlink="http://www.w3.org/1999/xlink" x="0px" y="0px"
	 viewBox="0 0 360 360" style="enable-background:new 0 0 360 360;" xml:space="preserve">
<style type="text/css">
	.st0{fill-rule:evenodd;clip-rule:evenodd;}
</style>
<g>
	<path class="st0" d="M179.4,15c-91.1,0-165,73.9-165,165s73.9,165,165,165s165-73.9,165-165S270.5,15,179.4,15z M179.4,326.6
		c-81,0-146.7-65.7-146.7-146.7S98.4,33.3,179.4,33.3S326.1,99,326.1,180S260.4,326.6,179.4,326.6z"/>
	<path class="st0" d="M263.7,95.7c-3.6-3.6-9.4-3.6-13,0L179.4,167l-71.3-71.3c-3.6-3.6-9.4-3.6-13,0c-3.6,3.6-3.6,9.4,0,13
		l71.3,71.3l-71.3,71.3c-3.6,3.6-3.6,9.4,0,13c3.6,3.6,9.4,3.6,13,0l71.3-71.3l71.3,71.3c3.6,3.6,9.4,3.6,13,0c3.6-3.6,3.6-9.4,0-13
		L192.4,180l71.3-71.3C267.2,105.1,267.2,99.3,263.7,95.7z"/>
</g>
</svg>
