<?xml version="1.0" encoding="utf-8"?>
<!-- Generator: Adobe Illustrator 22.0.1, SVG Export Plug-In . SVG Version: 6.00 Build 0)  -->
<svg version="1.0" id="图层_1" xmlns="http://www.w3.org/2000/svg" xmlns:xlink="http://www.w3.org/1999/xlink" x="0px" y="0px"
	 viewBox="0 0 360 360" style="enable-background:new 0 0 360 360;" xml:space="preserve">
<g>
	<g>
		<path d="M226.4,288.3H264v-70.9h-37.6V288.3z M124.3,288.3h36.5v-70.9h-36.5V288.3z M174.8,288.3h37.6v-70.9h-37.6V288.3z
			 M290.2,15.1h-220c-30.4,0-55,24.6-55,55v220c0,30.4,24.6,55,55,55h220c30.4,0,55-24.6,55-55v-220
			C345.2,39.7,320.6,15.1,290.2,15.1z M69.5,210.9c22.9-16.5,39.4-34.2,49.4-53.2c10-19,17.2-44.6,21.5-76.8h-16.1
			c-9.3,0-17.9,1.1-25.8,3.2l-9.7-9.7h159l8.6-10.7l16.1,15l-10.7,5.4L250,119.6h29l8.6-9.7l15,14l-8.6,5.4
			c-6.4,29.4-10.6,46.2-12.4,50.5c-1.8,4.3-4.5,8.4-8.1,12.4c-3.6,3.9-10.4,7.4-20.4,10.2c0.7-9.3-7.2-16.5-23.6-21.5l1.1-4.3
			c17.2,3.6,27.4,5,30.6,4.3c3.2-0.7,5.9-3.4,8.1-8.1c2.1-4.7,5.7-20.2,10.7-46.7H250l-8.6,7.5l-11.8-11.8l7.5-4.3l11.8-36.5h-93.5
			c-4.3,35.8-12.9,63.6-25.8,83.3c-12.9,19.7-32.2,36.4-58,50L69.5,210.9z M217.8,174.9c2.9,3.9,3,9.1,0.5,15.6
			c-2.5,6.4-5.7,6.1-9.7-1.1c-3.9-7.2-9.5-14.7-16.7-22.6c-12.9,12.2-30.8,22.6-53.7,31.2l-1.1-3.2c20-11.4,35.8-23.6,47.3-36.5
			c-7.2-7.2-15-14-23.6-20.4l2.1-3.2c9.3,5,18.3,10.7,26.9,17.2c5.7-7.9,10.7-18.3,15-31.2h-16.1c-9.3,0-17.9,1.1-25.8,3.2l-9.7-9.7
			h50.5l8.6-9.7l15,14l-7.5,4.3c-6.4,15.8-12.9,27.9-19.3,36.5C209.2,165.8,214.9,171,217.8,174.9z M106.1,294.7
			c-9.3,0-17.9,1.1-25.8,3.2l-9.7-9.7h39.7c0-31.5-0.4-60.2-1.1-85.9l15,8.6h138.6l7.5-10.7l16.1,12.9l-8.6,7.5v67.7h8.6l15-14
			l18.3,20.4H106.1z"/>
	</g>
</g>
</svg>
