<?xml version="1.0" encoding="utf-8"?>
<!-- Generator: Adobe Illustrator 22.0.1, SVG Export Plug-In . SVG Version: 6.00 Build 0)  -->
<svg version="1.0" id="图层_1" xmlns="http://www.w3.org/2000/svg" xmlns:xlink="http://www.w3.org/1999/xlink" x="0px" y="0px"
	 viewBox="0 0 360 360" style="enable-background:new 0 0 360 360;" xml:space="preserve">
<g>
	<rect x="15.1" y="130.6" width="8.2" height="16.5"/>
	<rect x="15.1" y="171.9" width="8.2" height="16.5"/>
	<rect x="89.3" y="15.1" width="16.5" height="8.2"/>
	<rect x="15.1" y="89.4" width="8.2" height="16.5"/>
	<rect x="15.1" y="254.4" width="8.2" height="16.5"/>
	<rect x="15.1" y="213.1" width="8.2" height="16.5"/>
	<rect x="89.3" y="336.9" width="16.5" height="8.2"/>
	<rect x="254.3" y="15.1" width="16.5" height="8.2"/>
	<rect x="130.6" y="15.1" width="16.5" height="8.2"/>
	<path d="M312.1,15.1h-16.5v8.2h11.5c16.3,0,29.7,13.4,29.7,29.7v11.5h8.2V48.1C345.1,30,330.2,15.1,312.1,15.1z"/>
	<rect x="171.8" y="15.1" width="16.5" height="8.2"/>
	<rect x="213.1" y="15.1" width="16.5" height="8.2"/>
	<path d="M336.8,307.2c0,16.3-13.4,29.7-29.7,29.7h-11.5v8.2h16.5c18.1,0,33-14.8,33-33v-16.5h-8.2V307.2z"/>
	<rect x="336.8" y="89.4" width="8.2" height="16.5"/>
	<rect x="336.8" y="130.6" width="8.2" height="16.5"/>
	<rect x="130.6" y="336.9" width="16.5" height="8.2"/>
	<path d="M15.1,48.1v16.5h8.2V53.1c0-16.3,13.4-29.7,29.7-29.7h11.6v-8.2H48.1C29.9,15.1,15.1,30,15.1,48.1z"/>
	<rect x="336.8" y="171.9" width="8.2" height="16.5"/>
	<path d="M23.3,307.2v-11.6h-8.2v16.5c0,18.2,14.8,33,33,33h16.5v-8.2H53C36.7,336.9,23.3,323.5,23.3,307.2z"/>
	<rect x="336.8" y="213.1" width="8.2" height="16.5"/>
	<rect x="171.8" y="336.9" width="16.5" height="8.2"/>
	<rect x="213.1" y="336.9" width="16.5" height="8.2"/>
	<rect x="336.8" y="254.4" width="8.2" height="16.5"/>
	<rect x="254.3" y="336.9" width="16.5" height="8.2"/>
	<path d="M237.8,171.9h-49.5v-49.5c0-4.5-3.7-8.2-8.2-8.2s-8.2,3.7-8.2,8.2v49.5h-49.5c-4.5,0-8.2,3.7-8.2,8.2s3.7,8.2,8.2,8.2h49.5
		v49.5c0,4.5,3.7,8.2,8.2,8.2s8.2-3.7,8.2-8.2v-49.5h49.5c4.5,0,8.2-3.7,8.2-8.2S242.4,171.9,237.8,171.9z"/>
</g>
</svg>
