<?xml version="1.0" encoding="utf-8"?>
<!-- Generator: Adobe Illustrator 22.0.1, SVG Export Plug-In . SVG Version: 6.00 Build 0)  -->
<svg version="1.0" id="图层_1" xmlns="http://www.w3.org/2000/svg" xmlns:xlink="http://www.w3.org/1999/xlink" x="0px" y="0px"
	 viewBox="0 0 360 360" style="enable-background:new 0 0 360 360;" xml:space="preserve">
<g>
	<g>
		<path d="M260.4,15.5H100.6c-16.6,0-30.1,13.4-30.1,29.7v270.6c0,16.3,13.5,29.7,30.1,29.7h159.8c16.5,0,30.1-13.4,30.1-29.7V45.2
			C290.5,28.9,277,15.5,260.4,15.5z M162.4,36.8h36.1c3.3,0,6,2.7,6,5.9c0,3.3-2.7,5.9-6,5.9h-36.1c-3.3,0-6-2.6-6-5.9
			C156.5,39.5,159.1,36.8,162.4,36.8z M180.5,336.6c-10,0-18.1-8-18.1-17.8c0-9.8,8.1-17.8,18.1-17.8c10,0,18.1,8,18.1,17.8
			C198.6,328.7,190.5,336.6,180.5,336.6z M262.6,290.4h-165V70.1h165V290.4z M143.2,193.9c-4.1,0-7.4,3.3-7.4,7.3
			c0,4,3.3,7.3,7.4,7.3h29.5v36.4c0,4,3.3,7.3,7.4,7.3c4.1,0,7.4-3.3,7.4-7.3v-36.5h29.6c4.1,0,7.4-3.3,7.4-7.3c0-4-3.3-7.3-7.4-7.3
			h-29.6v-14.6h29.6c4.1,0,7.4-3.3,7.4-7.3c0-4-3.3-7.3-7.4-7.3h-22.3l28.4-31.6c2.7-3,2.4-7.6-0.6-10.3c-3-2.7-7.7-2.4-10.4,0.6
			l-31.9,35.5l-30.8-35.4c-2.7-3.1-7.3-3.4-10.4-0.8c-3.1,2.6-3.4,7.2-0.8,10.3l27.6,31.7h-22.6c-4.1,0-7.4,3.3-7.4,7.3
			c0,4,3.3,7.3,7.4,7.3h29.5v14.6H143.2z"/>
	</g>
</g>
</svg>
