<?xml version="1.0" encoding="utf-8"?>
<!-- Generator: Adobe Illustrator 22.0.1, SVG Export Plug-In . SVG Version: 6.00 Build 0)  -->
<svg version="1.0" id="图层_1" xmlns="http://www.w3.org/2000/svg" xmlns:xlink="http://www.w3.org/1999/xlink" x="0px" y="0px"
	 viewBox="0 0 360 360" style="enable-background:new 0 0 360 360;" xml:space="preserve">
<style type="text/css">
	.st0{fill-rule:evenodd;clip-rule:evenodd;}
</style>
<g>
	<g>
		<path class="st0" d="M283.3,197V55.5H147l-40.1-40.7c0,0-105.4,112.4,0,223.8c105.4,111.5,216.6,0,216.6,0L283.3,197z M93.5,199.7
			C41.6,103.2,106.9,36,106.9,36l12.5,12.4C119.4,48.4,70.1,101.5,93.5,199.7z M261.6,174.9l-92-94.7h92V174.9z M129.5,288.1
			c0-33.1-49.3-34.2-49.3,0c0,60.3-42.6,21.2-42.6,56.6c0,0,102.9,0,138,0C175.5,312.9,129.5,344.8,129.5,288.1z"/>
	</g>
</g>
</svg>
