<?xml version="1.0" encoding="utf-8"?>
<!-- Generator: Adobe Illustrator 22.0.1, SVG Export Plug-In . SVG Version: 6.00 Build 0)  -->
<svg version="1.0" id="图层_1" xmlns="http://www.w3.org/2000/svg" xmlns:xlink="http://www.w3.org/1999/xlink" x="0px" y="0px"
	 viewBox="0 0 360 360" style="enable-background:new 0 0 360 360;" xml:space="preserve">
<path d="M180.8,14.5c-91.1,0-165,73.9-165,165c0,91.1,73.9,165,165,165c91.1,0,165-73.9,165-165C345.8,88.4,271.9,14.5,180.8,14.5z
	 M258.5,76.4l-48.8,66.4h38.7c1.8,0,3.5,1.1,4.3,2.7c0.8,1.7,0.5,3.6-0.7,5l-114.8,138c-0.9,1.1-2.3,1.7-3.6,1.7
	c-0.8,0-1.7-0.2-2.4-0.7c-2-1.2-2.8-3.6-2-5.8L165,193h-35.8c-1.6,0-3-0.8-3.9-2c-0.9-1.3-1.1-2.9-0.5-4.3l42.7-114.7
	c0.7-1.9,2.5-3.1,4.4-3.1h82.8c1.8,0,3.4,1,4.2,2.6C259.8,73,259.6,74.9,258.5,76.4z"/>
</svg>
