<?xml version="1.0" encoding="utf-8"?>
<!-- Generator: Adobe Illustrator 22.0.1, SVG Export Plug-In . SVG Version: 6.00 Build 0)  -->
<svg version="1.0" id="图层_1" xmlns="http://www.w3.org/2000/svg" xmlns:xlink="http://www.w3.org/1999/xlink" x="0px" y="0px"
	 viewBox="0 0 360 360" style="enable-background:new 0 0 360 360;" xml:space="preserve">
<style type="text/css">
	.st0{fill-rule:evenodd;clip-rule:evenodd;}
</style>
<path class="st0" d="M231.5,283.7c0-3.9-2.9-7-6.4-7h-89.3c-3.5,0-6.4,3.2-6.4,7v28.2H65.7V333h229.7v-21.1h-63.8V283.7L231.5,283.7
	L231.5,283.7z M324,27H37c-11.9,0-21.5,9.5-21.5,21.1v197.2c0,11.7,9.6,21.1,21.5,21.1h287c11.9,0,21.5-9.5,21.5-21.1V48.1
	C345.5,36.4,335.9,27,324,27L324,27L324,27z M62.6,139.1c0,0,20.3-0.3,22.5-0.8c2.2-0.5,4.4-1.5,6.6-3l4-3.2
	c1.7-1.3,14.5-13.6,16.2-15.2c3.3-3.4,6.3-4.7,9-3.9c2.7,0.7,4.6,2.3,6,4.8l10.9,24.5c5.6-12.8,30.3-72.4,30.5-73
	c0.8-2.3,2.4-4.1,4.1-5.6c1.7-1.4,7.6-3.6,12.2-0.6c2.1,1.4,3.8,3.1,4.5,6.2c0.2,0.8,0.5,3,1,6.5c0.5,3.5,10.4,87.7,13.3,106.9
	c3.6-9.7,24.3-60.4,24.6-61c0.8-2.2,1.8-3.8,3-4.9c1.2-1.1,2.7-1.8,4.7-2.2c3.8-0.8,4.9-0.2,7,1c2.2,1.3,4,3.8,4.4,5.5
	c0.8,3,11.7,30.7,11.7,30.7c0.2-0.1,7-8.6,8.6-11c2.2-2.6,3.5-4.2,6.6-4.9c3.1-0.7,4.9-0.3,7.8-0.2c1.8,0.1,16.9,0.2,16.9,0.2v16.4
	c-1,0.1-11.2-0.1-11.2-0.1c-2.3-0.1-4.5-0.3-6.5,0.8c-2,1.1-2.2,1.2-3,2.2c-0.7,1.1-8.7,12.9-12,17.2c-0.7,1.6-3.2,2.3-4.7,2.9
	c-1.5,0.5-3,0.8-4.6,0.7c-1.6-0.1-3.1-0.4-4.5-1.1c-1.4-0.7-2.4-1.5-2.9-2.4c-0.5-0.9-10-21.9-11.5-25.1
	c-4.3,11.2-27.2,69.8-27.4,70.6c-1.5,3.9-2.4,5.8-4.7,7.7c-2.3,1.9-4.8,2.8-8.1,2.6c-3.5-0.3-6.9-2.4-8.4-4.5
	c-1.5-2.2-1.8-3.8-2.2-6.6c0-0.7-0.2-2.8-0.6-6.3c-0.4-3.5-1-8-1.6-13.4c-0.7-5.4-8.5-72.2-10.9-92c-4.6,11.1-25.9,61.9-25.9,61.9
	c-0.8,1.8-1.9,3.4-3.4,4.9c-1.4,1.5-3.6,2.2-6.6,2c-3,0-5.2-0.8-6.7-2.5c-1.5-1.7-2.7-3.6-3.5-5.8c-0.5-1.1-10.7-23.7-12.7-28.3
	c-1.2,1.2-10.1,9.7-11.4,10.9c-2.7,2.6-5.1,4.3-7.5,5.3c-2.3,0.9-5.1,1.3-8.2,1c-1.7-0.1-21.6,0.2-25.4,0.2L62.6,139.1L62.6,139.1
	L62.6,139.1z"/>
</svg>
