<?xml version="1.0" encoding="utf-8"?>
<!-- Generator: Adobe Illustrator 22.0.1, SVG Export Plug-In . SVG Version: 6.00 Build 0)  -->
<svg version="1.0" id="图层_1" xmlns="http://www.w3.org/2000/svg" xmlns:xlink="http://www.w3.org/1999/xlink" x="0px" y="0px"
	 viewBox="0 0 360 360" style="enable-background:new 0 0 360 360;" xml:space="preserve">
<g>
	<g>
		<path d="M305.8,65.3V46.1c0-19.2-12.4-31.1-34.4-31.1c-21,0-34.4,11.9-34.4,31.1v20.1H122.1V46.1c0-19.2-12.4-31.1-34.4-31.1
			c-21,0-33.5,11.9-33.5,31.1v20.1H15V345h330V66.2L305.8,65.3z M255.1,46.1c0-9.1,4.8-13.7,16.3-13.7s16.3,3.7,16.3,13.7v53
			c0,9.1-4.8,13.7-16.3,13.7s-16.3-3.7-16.3-13.7V46.1z M72.4,46.1c0-9.1,4.8-13.7,16.3-13.7c11.5,0,16.3,3.7,16.3,13.7v53
			c0,9.1-4.8,13.7-16.3,13.7c-11.5,0-16.3-3.7-16.3-13.7V46.1z M317.3,317.6H42.7V135.7h274.5V317.6z M131.7,290.2
			c2.9,2.7,9.6,5.5,14.3,5.5h9.6c4.8,0,10.5-2.7,14.3-5.5l111-106.1c2.9-2.7,2.9-8.2,0-11l-20.1-19.2c-2.9-2.7-8.6-2.7-11.5,0
			l-90.9,87.8c-2.9,2.7-8.6,2.7-11.5,0l-33.5-32c-2.9-2.7-8.6-2.7-11.5,0L82,228.9c-2.9,2.7-2.9,8.2,0,11L131.7,290.2z"/>
	</g>
</g>
</svg>
