<?xml version="1.0" encoding="utf-8"?>
<!-- Generator: Adobe Illustrator 22.0.1, SVG Export Plug-In . SVG Version: 6.00 Build 0)  -->
<svg version="1.0" id="图层_1" xmlns="http://www.w3.org/2000/svg" xmlns:xlink="http://www.w3.org/1999/xlink" x="0px" y="0px"
	 viewBox="0 0 360 360" style="enable-background:new 0 0 360 360;" xml:space="preserve">
<style type="text/css">
	.st0{fill-rule:evenodd;clip-rule:evenodd;}
</style>
<path class="st0" d="M179.8,66.2L179.8,66.2L179.8,66.2c-60.3,0-109.3,49.6-109.3,110.9S119.4,288,179.8,288s109.3-49.6,109.3-110.9
	S240.1,66.2,179.8,66.2 M227.7,292.2c45.1-19.3,75.4-64.3,75.4-115.1c0-69-55.2-124.9-123.3-124.9s-123.3,56-123.3,124.9
	c0,15.4,2.7,30.4,8,44.5c1.3,3.5-0.4,7.4-3.8,8.8c-3.4,1.4-7.2-0.4-8.5-3.9c-0.3-0.7-0.6-1.5-0.8-2.2c-0.5,0-1,0-1.5,0
	c-19.4,0-35.1-15.9-35.1-35.6c0-18.1,13.3-33,30.5-35.3C56.4,88.2,112.4,38.6,179.8,38.6c67.4,0,123.4,49.6,134.5,114.8
	c17.2,2.3,30.5,17.2,30.5,35.3c0,19.7-15.7,35.6-35.1,35.6c-0.5,0-1,0-1.5,0c-12.9,36.1-40.2,65.6-75.7,80.7
	c-0.3,9.3-7.9,16.8-17.1,16.8c-9.5,0-17.1-7.8-17.1-17.4c0-9.6,7.7-17.4,17.1-17.4C220.2,286.9,224.6,289,227.7,292.2L227.7,292.2z
	 M179.8,207.4c-16,0-30.3-3-42.9-7.9c-4.4-1.7-8.2-3.5-11.4-5.3c-1.9-1.1-3.1-1.8-3.6-2.2c-5.2-3.7-12,1.5-10,7.7
	c9.6,29.6,36.8,50,68,50c31.1,0,58.4-20.4,68-50c2-6.2-4.8-11.4-10-7.7c-0.5,0.4-1.8,1.2-3.6,2.2c-3.2,1.8-7,3.6-11.4,5.3
	C210.1,204.5,195.7,207.4,179.8,207.4L179.8,207.4L179.8,207.4z"/>
</svg>
