<?xml version="1.0" encoding="utf-8"?>
<!-- Generator: Adobe Illustrator 22.0.1, SVG Export Plug-In . SVG Version: 6.00 Build 0)  -->
<svg version="1.0" id="图层_1" xmlns="http://www.w3.org/2000/svg" xmlns:xlink="http://www.w3.org/1999/xlink" x="0px" y="0px"
	 viewBox="0 0 360 360" style="enable-background:new 0 0 360 360;" xml:space="preserve">
<path d="M333.9,318h-2.5V168.9c0-16.6-13.5-30-30-30h-30.3c-5,0-9,8.8-9,13.7c0,5,4,13.7,9,13.7H292c6.6,0,12,5.4,12,12V318h-54.9
	V45.1c0-16.3-13.5-29.6-30-29.6H72.8c-16.5,0-30,13.3-30,29.6V318H24.5c-5,0-9,9.2-9,14.2s4,13.3,9,13.3h312c5,0,9-8.3,9-13.3
	S338.9,318,333.9,318z M124.8,290.9h-26c-0.5,0-1-0.4-1-1v-26c0-0.5,0.4-1,1-1h26c0.3,0,0.6,0.2,0.7,0.3c0.1,0.1,0.3,0.4,0.3,0.7v26
	l0,0C125.7,290.4,125.3,290.9,124.8,290.9z M125.7,193.6c0,0.5-0.4,1-1,1h-26c-0.5,0-1-0.4-1-1v-26c0-0.5,0.4-1,1-1h26
	c0.3,0,0.6,0.2,0.7,0.3s0.3,0.4,0.3,0.7V193.6z M125.7,111.1c0,0.5-0.4,1-1,1h-26c-0.5,0-1-0.4-1-1V84.7c0-0.5,0.4-1,1-1h26
	c0.3,0,0.6,0.2,0.7,0.3s0.3,0.4,0.3,0.7V111.1z M194.6,289.9c0,0.5-0.4,1-1,1h-26c-0.5,0-1-0.4-1-1v-26c0-0.5,0.4-1,1-1h26
	c0.5,0,1,0.4,1,1V289.9z M194.6,193.6c0,0.5-0.4,1-1,1h-26c-0.5,0-1-0.4-1-1v-26c0-0.5,0.4-1,1-1h26c0.5,0,1,0.4,1,1V193.6z
	 M194.6,111.1c0,0.5-0.4,1-1,1h-26c-0.5,0-1-0.4-1-1V84.7c0-0.5,0.4-1,1-1h26c0.5,0,1,0.4,1,1V111.1z"/>
</svg>
