<?xml version="1.0" encoding="utf-8"?>
<!-- Generator: Adobe Illustrator 22.0.1, SVG Export Plug-In . SVG Version: 6.00 Build 0)  -->
<svg version="1.0" id="图层_1" xmlns="http://www.w3.org/2000/svg" xmlns:xlink="http://www.w3.org/1999/xlink" x="0px" y="0px"
	 viewBox="0 0 360 360" style="enable-background:new 0 0 360 360;" xml:space="preserve">
<path d="M15.5,180.5c0,91.3,74.1,165,165,165c91,0,165-74.1,165-165c0-91-74-165-165-165C89.6,15.5,15.5,89.2,15.5,180.5z
	 M189.5,122.3l82.3,82c2.5,2.5,3.6,5.8,3.6,9c0,3.2-1.1,6.5-3.6,9c-5,5-12.9,5-18,0l-73.3-73.3l-72.3,73c-5,5-12.9,5-17.6,0
	c-5-5-5-12.9,0-17.6l81.2-82c2.5-2.5,5.4-3.6,9-3.6C183.7,118.7,187,119.7,189.5,122.3L189.5,122.3z"/>
</svg>
