<?xml version="1.0" encoding="utf-8"?>
<!-- Generator: Adobe Illustrator 22.0.1, SVG Export Plug-In . SVG Version: 6.00 Build 0)  -->
<svg version="1.0" id="图层_1" xmlns="http://www.w3.org/2000/svg" xmlns:xlink="http://www.w3.org/1999/xlink" x="0px" y="0px"
	 viewBox="0 0 360 360" style="enable-background:new 0 0 360 360;" xml:space="preserve">
<path d="M316.8,293.8H44.2c-15.8,0-28.7-12.7-28.7-28.3l0-169.7c0-15.6,12.8-28.3,28.7-28.3l272.6,0c15.8,0,28.7,12.7,28.7,28.3
	v169.7C345.5,281.1,332.6,293.8,316.8,293.8z M95.6,243.5c0,6.9,6.6,12.6,14.8,12.6h140.2c8.2,0,14.8-5.6,14.8-12.6v-12.6
	c0-6.9-6.6-12.6-14.8-12.6l-140.2,0c-8.1,0-14.8,5.6-14.8,12.6V243.5z M90.9,114.6c0-7.8-6.3-14.1-14.1-14.1H62.6
	c-7.8,0-14.1,6.3-14.1,14.1v14.1c0,7.8,6.3,14.1,14.1,14.1h14.1c7.8,0,14.1-6.3,14.1-14.1V114.6z M86.2,157
	c-7.8,0-14.1,6.3-14.1,14.1v14.1c0,7.8,6.3,14.1,14.1,14.1h14.1c7.8,0,14.1-6.3,14.1-14.1v-14.1c0-7.8-6.3-14.1-14.1-14.1H86.2z
	 M147.5,114.6c0-7.8-6.3-14.1-14.1-14.1h-14.1c-7.8,0-14.1,6.3-14.1,14.1v14.1c0,7.8,6.3,14.1,14.1,14.1h14.1
	c7.8,0,14.1-6.3,14.1-14.1V114.6z M142.8,157c-7.8,0-14.1,6.3-14.1,14.1v14.1c0,7.8,6.3,14.1,14.1,14.1h14.1
	c7.8,0,14.1-6.3,14.1-14.1v-14.1c0-7.8-6.3-14.1-14.1-14.1H142.8z M204,114.6c0-7.8-6.3-14.1-14.1-14.1h-14.1
	c-7.8,0-14.1,6.3-14.1,14.1v14.1c0,7.8,6.3,14.1,14.1,14.1h14.1c7.8,0,14.1-6.3,14.1-14.1V114.6z M199.3,157
	c-7.8,0-14.1,6.3-14.1,14.1v14.1c0,7.8,6.3,14.1,14.1,14.1h14.1c7.8,0,14.1-6.3,14.1-14.1v-14.1c0-7.8-6.3-14.1-14.1-14.1H199.3z
	 M260.6,114.6c0-7.8-6.3-14.1-14.1-14.1h-14.1c-7.8,0-14.1,6.3-14.1,14.1v14.1c0,7.8,6.3,14.1,14.1,14.1h14.1
	c7.8,0,14.1-6.3,14.1-14.1V114.6z M255.9,157c-7.8,0-14.1,6.3-14.1,14.1v14.1c0,7.8,6.3,14.1,14.1,14.1H270
	c7.8,0,14.1-6.3,14.1-14.1v-14.1c0-7.8-6.3-14.1-14.1-14.1H255.9z M317.2,114.6c0-7.8-6.3-14.1-14.1-14.1h-14.1
	c-7.8,0-14.1,6.3-14.1,14.1v14.1c0,7.8,6.3,14.1,14.1,14.1H303c7.8,0,14.1-6.3,14.1-14.1V114.6z"/>
</svg>
