<?xml version="1.0" encoding="utf-8"?>
<!-- Generator: Adobe Illustrator 22.0.1, SVG Export Plug-In . SVG Version: 6.00 Build 0)  -->
<svg version="1.0" id="图层_1" xmlns="http://www.w3.org/2000/svg" xmlns:xlink="http://www.w3.org/1999/xlink" x="0px" y="0px"
	 viewBox="0 0 360 360" style="enable-background:new 0 0 360 360;" xml:space="preserve">
<g>
	<g>
		<path d="M336.1,189.6l-49.2-22c-4.6-2.1-10.1,0-12.2,4.6c-2.1,4.6,0,10,4.6,12.1c12.6,5.7,12.3,23.7-0.5,29L186.4,251
			c-3.8,1.6-8.1,1.6-12,0l-92.3-37.6c-12.8-5.2-13.2-23.3-0.5-29l0,0c4.6-2.1,6.7-7.5,4.6-12.1c-2.1-4.6-7.5-6.7-12.2-4.6l-49.3,22
			c-5.7,2.5-9.3,8.2-9.3,14.4v64.8c0,6.4,3.9,12.2,9.8,14.6l149.1,60.8c3.8,1.6,8.1,1.6,12,0l149.3-60.8c6-2.4,9.8-8.2,9.8-14.6
			v-64.7C345.5,197.8,341.8,192.2,336.1,189.6z M128.9,103H142c6,0,10.9,4.9,10.9,10.9v68.2c0,6,4.9,10.9,10.9,10.9h33.5
			c6,0,10.9-4.9,10.9-10.9v-68.3c0-6,4.9-10.9,10.9-10.9h13.2c9.1,0,14.1-10.4,8.5-17.5L189,19.6c-4.4-5.6-12.8-5.6-17.2,0
			l-51.5,65.7C114.7,92.5,119.8,103,128.9,103z"/>
	</g>
</g>
</svg>
