<?xml version="1.0" encoding="utf-8"?>
<!-- Generator: Adobe Illustrator 22.0.1, SVG Export Plug-In . SVG Version: 6.00 Build 0)  -->
<svg version="1.0" id="图层_1" xmlns="http://www.w3.org/2000/svg" xmlns:xlink="http://www.w3.org/1999/xlink" x="0px" y="0px"
	 viewBox="0 0 360 360" style="enable-background:new 0 0 360 360;" xml:space="preserve">
<path d="M179.9,15.3c-91.1,0-165,73.9-165,165c0,91.1,73.9,165,165,165c91.1,0,165-73.9,165-165C344.9,89.2,271,15.3,179.9,15.3z
	 M241.8,200.9h-41.2v41.2c0,11.3-9.3,20.6-20.6,20.6s-20.6-9.3-20.6-20.6v-41.2H118c-11.3,0-20.6-9.3-20.6-20.6
	c0-11.3,9.3-20.6,20.6-20.6h41.2v-41.2c0-11.3,9.3-20.6,20.6-20.6s20.6,9.3,20.6,20.6v41.2h41.2c11.3,0,20.6,9.3,20.6,20.6
	C262.4,191.7,253.1,200.9,241.8,200.9z"/>
</svg>
