<?xml version="1.0" encoding="utf-8"?>
<!-- Generator: Adobe Illustrator 22.0.1, SVG Export Plug-In . SVG Version: 6.00 Build 0)  -->
<svg version="1.0" id="图层_1" xmlns="http://www.w3.org/2000/svg" xmlns:xlink="http://www.w3.org/1999/xlink" x="0px" y="0px"
	 viewBox="0 0 360 360" style="enable-background:new 0 0 360 360;" xml:space="preserve">
<style type="text/css">
	.st0{fill-rule:evenodd;clip-rule:evenodd;}
</style>
<path class="st0" d="M335.4,117.8h-72l-56.3-56.3c7.8-13,5-29.7-6.6-39.6c-11.6-9.8-28.6-9.7-40.1,0.2c-11.5,9.9-14.2,26.7-6.3,39.6
	l-56.1,56.1H25.8c-5.7,0-10.2,4.7-10.2,10.3v206.2c0,5.6,4.6,10.3,10.2,10.3h309.6c5.7,0,10.2-4.7,10.2-10.3V128.1
	C345.6,122.4,341,117.9,335.4,117.8L335.4,117.8z M170.3,74.8c6.7,2.4,14.1,2.3,20.9-0.1l43.1,43.1h-107L170.3,74.8L170.3,74.8z
	 M56.9,179.7H160v20.6H56.9V179.7L56.9,179.7z M221.9,282.8h-165v-20.6h165V282.8L221.9,282.8z M283.8,241.6H56.9v-20.6h226.9V241.6
	L283.8,241.6z"/>
</svg>
