<?xml version="1.0" encoding="utf-8"?>
<!-- Generator: Adobe Illustrator 22.0.1, SVG Export Plug-In . SVG Version: 6.00 Build 0)  -->
<svg version="1.0" id="图层_1" xmlns="http://www.w3.org/2000/svg" xmlns:xlink="http://www.w3.org/1999/xlink" x="0px" y="0px"
	 viewBox="0 0 360 360" style="enable-background:new 0 0 360 360;" xml:space="preserve">
<path d="M306.5,26.4c-7-6.7-16.7-10.9-27.2-10.9H81.7c-10.5,0-20.2,4.2-27.2,10.9C47.4,33.3,43,42.8,43,53.2V333h0
	c0,2.2,0.6,4.4,1.8,6.4c3.5,5.9,11.2,7.8,17.1,4.3l111.3-66.4c2.3-1.4,4.8-2,7.3-2c2.5,0,5,0.7,7.3,2l110.5,65.9
	c2.1,1.4,4.5,2.3,7.2,2.3c6.9,0,12.5-5.6,12.5-12.5V53.2C318,42.8,313.6,33.3,306.5,26.4z M248.9,125.8l-27.2,27.8l6.3,38.5
	c0.6,3.9-1,7.8-4.2,10.1c-1.8,1.2-3.9,1.9-5.9,1.9c-1.7,0-3.4-0.4-5-1.3l-32.4-17.3l-32.4,17.3c-1.6,0.8-3.3,1.3-5,1.3
	c-2.1,0-4.2-0.6-5.9-1.9c-3.2-2.3-4.9-6.2-4.2-10.1l6.3-38.5l-27.2-27.8c-2.7-2.7-3.6-6.8-2.4-10.4c1.2-3.6,4.4-6.3,8.2-6.9
	l37.1-5.6l16.1-34.3c1.7-3.6,5.3-5.9,9.3-5.9c4,0,7.6,2.3,9.3,5.9l16.1,34.3l37.1,5.6c3.8,0.6,7,3.2,8.2,6.9
	C252.6,119,251.6,123.1,248.9,125.8z"/>
</svg>
