<?xml version="1.0" encoding="utf-8"?>
<!-- Generator: Adobe Illustrator 22.0.1, SVG Export Plug-In . SVG Version: 6.00 Build 0)  -->
<svg version="1.0" id="图层_1" xmlns="http://www.w3.org/2000/svg" xmlns:xlink="http://www.w3.org/1999/xlink" x="0px" y="0px"
	 viewBox="0 0 360 360" style="enable-background:new 0 0 360 360;" xml:space="preserve">
<path d="M336.4,158.3L208.8,27.2c-7.1-7-16.5-11.7-28.4-11.7c-11.8,0-21.3,4.7-28.4,11.7L26.7,158.3C12.5,170,14.9,180,17.2,184.6
	c0,4.7,7.1,23.1,21.3,23.1h18.3v114.5c0,12.8,10.6,23.3,23.5,23.3h205.4c10.4,0,18.8-8.3,18.8-18.6V207.7h17.7
	c14.2,0,18.9-18.4,21.3-20.7C345.9,180,348.3,170,336.4,158.3z M264.7,221.3l-50.5,50c-2.3,2.3-5.4,3.4-8.5,3.4
	c-3.1,0-6.2-1.1-8.5-3.4l-42.1-41.7L113,271.3c-4.6,4.6-12.2,4.6-16.8,0c-4.6-4.6-4.6-12.1,0-16.7l50.5-50c2.3-2.3,5.4-3.4,8.4-3.4
	c3.1,0,6.1,1.2,8.4,3.4l42.2,41.8l42.2-41.8c4.6-4.6,12.2-4.6,16.8,0C269.4,209.3,269.4,216.8,264.7,221.3z"/>
</svg>
