<?xml version="1.0" encoding="utf-8"?>
<!-- Generator: Adobe Illustrator 22.0.1, SVG Export Plug-In . SVG Version: 6.00 Build 0)  -->
<svg version="1.0" id="图层_1" xmlns="http://www.w3.org/2000/svg" xmlns:xlink="http://www.w3.org/1999/xlink" x="0px" y="0px"
	 viewBox="0 0 360 360" style="enable-background:new 0 0 360 360;" xml:space="preserve">
<path d="M302.5,131.4h-25.9V47.1c0-14-11.5-25.4-25.5-25.4H41c-14.1,0-25.5,11.4-25.5,25.4v246.6c0,23.6,19.3,44.5,43,44.5h247.2
	c0.7,0,1.5-0.1,2.1-0.3c21.2-2.7,37.6-22.4,37.6-44.1V174.2C345.5,150.6,326.2,131.4,302.5,131.4z M318.2,287.7
	c0,16.2-5.1,22.8-21.4,22.8c-16.3,0-20.2-6.7-20.2-22.8V159.1h20.7c16.3,0,20.9,5,20.9,21.1V287.7L318.2,287.7z M138.8,213.4
	c0,3.7-3,14.5-6.8,14.5H62.9c-3.7,0-6.8-10.7-6.8-14.5s3-13.2,6.8-13.2H132C135.7,200.2,138.8,209.7,138.8,213.4z M138.8,269.6
	c0,3.7-3,13.2-6.8,13.2H62.9c-3.7,0-6.8-9.5-6.8-13.2c0-3.7,3-14,6.8-14H132C135.7,255.6,138.8,265.9,138.8,269.6z M235.2,213.6
	c0,3.7-3,14.5-6.8,14.5h-69.1c-3.7,0-6.8-10.7-6.8-14.5s3-13.2,6.8-13.2h69.1C232.1,200.4,235.2,209.8,235.2,213.6L235.2,213.6z
	 M235.2,269.6c0,3.7-3,13.2-6.8,13.2h-69.1c-3.7,0-6.8-9.5-6.8-13.2c0-3.7,3-14,6.8-14h69.1C232.1,255.6,235.2,265.9,235.2,269.6
	L235.2,269.6z M225.2,157.3c-1.3,1.5-3.2,2.4-5.2,2.4c-1.5,0-3.1-0.5-4.4-1.6l-34.6-28.8L167,143.1l5.1,5.1c2.6,2.6,2.6,6.9,0,9.5
	c-2.6,2.6-6.9,2.6-9.6,0l-47.6-47.3l-41.4,47c-1.3,1.5-3.1,2.3-5.1,2.3c-1.6,0-3.2-0.6-4.5-1.7c-2.8-2.4-3.1-6.7-0.6-9.5l46.1-52.4
	c1.2-1.4,3-2.2,4.9-2.3c1.9-0.1,3.7,0.7,5,2l38.1,37.8l18.5-18.2c2.5-2.4,6.4-2.6,9.1-0.4l39.3,32.7
	C227.3,150.2,227.7,154.4,225.2,157.3L225.2,157.3z"/>
</svg>
