<?xml version="1.0" encoding="utf-8"?>
<!-- Generator: Adobe Illustrator 22.0.1, SVG Export Plug-In . SVG Version: 6.00 Build 0)  -->
<svg version="1.0" id="图层_1" xmlns="http://www.w3.org/2000/svg" xmlns:xlink="http://www.w3.org/1999/xlink" x="0px" y="0px"
	 viewBox="0 0 360 360" style="enable-background:new 0 0 360 360;" xml:space="preserve">
<path d="M321.4,306.9h-21.6v-19.3H61v19.3H40.1v18.5h-16v19.3h312.6v-19.3h-15.3L321.4,306.9L321.4,306.9z M112.5,272.1v-96.4h10.4
	V163c0-7.7-5.9-14-13.2-14H63.7c-7.3,0-13.2,6.3-13.2,14v12.7h11.2v96.4H112.5z M299.7,272.1v-96.4h11.1V163c0-7.7-5.9-14-13.2-14
	h-46c-7.3,0-13.2,6.3-13.2,14v12.7h11.1v96.4H299.7z M205.8,272.1v-96.4h11.2V163c0-7.7-5.9-14-13.2-14h-46.1
	c-7.3,0-13.2,6.3-13.2,14v12.7H155v96.4H205.8z M191.4,18c-7.5-4.4-16.6-4.4-24.1,0L28.8,99.6c-9,5.3-14.5,15.3-14.5,26.1v9.1h330
	v-9.1c0-10.8-5.6-20.9-14.5-26.1L191.4,18z"/>
</svg>
