<?xml version="1.0" encoding="utf-8"?>
<!-- Generator: Adobe Illustrator 22.0.1, SVG Export Plug-In . SVG Version: 6.00 Build 0)  -->
<svg version="1.0" id="图层_1" xmlns="http://www.w3.org/2000/svg" xmlns:xlink="http://www.w3.org/1999/xlink" x="0px" y="0px"
	 viewBox="0 0 360 360" style="enable-background:new 0 0 360 360;" xml:space="preserve">
<path d="M308.7,283.9V56.8c0-11.2-9.7-20.6-21.6-20.6H71.7v-1.6c0-10.5,9.8-19,21.6-19h215.4c11.9,0,21.6,8.7,21.6,19v230.4
	C330.3,275.4,320.5,283.9,308.7,283.9L308.7,283.9z M286.9,76.9V325c0,11.3-9.8,20.5-21.6,20.5H49.9c-11.9,0-21.6-9.4-21.6-20.5
	V76.9c0-11.3,9.8-20.5,21.6-20.5h215.4C277.2,56.5,286.9,65.9,286.9,76.9z M166,131.9L87.5,233.9c-1.3,1.7-3,4.8-3.7,6.8l-12,80.7
	c-0.7,2.1,0,2.7,1.8,1.5l68.7-31.2c1.7-1.2,4.2-3.6,5.5-5.3L226.6,184c1.3-1.7,1.1-4.2-0.5-5.6l-54.8-47c-0.6-0.6-1.5-0.9-2.4-0.9
	C167.8,130.5,166.7,131,166,131.9L166,131.9z M209.4,82.4c-0.6-0.6-1.5-0.9-2.4-0.9c-1.2,0-2.2,0.6-2.9,1.5l-19,24.6
	c-0.5,0.7-0.9,1.6-0.9,2.5c0,1.2,0.5,2.3,1.4,3.1l54.8,47c0.6,0.6,1.5,0.9,2.4,0.9c1.2,0,2.2-0.6,2.9-1.5l19-24.6
	c1.3-1.7,1.1-4.2-0.5-5.6L209.4,82.4L209.4,82.4z"/>
</svg>
