<?xml version="1.0" encoding="utf-8"?>
<!-- Generator: Adobe Illustrator 22.0.1, SVG Export Plug-In . SVG Version: 6.00 Build 0)  -->
<svg version="1.0" id="图层_1" xmlns="http://www.w3.org/2000/svg" xmlns:xlink="http://www.w3.org/1999/xlink" x="0px" y="0px"
	 viewBox="0 0 360 360" style="enable-background:new 0 0 360 360;" xml:space="preserve">
<style type="text/css">
	.st0{fill-rule:evenodd;clip-rule:evenodd;}
</style>
<g>
	<path class="st0" d="M179.9,14.6c-91.1,0-165,73.9-165,165s73.9,165,165,165s165-73.9,165-165S271,14.6,179.9,14.6z M179.9,321.1
		c-78.1,0-141.4-63.3-141.4-141.4c0-78.1,63.3-141.4,141.4-141.4s141.4,63.3,141.4,141.4C321.3,257.7,258,321.1,179.9,321.1z"/>
	<path class="st0" d="M246.5,113c-4.6-4.6-12.1-4.6-16.7,0l-50,50l-50-50c-4.6-4.6-12.1-4.6-16.7,0c-4.6,4.6-4.6,12.1,0,16.7l50,50
		l-50,50c-4.6,4.6-4.6,12.1,0,16.7c4.6,4.6,12.1,4.6,16.7,0l50-50l50,50c4.6,4.6,12.1,4.6,16.7,0c4.6-4.6,4.6-12.1,0-16.7l-50-50
		l50-50C251.1,125,251.1,117.5,246.5,113z"/>
</g>
</svg>
