<?xml version="1.0" encoding="utf-8"?>
<!-- Generator: Adobe Illustrator 22.0.1, SVG Export Plug-In . SVG Version: 6.00 Build 0)  -->
<svg version="1.0" id="图层_1" xmlns="http://www.w3.org/2000/svg" xmlns:xlink="http://www.w3.org/1999/xlink" x="0px" y="0px"
	 viewBox="0 0 360 360" style="enable-background:new 0 0 360 360;" xml:space="preserve">
<g>
	<path d="M180.2,15c-91.1,0-165,73.9-165,165s73.9,165,165,165s165-73.9,165-165S271.3,15,180.2,15z M180.2,321.5
		c-78.1,0-141.4-63.3-141.4-141.4c0-78.1,63.3-141.4,141.4-141.4S321.6,101.9,321.6,180C321.6,258.1,258.3,321.5,180.2,321.5z"/>
	<path d="M182.5,102.8c-15.6,0-27.9,4.5-37.1,13.4c-9.2,8.8-13.8,21.1-13.8,36.9h24.2c0-9.1,1.8-16,5.3-20.8
		c4-5.8,10.6-8.7,19.9-8.7c7.4,0,13,2,17,5.9c4,4.2,5.9,9.8,5.9,16.5c0,5.4-1.9,10.4-5.7,15.1l-2.5,3
		c-13.9,12.3-22.1,21.3-24.8,26.9c-2.8,5.5-4.2,12.4-4.2,20.8v3H191v-3c0-4.9,1.1-9.6,3.2-13.8c2-4.1,4.8-7.6,8.5-10.6
		c9.9-8.6,16-14.2,18.2-16.8c5.2-6.9,7.8-15.6,7.8-26.1c0-13-4.2-23.2-12.7-30.5C207.7,106.6,196.5,102.8,182.5,102.8z"/>
	<path d="M178.7,225.2c-4.5,0-8.4,1.5-11.7,4.5c-3.1,3-4.7,6.8-4.7,11.5c0,4.7,1.6,8.5,4.7,11.5c3.4,3.1,7.3,4.7,11.7,4.7
		c4.7,0,8.6-1.5,11.7-4.5c3.2-3,4.9-6.9,4.9-11.7c0-4.5-1.6-8.3-4.7-11.5C187.5,226.7,183.5,225.2,178.7,225.2z"/>
</g>
</svg>
