<?xml version="1.0" encoding="utf-8"?>
<!-- Generator: Adobe Illustrator 22.0.1, SVG Export Plug-In . SVG Version: 6.00 Build 0)  -->
<svg version="1.0" id="图层_1" xmlns="http://www.w3.org/2000/svg" xmlns:xlink="http://www.w3.org/1999/xlink" x="0px" y="0px"
	 viewBox="0 0 360 360" style="enable-background:new 0 0 360 360;" xml:space="preserve">
<g>
	<path d="M180.3,15.3c-91.1,0-165,73.9-165,165s73.9,165,165,165s165-73.9,165-165S271.5,15.3,180.3,15.3z M180.3,321.7
		c-78.1,0-141.4-63.3-141.4-141.4c0-78.1,63.3-141.4,141.4-141.4s141.4,63.3,141.4,141.4C321.8,258.4,258.5,321.7,180.3,321.7z"/>
	<path d="M255.3,113.6L147,221.9l-41.7-41.7c-4.6-4.6-12.1-4.6-16.7,0c-4.6,4.6-4.6,12.1,0,16.7l50,50c4.6,4.6,12.1,4.6,16.7,0
		L272,130.2c4.6-4.6,4.6-12.1,0-16.7C267.4,109,259.9,109,255.3,113.6z"/>
</g>
</svg>
