<?xml version="1.0" encoding="utf-8"?>
<!-- Generator: Adobe Illustrator 22.0.1, SVG Export Plug-In . SVG Version: 6.00 Build 0)  -->
<svg version="1.0" id="图层_1" xmlns="http://www.w3.org/2000/svg" xmlns:xlink="http://www.w3.org/1999/xlink" x="0px" y="0px"
	 viewBox="0 0 360 360" style="enable-background:new 0 0 360 360;" xml:space="preserve">
<g>
	<g>
		<path d="M180.5,239.6c-9.4,0-16.9,7.6-16.9,16.9c0,9.4,7.6,16.9,16.9,16.9c9.4,0,16.9-7.6,16.9-16.9
			C197.4,247.1,189.9,239.6,180.5,239.6z M180.5,217.2c7.8,0,14.2-6.4,14.2-14.2V96.9c0-7.8-6.4-14.2-14.2-14.2
			c-7.8,0-14.2,6.4-14.2,14.2V203C166.3,210.8,172.7,217.2,180.5,217.2z M180.5,15.5c-91.1,0-165,73.9-165,165
			c0,91.1,73.9,165,165,165c91.1,0,165-73.9,165-165S271.6,15.5,180.5,15.5z M180.5,323.5c-78.9,0-143-64.1-143-143
			c0-78.9,64.1-143,143-143c78.8,0,143,64.2,143,143C323.5,259.4,259.4,323.5,180.5,323.5z"/>
	</g>
</g>
</svg>
