<?xml version="1.0" encoding="utf-8"?>
<!-- Generator: Adobe Illustrator 22.0.1, SVG Export Plug-In . SVG Version: 6.00 Build 0)  -->
<svg version="1.0" id="图层_1" xmlns="http://www.w3.org/2000/svg" xmlns:xlink="http://www.w3.org/1999/xlink" x="0px" y="0px"
	 viewBox="0 0 360 360" style="enable-background:new 0 0 360 360;" xml:space="preserve">
<style type="text/css">
	.st0{fill-rule:evenodd;clip-rule:evenodd;}
</style>
<path class="st0" d="M340.9,316.3L340.9,316.3L340.9,316.3L340.9,316.3c3,3.4,4.5,7.2,4.5,11.4c0,4.7-1.7,8.7-5.1,12
	c-3.2,3.2-7.7,5-12.3,5c-2,0-4-0.3-5.9-0.9c-1.9-0.6-3.6-1.5-5.1-2.8l-1.9-1.5l-93.6-91.7C199.1,263.3,174,271,146.2,271
	c-2.8,0-5.6-0.1-8.5-0.4c-2.9-0.2-5.7-0.6-8.5-1.1c-19.2-2.1-37.7-8.7-53.8-19.2c-17.7-11-31.8-25.6-42.4-43.8
	c-5.1-8.5-9.1-17.5-11.9-26.9c-2.9-9.5-4.7-19.2-5.3-29.1c-0.6-9.9-0.1-19.7,1.7-29.5c2.5-15.7,8.2-30.8,16.7-44.4
	c8.4-13.7,19.5-25.6,32.6-35.2C77.8,33,90.2,26.3,104,21.7c13.6-4.6,27.8-7,42.2-7c6.1,0,11.9,0.4,17.4,1.1
	c14.9,2,29.2,6.4,42.8,13.3c13.4,6.7,25.5,15.7,35.6,26.5c11.9,12,20.9,26.3,27.1,42.7c6.2,16.5,8.9,33.1,8.1,50.1
	c-1,28.2-11,53.7-29.9,76.2l93.9,91.7H340.9L340.9,316.3z M257.6,148c0.8-15.1-1.8-30.2-7.6-44.2c-3.3-8.6-7.8-16.8-13.3-24.3
	c-5.6-7.6-12.1-14.4-19.5-20.4c-7.3-6-15.4-11-24.1-14.9c-18.4-8.3-38.9-11.5-59.1-9.2c-1.1,0-2.3,0.1-3.4,0.4l-2.3,0.4
	c-16.1,2.4-31.5,8.4-44.9,17.5C70.1,62,58.9,73.8,50.8,87.6c-9.3,15-14.4,31.7-15.3,50.1c-0.9,18.4,2.6,35.5,10.4,51.2
	c6.5,14.2,16.3,26.8,28.6,36.8c12.1,10.1,26.4,17.6,41.9,21.7c16.2,4.4,32.5,5.3,48.9,2.6c8.6-1.5,17-3.9,25-7.4
	c8-3.4,15.5-7.6,22.5-12.7c7-5.1,13.3-10.9,18.9-17.3c5.7-6.5,10.4-13.6,14.2-21.2v0C252.9,178,256.9,163.1,257.6,148L257.6,148z"/>
</svg>
