<?xml version="1.0" encoding="utf-8"?>
<!-- Generator: Adobe Illustrator 22.0.1, SVG Export Plug-In . SVG Version: 6.00 Build 0)  -->
<svg version="1.0" id="图层_1" xmlns="http://www.w3.org/2000/svg" xmlns:xlink="http://www.w3.org/1999/xlink" x="0px" y="0px"
	 viewBox="0 0 360 360" style="enable-background:new 0 0 360 360;" xml:space="preserve">
<path d="M162.8,269.7c0-9.8,7.9-17.7,17.7-17.7c9.8,0,17.7,7.9,17.7,17.7c0,9.8-7.9,17.7-17.7,17.7
	C170.7,287.4,162.8,279.5,162.8,269.7L162.8,269.7z M180.5,345.5c-91,0-165-74-165-165c0-91,74-165,165-165s165,74,165,165
	C345.5,271.5,271.5,345.5,180.5,345.5L180.5,345.5z M180.5,39.1c-77.9,0-141.3,63.4-141.3,141.3c0,77.9,63.4,141.3,141.3,141.3
	c77.9,0,141.3-63.4,141.3-141.3C321.8,102.5,258.4,39.1,180.5,39.1L180.5,39.1z M180.5,240c-6.5,0-11.8-5.3-11.8-11.8v-19.9
	c0-19.3,14.7-34,27.7-47c9.5-9.5,19.4-19.4,19.4-27.3c0-19.6-15.9-35.6-35.4-35.6c-19.8,0-35.4,15.3-35.4,34.8
	c0,6.5-5.3,11.8-11.8,11.8c-6.5,0-11.8-5.3-11.8-11.8c0-32.2,26.4-58.4,58.9-58.4s58.9,26.6,58.9,59.2c0,17.6-13.4,31-26.3,43.9
	c-10.3,10.2-20.8,20.8-20.8,30.3v19.9C192.3,234.7,187,240,180.5,240L180.5,240z"/>
</svg>
