<?xml version="1.0" encoding="utf-8"?>
<!-- Generator: Adobe Illustrator 22.0.1, SVG Export Plug-In . SVG Version: 6.00 Build 0)  -->
<svg version="1.0" id="图层_1" xmlns="http://www.w3.org/2000/svg" xmlns:xlink="http://www.w3.org/1999/xlink" x="0px" y="0px"
	 viewBox="0 0 360 360" style="enable-background:new 0 0 360 360;" xml:space="preserve">
<style type="text/css">
	.st0{fill-rule:evenodd;clip-rule:evenodd;}
</style>
<path class="st0" d="M325.1,222.1v65.2c0,31.5-25.3,57.1-56.5,57.1H92.4c-31.2,0-56.5-25.6-56.5-57.1l0.6-173.2
	C36.5,82.6,61.2,57,92.4,57h26.3v19.5H94.1c-20.8,0-37.7,17-37.7,38.1v172.9c0,21,16.9,38.1,37.7,38.1h172.7
	c20.8,0,37.7-17,37.7-38.1v-65.4H325.1L325.1,222.1z M319.6,99.1c6.7,6.7,6.7,17.8,0,24.5l-80.1,80.8c-6.7,6.7-12.2,4.5-12.2-5.1
	v-60.7c-17.7-0.7-78.8,4.4-92.6,89.7c-16.2-45.7,10.2-144.2,92.6-152V23.4c0-9.5,5.5-11.8,12.2-5.1L319.6,99.1L319.6,99.1
	L319.6,99.1z"/>
</svg>
