<?xml version="1.0" encoding="utf-8"?>
<!-- Generator: Adobe Illustrator 22.0.1, SVG Export Plug-In . SVG Version: 6.00 Build 0)  -->
<svg version="1.0" id="图层_1" xmlns="http://www.w3.org/2000/svg" xmlns:xlink="http://www.w3.org/1999/xlink" x="0px" y="0px"
	 viewBox="0 0 360 360" style="enable-background:new 0 0 360 360;" xml:space="preserve">
<g>
	<g>
		<path d="M339.2,100.5c-4.7-1.8-10,0.5-11.9,5.1l-8.5,21.2c-12-28.3-32.5-52.3-59.5-68.8c-34.1-20.9-74.5-27.5-113.6-18.5
			C90.3,52.1,47.3,93.8,33.5,148.3c-1.2,4.8,1.8,9.7,6.7,10.9c4.9,1.1,9.9-1.7,11.1-6.6c12.1-47.8,49.9-84.5,98.6-95.6
			c34.4-7.8,69.8-2.1,99.8,16.3c24.7,15.1,43.2,37.3,53.5,63.5l-25.5-9.9c-4.7-1.8-10,0.4-11.9,5.1c-1.9,4.6,0.4,9.9,5.2,11.7
			l40.9,15.9c1.6,1.3,3.7,2.1,5.9,2.1c0.7,0,1.4-0.1,2.1-0.2c0.1,0,0.3-0.1,0.4-0.1c0.7-0.1,1.3-0.3,2-0.6c2.2-0.9,4-2.7,4.9-5
			l17.4-43.5C346.2,107.6,343.9,102.3,339.2,100.5z M319.8,201c-4.9-1.2-9.9,1.7-11.1,6.6c-12.1,47.9-49.9,84.5-98.6,95.6
			c-34.4,7.9-69.8,2.1-99.8-16.3c-24.7-15.1-43.2-37.3-53.5-63.5l25.5,9.9c4.7,1.8,10-0.4,11.9-5.1c1.9-4.6-0.4-9.9-5.2-11.7
			l-40.9-15.9c-2.1-1.7-5-2.5-7.9-1.9c-0.1,0-0.3,0.1-0.4,0.1c-0.7,0.1-1.3,0.3-2,0.6c-2.2,1-4,2.7-4.9,5L15.6,248
			c-1.9,4.6,0.5,9.8,5.2,11.7c1.1,0.4,2.2,0.6,3.3,0.6c3.7,0,7.1-2.2,8.5-5.7l8.5-21.2c12,28.3,32.5,52.3,59.5,68.8
			c24.2,14.8,51.5,22.4,79.3,22.4c11.4,0,22.9-1.3,34.3-3.9c55.5-12.7,98.5-54.4,112.2-108.8C327.7,207.1,324.8,202.2,319.8,201z"/>
	</g>
</g>
</svg>
