<?xml version="1.0" encoding="utf-8"?>
<!-- Generator: Adobe Illustrator 22.0.1, SVG Export Plug-In . SVG Version: 6.00 Build 0)  -->
<svg version="1.0" id="图层_1" xmlns="http://www.w3.org/2000/svg" xmlns:xlink="http://www.w3.org/1999/xlink" x="0px" y="0px"
	 viewBox="0 0 360 360" style="enable-background:new 0 0 360 360;" xml:space="preserve">
<style type="text/css">
	.st0{fill-rule:evenodd;clip-rule:evenodd;}
</style>
<path class="st0" d="M303.3,77h-20.6V14.5H76.4V77H55.8C33,77,14.5,95.5,14.5,118.2V262h61.9v82.5h206.2V262h61.9V118.2
	C344.5,95.5,326,77,303.3,77L303.3,77z M97,35.1h165V77H97V35.1L97,35.1z M262,323.8H97V220.7h165V323.8L262,323.8z M189.8,138.2
	H85.4c-5.7,0-10.3,4.6-10.3,10.3c0,5.7,4.6,10.3,10.3,10.3h104.4c5.7,0,10.3-4.6,10.3-10.3C200.2,142.8,195.5,138.2,189.8,138.2
	L189.8,138.2z"/>
</svg>
