<?xml version="1.0" encoding="utf-8"?>
<!-- Generator: Adobe Illustrator 22.0.1, SVG Export Plug-In . SVG Version: 6.00 Build 0)  -->
<svg version="1.0" id="图层_1" xmlns="http://www.w3.org/2000/svg" xmlns:xlink="http://www.w3.org/1999/xlink" x="0px" y="0px"
	 viewBox="0 0 360 360" style="enable-background:new 0 0 360 360;" xml:space="preserve">
<path d="M308.7,58.9H50.4c-19.8,0-35.9,16.5-35.9,36.9v161.3c0,20.4,16.1,36.9,35.9,36.9h258.3c19.8,0,35.8-16.6,35.8-36.9V95.8
	C344.5,75.5,328.4,58.9,308.7,58.9z M183.4,195.1c-0.2,0.1-0.4,0.3-0.7,0.4c-0.1,0-0.1,0.1-0.2,0.1c-0.4,0.2-0.9,0.4-1.3,0.5
	c-0.1,0-0.2,0-0.3,0.1c-0.5,0.1-0.9,0.2-1.4,0.2c0,0,0,0,0,0l0,0c-0.5,0-0.9-0.1-1.4-0.2c-0.1,0-0.2,0-0.3-0.1
	c-0.5-0.1-0.9-0.3-1.3-0.5c-0.1,0-0.1-0.1-0.2-0.1c-0.2-0.1-0.5-0.3-0.7-0.4L29.9,94.2c1.7-4.4,4.7-8,8.4-10.6l141.3,97.9
	l141.3-97.9c3.7,2.6,6.6,6.2,8.4,10.6L183.4,195.1z"/>
</svg>
