<?xml version="1.0" encoding="utf-8"?>
<!-- Generator: Adobe Illustrator 22.0.1, SVG Export Plug-In . SVG Version: 6.00 Build 0)  -->
<svg version="1.0" id="图层_1" xmlns="http://www.w3.org/2000/svg" xmlns:xlink="http://www.w3.org/1999/xlink" x="0px" y="0px"
	 viewBox="0 0 360 360" style="enable-background:new 0 0 360 360;" xml:space="preserve">
<style type="text/css">
	.st0{fill-rule:evenodd;clip-rule:evenodd;}
</style>
<path class="st0" d="M343.3,157c-1.3-7.1-8.2-14.4-15.4-16l-5.4-1.2c-12.6-3.8-23.8-12.1-30.9-24.3c-7.1-12.3-8.8-26.2-5.7-39l0,0
	l1.7-5c2.1-6.9-0.6-16.5-6.3-21.3c0,0-5-4.2-19.3-12.4c-14.2-8.1-20.4-10.3-20.4-10.3c-6.9-2.5-16.6-0.1-21.7,5.2l-3.8,4
	c-9.6,9-22.4,14.5-36.7,14.5c-14.2,0-27.2-5.5-36.8-14.6l-3.6-3.9c-5-5.3-14.8-7.7-21.7-5.2c0,0-6.2,2.2-20.4,10.3
	C82.7,46,77.8,50.3,77.8,50.3c-5.6,4.7-8.4,14.2-6.3,21.2l1.6,5.1c3,12.8,1.4,26.7-5.7,38.9c-7.1,12.3-18.4,20.6-31.1,24.3l-5.2,1.2
	c-7.1,1.6-14.1,8.8-15.4,16c0,0-1.2,6.4-1.2,22.7s1.2,22.7,1.2,22.7c1.3,7.2,8.2,14.4,15.4,16l5,1.2l0,0
	c12.7,3.7,24.1,12.1,31.2,24.4c7.1,12.3,8.8,26.2,5.7,39l0,0l-1.5,4.9c-2.1,6.9,0.6,16.5,6.3,21.3c0,0,5,4.2,19.3,12.4
	c14.2,8.2,20.4,10.3,20.4,10.3c6.9,2.5,16.6,0.1,21.7-5.2l3.6-3.8c9.6-9.1,22.6-14.6,36.9-14.6c14.3,0,27.3,5.6,36.9,14.6l0,0
	l3.6,3.8c5,5.3,14.7,7.7,21.7,5.2c0,0,6.2-2.2,20.4-10.3c14.2-8.2,19.2-12.4,19.2-12.4c5.6-4.7,8.4-14.3,6.3-21.3l-1.6-5.1
	c-3-12.7-1.4-26.6,5.7-38.8c7.1-12.3,18.5-20.7,31.2-24.4l0,0l5-1.2c7.1-1.6,14.1-8.8,15.4-16c0,0,1.2-6.4,1.2-22.7
	C344.4,163.4,343.3,157,343.3,157L343.3,157 M179.5,245c-36.3,0-65.8-29.2-65.8-65.3c0-36,29.4-65.3,65.8-65.3
	c36.3,0,65.8,29.2,65.8,65.3C245.3,215.8,215.8,245,179.5,245L179.5,245 M179.5,245"/>
</svg>
