<?xml version="1.0" encoding="utf-8"?>
<!-- Generator: Adobe Illustrator 22.0.1, SVG Export Plug-In . SVG Version: 6.00 Build 0)  -->
<svg version="1.0" id="图层_1" xmlns="http://www.w3.org/2000/svg" xmlns:xlink="http://www.w3.org/1999/xlink" x="0px" y="0px"
	 viewBox="0 0 360 360" style="enable-background:new 0 0 360 360;" xml:space="preserve">
<style type="text/css">
	.st0{fill-rule:evenodd;clip-rule:evenodd;}
</style>
<path class="st0" d="M219.2,180L336.9,62.3c10.8-10.8,10.8-28.4,0-39.2c-10.8-10.8-28.4-10.8-39.2,0L180,140.8L62.3,23.1
	c-10.8-10.8-28.4-10.8-39.2,0s-10.8,28.4,0,39.2L140.8,180L23.1,297.7c-10.8,10.8-10.8,28.4,0,39.2c10.8,10.8,28.4,10.8,39.2,0
	L180,219.2l117.7,117.7c10.8,10.8,28.4,10.8,39.2,0c10.8-10.8,10.8-28.4,0-39.2L219.2,180z"/>
</svg>
