<?xml version="1.0" encoding="utf-8"?>
<!-- Generator: Adobe Illustrator 22.0.1, SVG Export Plug-In . SVG Version: 6.00 Build 0)  -->
<svg version="1.0" id="图层_1" xmlns="http://www.w3.org/2000/svg" xmlns:xlink="http://www.w3.org/1999/xlink" x="0px" y="0px"
	 viewBox="0 0 360 360" style="enable-background:new 0 0 360 360;" xml:space="preserve">
<path d="M345.3,79.2c0-7-5.6-12.4-12.2-12.4h-34c0-1,0-1.7,0-2.3c0-7.7-0.3-18.9-1-27.6c-0.3-6.7-5.9-11.7-12.2-11.7H74.2
	c-6.3,0-11.6,5-12.2,11.7c-0.7,9.4-1,19.6-1,27c0,0.7,0,1.7,0,2.3h-33c-6.6,0-12.2,5.7-12.2,12.4C13.1,132.4,35.9,188.7,92,199.7
	c0.7,0.3,1.3,0.3,2,0.3c8.3,14.4,17.8,26.8,28.1,36.5c14.2,13,31.3,21.1,47.8,23.7v0.3v0.3v53.3h-49.2c-6.6,0-12.2,3.8-12.2,10.8
	c0,6.4,4.6,9.1,10.9,9.8h0.3h119.9c6.6,0,12.2-3.1,12.2-10.1c0-7-5.6-10.8-12.2-10.8h-49.2v-53.7l0,0v-0.3l0,0
	c16.5-2.7,33.6-10.7,47.8-23.7c10.6-9.7,19.8-21.7,28.1-36.5c1,0,2,0,3-0.3C325.5,188.7,347.9,133.1,345.3,79.2L345.3,79.2z M35,89
	v-0.3h27.3c2.6,29.1,8.3,56.2,17.5,80.9C59.6,158.6,35.6,131.2,35,89L35,89z M269.3,128.5c-5,20.7-11.9,39.5-20.5,55.5
	c-8.9,16.1-18.8,28.8-30.1,37.8c-11.6,9.4-25.7,14-38.3,14c-12.5,0-28.6-4.7-40.2-14c-11.2-9-21.5-21.7-30.1-37.8
	c-8.9-16.1-15.9-34.8-20.5-55.5c-5-21.4-7.6-49.9-7.6-73c0-3.3,0-7,0.3-10.7h195c0,3.7,0.3,7.4,0.3,10.7
	C276.9,78.6,274.2,106.8,269.3,128.5L269.3,128.5z M280.2,170c5.9-16.1,10.6-33.1,13.9-51.2c0,0,0.7-3.3,0.7-4
	c1.3-8,2.3-16.4,3-24.7l0,0v-1h27C324.7,131.5,301,159.3,280.2,170L280.2,170z"/>
</svg>
