<?xml version="1.0" encoding="utf-8"?>
<!-- Generator: Adobe Illustrator 22.0.1, SVG Export Plug-In . SVG Version: 6.00 Build 0)  -->
<svg version="1.0" id="图层_1" xmlns="http://www.w3.org/2000/svg" xmlns:xlink="http://www.w3.org/1999/xlink" x="0px" y="0px"
	 viewBox="0 0 360 360" style="enable-background:new 0 0 360 360;" xml:space="preserve">
<path d="M180,14.6c-91.1,0-165,73.9-165,165c0,91.1,73.9,165,165,165s165-73.9,165-165C345,88.4,271.1,14.6,180,14.6z M180,322.6
	c-79,0-143-64-143-143s64-143,143-143s143,64,143,143S258.9,322.6,180,322.6z"/>
<g>
	<path d="M170.6,147.3h-63.4v-18H170c-2.5-7.3-5.7-15.2-9.7-23.8l18-4.9c4.1,10.2,7.3,19.8,9.7,28.7h64.8v18h-63.5v34.7h54.9v17.4
		h-54.9v41.2h69.5v18H101.2v-18h69.4v-41.2h-54.7v-17.4h54.7V147.3z"/>
</g>
</svg>
