<?xml version="1.0" encoding="utf-8"?>
<!-- Generator: Adobe Illustrator 22.0.1, SVG Export Plug-In . SVG Version: 6.00 Build 0)  -->
<svg version="1.0" id="图层_1" xmlns="http://www.w3.org/2000/svg" xmlns:xlink="http://www.w3.org/1999/xlink" x="0px" y="0px"
	 viewBox="0 0 360 360" style="enable-background:new 0 0 360 360;" xml:space="preserve">
<g>
	<path d="M179.9,14.8c-91.1,0-165,73.9-165,165s73.9,165,165,165s165-73.9,165-165S271,14.8,179.9,14.8z M179.9,326.4
		c-81,0-146.7-65.7-146.7-146.7S98.9,33.1,179.9,33.1s146.7,65.7,146.7,146.7S260.9,326.4,179.9,326.4z"/>
	<path d="M149.5,286H166v-12.9h89.2V286h16.5v-78.6H149.5V286z M166,222h89.2v36.5H166V222z"/>
	<path d="M120.7,74c-10.6,37.8-26.4,72.3-47.5,103.6c2.4,5.7,4.8,11.6,7.1,17.6c7.3-9.6,14.3-20.2,20.8-31.7V286h15.9V132
		c7.4-16.3,14.2-34,20.4-53.3L120.7,74z"/>
	<rect x="147.1" y="172.6" width="126.8" height="14.6"/>
	<rect x="147.1" y="138" width="126.8" height="14.6"/>
	<path d="M212.3,103l9.3-4.9c-5-8.6-10.1-16.8-15.3-24.5L192,81.1c4.7,7.2,9.1,14.5,13.4,21.9h-70.1v15h151.2v-15H212.3z"/>
</g>
</svg>
