<?xml version="1.0" encoding="utf-8"?>
<!-- Generator: Adobe Illustrator 22.0.1, SVG Export Plug-In . SVG Version: 6.00 Build 0)  -->
<svg version="1.0" id="图层_1" xmlns="http://www.w3.org/2000/svg" xmlns:xlink="http://www.w3.org/1999/xlink" x="0px" y="0px"
	 viewBox="0 0 360 360" style="enable-background:new 0 0 360 360;" xml:space="preserve">
<path d="M301.6,344.5H63.2c-11.9,0-24.3-5.2-33.7-14.6c-9.4-9.4-15-21.5-15-33.4V57.4c0-12.3,5.8-23.7,16-31.6
	c8.9-7,20.7-11,32.7-11h124.9c6.3,0,11.3,5.1,11.3,11.4c0,6.3-5.1,11.4-11.3,11.4H63.2c-12.3,0-25.9,7.8-25.9,19.9v239.2
	c0,12.4,13.4,25.2,25.9,25.2h238.4c12.1,0,19.2-12.9,19.2-25.2V173.2c0-6.3,5.1-11.3,11.4-11.3c6.3,0,11.4,5.1,11.4,11.3v123.4
	c0,12-3.7,23.4-10.7,32.3C324.9,339.1,313.9,344.5,301.6,344.5z M178.4,195c-3.7,0-7.4-1.4-10.2-4.2c-5.6-5.6-5.6-14.7,0-20.3
	L320,18.7c5.6-5.6,14.7-5.6,20.3,0s5.6,14.7,0,20.3L188.5,190.8C185.7,193.6,182,195,178.4,195z"/>
</svg>
