<?xml version="1.0" encoding="utf-8"?>
<!-- Generator: Adobe Illustrator 22.0.1, SVG Export Plug-In . SVG Version: 6.00 Build 0)  -->
<svg version="1.0" id="图层_1" xmlns="http://www.w3.org/2000/svg" xmlns:xlink="http://www.w3.org/1999/xlink" x="0px" y="0px"
	 viewBox="0 0 360 360" style="enable-background:new 0 0 360 360;" xml:space="preserve">
<g>
	<g>
		<path d="M320.5,163.5c-4.7,0-11.2,3.7-11.2,8.2c0,0,0,0.1,0,0.1h0V308c0,9.1-7.7,16.5-17.2,16.5H57.9c-9.5,0-17.2-7.4-17.2-16.5
			V52.8c0-9.1,7.7-16.5,17.2-16.5h133.5c0,0,8.6-1.3,8.6-9.3c0-6-3.9-11-8.6-11v0H54.7c-18.9,0-34.4,14.8-34.4,33v263.6
			c0,18.2,15.4,33,34.4,33h240c18.9,0,34.3-14.8,34.3-33V172.4c0-0.2,0-0.5,0-0.7C329.1,167.2,325.3,163.5,320.5,163.5z M338.2,20.6
			c-10.1-9.7-22.5-4.5-32.6,5.1l-2,2l0,0L157.9,167.5l-12.7,40.7l42-12.8l134-128.6l0,0L335,53.7C345.1,44,348.3,30.3,338.2,20.6z
			 M81.1,253.9c0,4.6,3.8,8.2,8.6,8.2h168.7c4.7,0,8.6-3.7,8.6-8.2c0-4.6-3.8-11.5-8.6-11.5H89.7C85,242.5,81.1,249.4,81.1,253.9z
			 M124.7,183.1H90.4c-4.7,0-8.6,3.7-8.6,8.2c0,4.5,3.8,8.2,8.6,8.2h34.4c4.7,0,8.6-3.7,8.6-8.2
			C133.3,186.8,129.5,183.1,124.7,183.1z"/>
	</g>
</g>
</svg>
