<?xml version="1.0" encoding="utf-8"?>
<!-- Generator: Adobe Illustrator 22.0.1, SVG Export Plug-In . SVG Version: 6.00 Build 0)  -->
<svg version="1.0" id="图层_1" xmlns="http://www.w3.org/2000/svg" xmlns:xlink="http://www.w3.org/1999/xlink" x="0px" y="0px"
	 viewBox="0 0 360 360" style="enable-background:new 0 0 360 360;" xml:space="preserve">
<path d="M321.9,86.2h-47.1V39.1c0-13-10.6-23.6-23.6-23.6H39.1c-13,0-23.6,10.6-23.6,23.6v212.1c0,13,10.6,23.6,23.6,23.6h47.1v47.1
	c0,13,10.6,23.6,23.6,23.6h212.1c13,0,23.6-10.6,23.6-23.6V109.8C345.5,96.8,334.9,86.2,321.9,86.2L321.9,86.2z M321.9,321.9H109.8
	v-47.1h141.4c13,0,23.6-10.6,23.6-23.6V109.8h47.1L321.9,321.9z M321.9,321.9"/>
</svg>
