<?xml version="1.0" encoding="utf-8"?>
<!-- Generator: Adobe Illustrator 22.0.1, SVG Export Plug-In . SVG Version: 6.00 Build 0)  -->
<svg version="1.0" id="图层_1" xmlns="http://www.w3.org/2000/svg" xmlns:xlink="http://www.w3.org/1999/xlink" x="0px" y="0px"
	 viewBox="0 0 360 360" style="enable-background:new 0 0 360 360;" xml:space="preserve">
<path d="M338.6,62.7C314.2,45.5,285.2,36,255.5,36c-27.4,0-53.4,6.4-76.5,20.9C155.9,42.4,129.9,36,102.5,36
	c-30,0-58.7,9.1-83.1,26.6c-3.3,2.4-4.9,6.1-4.9,9.8v240.1c0,4.4,2.3,8.4,6.3,10.8c4,2,8.6,1.7,12.2-0.7
	c20.4-14.5,44.8-21.2,69.9-21.2s49.1,6.4,69.9,21.2c0.3,0,0.3,0.3,0.7,0.3s0.3,0.3,0.7,0.3c0.3,0.3,0.7,0.3,1,0.3
	c0.3,0.3,1,0.3,1.3,0.7c0.7,0,1.3,0.3,2,0.3c0.3,0,0.7,0,1,0h0.3c0.3,0,0.7,0,1,0c0.7,0,1.3-0.3,2-0.3c0.3,0,0.7-0.3,1.3-0.3
	c0.3,0,0.7-0.3,1-0.3c0.3,0,0.3-0.3,0.7-0.3s0.3-0.3,0.7-0.3c20.4-14.5,44.8-21.2,69.9-21.2c25.1,0,49.1,6.4,69.9,21.2
	c2,1.4,4.3,2,6.6,2c2,0,3.6-0.3,5.6-1.3c4-2,6.3-6.1,6.3-10.8V72.8C343.5,68.8,341.5,65,338.6,62.7L338.6,62.7z M169.1,296.4
	c-20.1-10.1-44.2-15.5-66.9-15.5s-50.4,5.4-70.5,15.5V74.5c38.9-24.6,98.6-24.6,137.5,0V296.4z M325.7,296.4
	c-20.1-10.1-47.8-15.5-70.5-15.5s-48.1,5.4-68.2,15.5V74.5c38.9-24.6,99.9-24.6,138.5,0v221.9H325.7z"/>
</svg>
