<?xml version="1.0" encoding="utf-8"?>
<!-- Generator: Adobe Illustrator 22.0.1, SVG Export Plug-In . SVG Version: 6.00 Build 0)  -->
<svg version="1.0" id="图层_1" xmlns="http://www.w3.org/2000/svg" xmlns:xlink="http://www.w3.org/1999/xlink" x="0px" y="0px"
	 viewBox="0 0 360 360" style="enable-background:new 0 0 360 360;" xml:space="preserve">
<g>
	<path d="M179.8,14.7c-91.1,0-165,73.9-165,165c0,91.1,73.9,165,165,165s165-73.9,165-165C344.8,88.6,271,14.7,179.8,14.7z
		 M179.8,335.6C93.8,335.6,24,265.8,24,179.7S93.8,23.9,179.8,23.9s155.8,69.8,155.8,155.8S265.9,335.6,179.8,335.6z"/>
	<path d="M164.6,184.2v-9.3h-69v9.4h6c4.2,14.1,11.2,25.9,21.1,35.4c-11.4,7.4-25.2,12.8-41.5,16.2c2,2.6,3.9,5.7,5.9,9.4
		c16.9-4.1,31.4-10.4,43.5-18.9c11.2,8.2,25.2,14.1,41.9,17.8c2-3.5,4.2-6.9,6.7-10.2c-16.2-2.6-29.7-7.3-40.3-14
		C149.9,210.3,158.5,198.3,164.6,184.2z M130.7,213.9c-9.1-7.8-15.6-17.7-19.3-29.6h42.1C148.1,196,140.5,205.9,130.7,213.9z"/>
	<path d="M96.4,172.5c13.8-8.5,20.6-21.4,20.5-38.7v-5h29.8v21.1c0,9.8,5.1,14.8,15.4,14.8h14.2c0.6-3.3,1.4-6.6,2.3-9.8h-15
		c-4.6,0-6.8-2.1-6.8-6.4v-29h-50v14.4c0,13.9-5.9,24-17.7,30.5C91.7,166.8,94.2,169.5,96.4,172.5z"/>
	<path d="M88.9,171.4c-4.9,1.7-9.6,3.2-14.2,4.7v-26.5h16.2v-9.4H74.6v-26H64.6v26H46.7v9.4h17.9v29.6c-6.8,2.1-13.3,4-19.6,5.7
		l1.3,11.1c6-2.1,12.1-4.3,18.3-6.3v36.5c0,4.3-1.8,6.4-5.5,6.4c-3.1,0-7.2-0.3-12.2-0.8c0.8,4.5,1.4,8.3,1.7,11.4h13
		c8.7,0,13-4.9,13-14.6v-42.2c4.8-1.6,9.6-3.1,14.5-4.6C88.9,177.8,88.8,174.3,88.9,171.4z"/>
	<path d="M227.6,139.8H194v37.3h9.4v-4.3h92v4.3h9.4v-37.3h-33.7v-12.5h41V119H186.9v8.3h40.7V139.8z M227.6,164.8h-24.2v-16.9h24.2
		V164.8z M271.1,147.9h24.3v16.9h-24.3V147.9z M237.2,127.4h24.2v12.5h-24.2V127.4z M237.2,147.9h24.2v16.9h-24.2V147.9z"/>
	<rect x="194.1" y="182.9" width="110.9" height="8.3"/>
	<path d="M219.9,212.6c-10.7,7.5-23.2,14.6-37.6,21.4c2.3,3.6,4.3,6.7,5.8,9.4c13.2-7.1,26.2-14.6,39.2-22.6L219.9,212.6z"/>
	<path d="M184.5,201.3v8.3h61.2v15.6c0,5.6-2.8,8.3-8.5,8.3c-4.1,0-9.6-0.3-16.4-0.9c0.8,4.1,1.4,7.7,1.7,10.6
		c7,0.1,12.8,0.1,17.6,0.1c10.5-0.1,15.7-5.4,15.7-16v-17.7h58.8v-8.3H184.5z"/>
	<path d="M268.5,221.6c12,6.2,25,13.4,39.1,21.6l6.3-9.9c-13.9-7.3-27.1-13.9-39.7-20L268.5,221.6z"/>
</g>
</svg>
