<?xml version="1.0" encoding="utf-8"?>
<!-- Generator: Adobe Illustrator 22.0.1, SVG Export Plug-In . SVG Version: 6.00 Build 0)  -->
<svg version="1.0" id="图层_1" xmlns="http://www.w3.org/2000/svg" xmlns:xlink="http://www.w3.org/1999/xlink" x="0px" y="0px"
	 viewBox="0 0 360 360" style="enable-background:new 0 0 360 360;" xml:space="preserve">
<g>
	<path d="M179.8,14.7c-91.1,0-165,73.9-165,165c0,91.1,73.9,165,165,165s165-73.9,165-165C344.8,88.6,270.9,14.7,179.8,14.7z
		 M179.8,335.6C93.7,335.6,24,265.8,24,179.7S93.7,23.9,179.8,23.9s155.8,69.8,155.8,155.8S265.9,335.6,179.8,335.6z"/>
	<path d="M161.3,150h15.8v-9.9h-58.5c3.1-7.6,6.1-15.5,9-23.8l-10.9-3.1c-5.1,18.5-13.4,37.7-24.8,57.6c3.1,3.1,5.6,6,7.3,8.6
		c2.7-4.5,5.3-9.2,7.8-14.1c3,19.2,9.7,35.3,20.1,48.2c-8.3,8.2-20.1,16.1-35.4,23.8c2.7,3,5,6.1,6.8,9c15.3-8,27.2-16.3,35.9-24.8
		c9.5,8.9,22.2,16.8,38.1,23.6c2.3-3.7,4.9-7.3,7.7-10.7c-16.7-6-29.6-13-38.7-21C153.3,197,159.9,175.9,161.3,150z M133.9,205.2
		c-11.3-15-17.6-33.4-18.9-55.2h35.7C149.7,172.4,144.1,190.8,133.9,205.2z"/>
	<path d="M79.7,192.8c-5.9,3.2-11.5,6.2-16.8,9v-68.7H52.7v66.6c0,4.8-1.4,8.6-4.2,11.5l7.7,9c2.2-2.3,4.5-4.3,6.8-6.1
		c5.6-3.7,11.2-7.1,16.7-10.1v41.4h10.2V114.3H79.7V192.8z"/>
	<path d="M282.7,217.7l10.1-3c-3.8-14.1-7.8-27.7-12-40.5l-9.3,2.7c2.4,8.1,4.7,16,6.8,23.9c-8.5,0.6-16.6,1.2-24.2,1.6
		c5.3-14,10.6-29.2,16-45.8l-10.2-2.4c-4.4,16.7-9,31.1-14,43c-1.5,3.4-3.8,6.1-7,8.1l4.2,8.7c4-1,8-1.7,12-2.1
		c7.5-0.9,16-1.6,25.5-2.3C281.3,212.3,282,215,282.7,217.7z"/>
	<path d="M214.4,210.4c2.4-9.6,3.6-23,3.6-40.4v-27h-9.7v30.9c0,18.4-1.7,31.5-5,39.2c-3.4,8.9-10.3,17.2-20.8,25
		c2.8,2.7,5.1,5.4,7.1,8.2c12.3-10.7,20-21.1,23.2-31.3c7.6,8.4,14.6,16.7,20.9,24.9l8.5-7.1c-6.9-7.8-14.9-16.4-24-25.9
		L214.4,210.4z"/>
	<path d="M259.8,134.5c2.3-5.8,4.6-12,6.7-18.4l-10.6-2.4c-4.4,17.2-11.1,32.6-20,46.3v-38.5h-45.4v84.1h9.7v-74.3h26v73.4h9.7v-44
		c3.8,1.6,6.9,3.3,9.5,5c3.6-6.4,7-13.6,10.3-21.4h44.8c-0.3,34.7-0.7,59.7-1.3,74.9c-0.5,9.2-5.5,13.9-14.9,14
		c-7.3-0.1-15.2-0.6-23.9-1.6c0.9,3.8,1.6,7.4,2.1,11c8.7,0.4,16.9,0.5,24.6,0.5c14.1,0,21.5-7.3,22.3-21.8
		c0.5-14.4,1.1-43.4,1.6-86.9H259.8z"/>
</g>
</svg>
