<?xml version="1.0" encoding="utf-8"?>
<!-- Generator: Adobe Illustrator 22.0.1, SVG Export Plug-In . SVG Version: 6.00 Build 0)  -->
<svg version="1.0" id="图层_1" xmlns="http://www.w3.org/2000/svg" xmlns:xlink="http://www.w3.org/1999/xlink" x="0px" y="0px"
	 viewBox="0 0 360 360" style="enable-background:new 0 0 360 360;" xml:space="preserve">
<g>
	<path d="M180.2,15.3c-91.1,0-165,73.9-165,165s73.9,165,165,165s165-73.9,165-165S271.4,15.3,180.2,15.3z M180.2,327
		c-81,0-146.7-65.7-146.7-146.7S99.2,33.7,180.2,33.7s146.7,65.7,146.7,146.7S261.3,327,180.2,327z"/>
	<path d="M108.9,120l-11.6,10.5c9.3,9.3,17.2,17.8,23.6,25.4l12.5-11.2C126.3,136.9,118.1,128.7,108.9,120z"/>
	<path d="M212.7,159.7v-44.3h65.5v-14.6h-55.4c4.2-5.4,8.6-11.5,13.3-18l-15.7-8.6c-5.8,9.7-11.5,18.5-17.1,26.6h-54.9l9-6.4
		c-5.7-7-11.9-13.9-18.5-20.6l-12.5,9c5.6,6.2,10.5,12.2,14.7,18h-59v14.6h65.5v44.3H75.4v14.6h209.7v-14.6H212.7z M197,159.7h-33.5
		v-44.3H197V159.7z"/>
	<path d="M237.4,156.5c8.3-8.5,16.5-17.5,24.5-27.1l-13.8-9.9c-7.4,10-15,19-22.8,26.9L237.4,156.5z"/>
	<path d="M105.5,286.9h16.3V277h116.9v9.9H255v-95H105.5V286.9z M121.8,206.5h116.9v20.8H121.8V206.5z M121.8,241.6h116.9v20.8
		H121.8V241.6z"/>
</g>
</svg>
