<?xml version="1.0" encoding="utf-8"?>
<!-- Generator: Adobe Illustrator 22.0.1, SVG Export Plug-In . SVG Version: 6.00 Build 0)  -->
<svg version="1.0" id="图层_1" xmlns="http://www.w3.org/2000/svg" xmlns:xlink="http://www.w3.org/1999/xlink" x="0px" y="0px"
	 viewBox="0 0 360 360" style="enable-background:new 0 0 360 360;" xml:space="preserve">
<path d="M298.4,15.5H62.6c-25.9,0-47.1,21.2-47.1,47.1v235.7c0,25.9,21.2,47.1,47.1,47.1h235.7c25.9,0,47.1-21.2,47.1-47.1V62.6
	C345.5,36.7,324.3,15.5,298.4,15.5z M298.3,216.2c-0.1,1.4-0.3,2.8-0.8,4.1c-0.4,0.8-1,1.5-1.5,2.2c-0.4,0.5-0.6,1.1-1,1.6l-50,50
	c-4.6,4.6-12.1,4.6-16.7,0c-4.6-4.6-4.6-12.1,0-16.7l29.9-29.9H74.4c-6.5,0-11.8-5.3-11.8-11.8c0-6.5,5.3-11.8,11.8-11.8h212.1l0,0
	c1.6,0,3.1,0.3,4.5,0.9c0.3,0.1,0.6,0.4,0.9,0.6c1,0.5,2.1,1.1,2.9,1.9c0.9,0.9,1.4,1.9,1.9,2.9c0.2,0.3,0.4,0.5,0.6,0.9
	c0.6,1.4,0.9,3,0.9,4.5v0C298.4,216,298.3,216.1,298.3,216.2z M286.6,156.9H74.4h0c-1.5,0-3.1-0.3-4.5-0.9c-0.3-0.1-0.5-0.4-0.8-0.5
	c-1-0.5-2.1-1.1-3-2c-0.9-0.9-1.4-1.9-2-3c-0.1-0.3-0.4-0.5-0.5-0.8c-0.6-1.5-0.9-3-0.9-4.5l0,0c0-0.1,0.1-0.2,0.1-0.3
	c0-1.4,0.3-2.9,0.9-4.3c0.3-0.8,0.9-1.5,1.5-2.2c0.4-0.5,0.6-1.1,1.1-1.6l50-50c4.6-4.6,12.1-4.6,16.7,0c4.6,4.6,4.6,12.1,0,16.7
	l-29.9,29.9h183.7c6.5,0,11.8,5.3,11.8,11.8C298.4,151.6,293.1,156.9,286.6,156.9z"/>
</svg>
