<?xml version="1.0" encoding="utf-8"?>
<!-- Generator: Adobe Illustrator 22.0.1, SVG Export Plug-In . SVG Version: 6.00 Build 0)  -->
<svg version="1.0" id="图层_1" xmlns="http://www.w3.org/2000/svg" xmlns:xlink="http://www.w3.org/1999/xlink" x="0px" y="0px"
	 viewBox="0 0 360 360" style="enable-background:new 0 0 360 360;" xml:space="preserve">
<style type="text/css">
	.st0{fill-rule:evenodd;clip-rule:evenodd;}
</style>
<g>
	<g>
		<path class="st0" d="M180.5,15.2c-91.1,0-165,73.9-165,165c0,91.1,73.9,165,165,165s165-73.9,165-165
			C345.5,89,271.6,15.2,180.5,15.2z M180.5,321.6c-78.1,0-141.4-63.3-141.4-141.4c0-78.1,63.3-141.4,141.4-141.4
			c78.1,0,141.4,63.3,141.4,141.4C321.9,258.3,258.6,321.6,180.5,321.6z M192.3,138.9h-47.1v23.6h23.6v94.3h-23.6v23.6h70.7v-23.6
			h-23.6V138.9z M174.6,115.3c9.8,0,17.7-7.9,17.7-17.7c0-9.8-7.9-17.7-17.7-17.7c-9.8,0-17.7,7.9-17.7,17.7
			C156.9,107.4,164.8,115.3,174.6,115.3z"/>
	</g>
</g>
</svg>
