<?xml version="1.0" encoding="utf-8"?>
<!-- Generator: Adobe Illustrator 22.0.1, SVG Export Plug-In . SVG Version: 6.00 Build 0)  -->
<svg version="1.0" id="图层_1" xmlns="http://www.w3.org/2000/svg" xmlns:xlink="http://www.w3.org/1999/xlink" x="0px" y="0px"
	 viewBox="0 0 360 360" style="enable-background:new 0 0 360 360;" xml:space="preserve">
<path d="M298.4,15.5H62.6c-25.9,0-47.1,21.2-47.1,47.1v235.7c0,25.9,21.2,47.1,47.1,47.1h235.7c25.9,0,47.1-21.2,47.1-47.1V62.6
	C345.5,36.7,324.3,15.5,298.4,15.5z M273.2,128.7c-7.6,44.4-46.1,78.3-92.7,78.3s-85-33.9-92.7-78.3C73.3,124.3,62.6,111,62.6,95
	c0-19.5,15.8-35.4,35.4-35.4c19.5,0,35.4,15.8,35.4,35.4c0,14.8-9.1,27.4-21.9,32.7c6.9,31.8,35.1,55.7,69.1,55.7
	c33.9,0,62.2-23.9,69-55.7c-12.8-5.3-21.9-17.9-21.9-32.7c0-19.5,15.8-35.4,35.4-35.4c19.5,0,35.4,15.8,35.4,35.4
	C298.4,111,287.7,124.3,273.2,128.7z"/>
</svg>
