<?xml version="1.0" encoding="utf-8"?>
<!-- Generator: Adobe Illustrator 22.0.1, SVG Export Plug-In . SVG Version: 6.00 Build 0)  -->
<svg version="1.0" id="图层_1" xmlns="http://www.w3.org/2000/svg" xmlns:xlink="http://www.w3.org/1999/xlink" x="0px" y="0px"
	 viewBox="0 0 360 360" style="enable-background:new 0 0 360 360;" xml:space="preserve">
<g>
	<path d="M179.5,15.3c-91.1,0-165,73.9-165,165s73.9,165,165,165s165-73.9,165-165S270.6,15.3,179.5,15.3z M179.5,327
		c-81,0-146.7-65.7-146.7-146.7S98.5,33.7,179.5,33.7s146.7,65.7,146.7,146.7S260.5,327,179.5,327z"/>
	<path d="M163.9,187.2c-7.9-9.5-18.3-20.3-31.2-32.4l-9.2,8.6V135h30.3v-15h-30.3V74.4h-16.3v45.5H73.7v15h30.7
		c-7.3,27.6-18.3,52.6-32.9,75c2.9,6.4,5.3,12.7,7.3,18.9c11.2-16.6,20.6-37,28.4-61v117.7h16.3V167.2c8.7,9.2,17.9,19.8,27.5,32
		L163.9,187.2z"/>
	<path d="M226,224.6c23.6-30.5,38.8-70.7,45.5-120.5V88.4h-122v16.1h13.3c5.2,53,18.5,93.1,40.2,120.3c-15.9,15.9-39,30.9-69.2,45.1
		c4.9,5.7,8.9,11.2,12,16.3c29.2-14.8,52-30.7,68.3-47.7c14.6,15.6,34.2,29.8,58.9,42.5c3.4-5.2,8.2-11.1,14.4-17.8
		C262,253.1,241.5,240.2,226,224.6z M180.1,104.5h73.3c-6,44.7-18.9,80.3-38.7,106.8C195.9,186.3,184.4,150.7,180.1,104.5z"/>
</g>
</svg>
