<?xml version="1.0" encoding="utf-8"?>
<!-- Generator: Adobe Illustrator 22.0.1, SVG Export Plug-In . SVG Version: 6.00 Build 0)  -->
<svg version="1.0" id="图层_1" xmlns="http://www.w3.org/2000/svg" xmlns:xlink="http://www.w3.org/1999/xlink" x="0px" y="0px"
	 viewBox="0 0 360 360" style="enable-background:new 0 0 360 360;" xml:space="preserve">
<style type="text/css">
	.st0{fill-rule:evenodd;clip-rule:evenodd;}
</style>
<path class="st0" d="M203.4,70.5L45.6,181l157.9,110.5c5.1,3.6,6.4,10.7,2.8,15.8c-3.6,5.1-10.7,6.4-15.8,2.8L19.3,190.3
	c-0.1-0.1-0.3-0.2-0.4-0.3c0,0,0,0-0.1,0c-0.3-0.2-0.5-0.4-0.8-0.7c0,0-0.1-0.1-0.1-0.1c-0.2-0.2-0.4-0.4-0.7-0.7
	c-0.1-0.1-0.1-0.1-0.2-0.2c-0.2-0.2-0.4-0.4-0.5-0.7c0,0-0.1-0.1-0.1-0.1l0,0c0-0.1-0.1-0.1-0.1-0.2c-0.1-0.2-0.3-0.4-0.4-0.6
	c-0.1-0.1-0.2-0.3-0.2-0.4c-0.1-0.2-0.2-0.3-0.2-0.5c-0.1-0.2-0.2-0.4-0.3-0.6c0-0.1-0.1-0.2-0.1-0.3c-0.1-0.2-0.2-0.5-0.2-0.7
	c0-0.1-0.1-0.2-0.1-0.3c-0.1-0.3-0.1-0.5-0.2-0.8c0-0.1,0-0.2-0.1-0.3c0-0.2-0.1-0.5-0.1-0.7c0-0.1,0-0.3,0-0.4c0-0.2,0-0.4,0-0.6
	c0-0.2,0-0.4,0-0.6c0-0.1,0-0.3,0-0.4c0-0.2,0.1-0.5,0.1-0.7c0-0.1,0-0.2,0.1-0.3c0-0.3,0.1-0.5,0.2-0.8c0-0.1,0-0.2,0.1-0.3
	c0.1-0.2,0.2-0.5,0.2-0.7c0-0.1,0.1-0.2,0.1-0.3c0.1-0.2,0.2-0.4,0.3-0.6c0.1-0.2,0.1-0.3,0.2-0.5c0.1-0.2,0.2-0.3,0.2-0.4
	c0.1-0.2,0.2-0.4,0.4-0.6c0-0.1,0.1-0.1,0.1-0.2h0c0,0,0.1-0.1,0.1-0.1c0.2-0.2,0.3-0.5,0.5-0.7c0-0.1,0.1-0.1,0.2-0.2
	c0.2-0.2,0.4-0.5,0.7-0.7c0,0,0.1-0.1,0.1-0.1c0.2-0.2,0.5-0.5,0.8-0.7c0,0,0,0,0.1,0c0.1-0.1,0.3-0.2,0.4-0.3L190.4,51.9
	c5.1-3.6,12.2-2.3,15.8,2.8l0,0C209.8,59.8,208.6,66.9,203.4,70.5z"/>
<path class="st0" d="M339.7,70.5L181.8,181l157.9,110.5c5.1,3.6,6.4,10.7,2.8,15.8c-3.6,5.1-10.7,6.4-15.8,2.8L155.6,190.3
	c-0.1-0.1-0.3-0.2-0.4-0.3c0,0,0,0-0.1,0c-0.3-0.2-0.5-0.4-0.8-0.7c0,0-0.1-0.1-0.1-0.1c-0.2-0.2-0.4-0.4-0.7-0.7
	c-0.1-0.1-0.1-0.1-0.2-0.2c-0.2-0.2-0.4-0.4-0.5-0.7c0,0-0.1-0.1-0.1-0.1l0,0c0-0.1-0.1-0.1-0.1-0.2c-0.1-0.2-0.3-0.4-0.4-0.6
	c-0.1-0.1-0.2-0.3-0.2-0.4c-0.1-0.2-0.2-0.3-0.2-0.5c-0.1-0.2-0.2-0.4-0.3-0.6c0-0.1-0.1-0.2-0.1-0.3c-0.1-0.2-0.2-0.5-0.2-0.7
	c0-0.1-0.1-0.2-0.1-0.3c-0.1-0.3-0.1-0.5-0.2-0.8c0-0.1,0-0.2-0.1-0.3c0-0.2-0.1-0.5-0.1-0.7c0-0.1,0-0.3,0-0.4c0-0.2,0-0.4,0-0.6
	c0-0.2,0-0.4,0-0.6c0-0.1,0-0.3,0-0.4c0-0.2,0.1-0.5,0.1-0.7c0-0.1,0-0.2,0.1-0.3c0-0.3,0.1-0.5,0.2-0.8c0-0.1,0-0.2,0.1-0.3
	c0.1-0.2,0.2-0.5,0.2-0.7c0-0.1,0.1-0.2,0.1-0.3c0.1-0.2,0.2-0.4,0.3-0.6c0.1-0.2,0.1-0.3,0.2-0.5c0.1-0.2,0.2-0.3,0.2-0.4
	c0.1-0.2,0.2-0.4,0.4-0.6c0-0.1,0.1-0.1,0.1-0.2h0c0,0,0.1-0.1,0.1-0.1c0.2-0.2,0.3-0.5,0.5-0.7c0-0.1,0.1-0.1,0.2-0.2
	c0.2-0.2,0.4-0.5,0.7-0.7c0,0,0.1-0.1,0.1-0.1c0.2-0.2,0.5-0.5,0.8-0.7c0,0,0,0,0.1,0c0.1-0.1,0.3-0.2,0.4-0.3L326.7,51.9
	c5.1-3.6,12.2-2.3,15.8,2.8l0,0C346,59.8,344.8,66.9,339.7,70.5z"/>
</svg>
