<?xml version="1.0" encoding="utf-8"?>
<!-- Generator: Adobe Illustrator 22.0.1, SVG Export Plug-In . SVG Version: 6.00 Build 0)  -->
<svg version="1.0" id="图层_1" xmlns="http://www.w3.org/2000/svg" xmlns:xlink="http://www.w3.org/1999/xlink" x="0px" y="0px"
	 viewBox="0 0 360 360" style="enable-background:new 0 0 360 360;" xml:space="preserve">
<style type="text/css">
	.st0{fill-rule:evenodd;clip-rule:evenodd;}
</style>
<path class="st0" d="M298.3,319.6L99.7,180.5L298.3,41.4c6.4-4.5,8-13.4,3.5-19.9c-4.5-6.4-13.4-8-19.9-3.5L66.7,168.8
	c-0.2,0.1-0.3,0.3-0.5,0.4c0,0,0,0-0.1,0.1c-0.3,0.3-0.7,0.5-1,0.8c0,0-0.1,0.1-0.1,0.1c-0.3,0.3-0.6,0.6-0.8,0.9
	c-0.1,0.1-0.1,0.1-0.2,0.2c-0.2,0.3-0.5,0.6-0.7,0.9c0,0.1-0.1,0.1-0.1,0.2l0,0c0,0.1-0.1,0.1-0.1,0.2c-0.2,0.2-0.3,0.5-0.5,0.8
	c-0.1,0.2-0.2,0.4-0.3,0.6c-0.1,0.2-0.2,0.4-0.3,0.6c-0.1,0.3-0.2,0.5-0.3,0.8c-0.1,0.1-0.1,0.3-0.2,0.4c-0.1,0.3-0.2,0.6-0.3,0.9
	c0,0.1-0.1,0.2-0.1,0.4c-0.1,0.3-0.2,0.6-0.2,1c0,0.1,0,0.3-0.1,0.4c0,0.3-0.1,0.6-0.1,0.9c0,0.2,0,0.4,0,0.6c0,0.3,0,0.5,0,0.8
	c0,0.3,0,0.5,0,0.8c0,0.2,0,0.4,0,0.6c0,0.3,0.1,0.6,0.1,0.9c0,0.1,0,0.3,0.1,0.4c0.1,0.3,0.1,0.7,0.2,1c0,0.1,0.1,0.2,0.1,0.4
	c0.1,0.3,0.2,0.6,0.3,0.9c0.1,0.1,0.1,0.3,0.2,0.4c0.1,0.3,0.2,0.5,0.3,0.8c0.1,0.2,0.2,0.4,0.3,0.6c0.1,0.2,0.2,0.4,0.3,0.6
	c0.2,0.3,0.3,0.5,0.5,0.8c0,0.1,0.1,0.1,0.1,0.2h0c0,0.1,0.1,0.1,0.1,0.2c0.2,0.3,0.4,0.6,0.7,0.9c0.1,0.1,0.1,0.1,0.2,0.2
	c0.3,0.3,0.5,0.6,0.8,0.9c0,0,0.1,0.1,0.1,0.1c0.3,0.3,0.6,0.6,1,0.8c0,0,0,0,0.1,0.1c0.2,0.1,0.3,0.3,0.5,0.4L282,342.9
	c6.4,4.5,15.4,2.9,19.9-3.5l0,0C306.3,333,304.7,324.1,298.3,319.6z"/>
</svg>
