<?xml version="1.0" encoding="utf-8"?>
<!-- Generator: Adobe Illustrator 22.0.1, SVG Export Plug-In . SVG Version: 6.00 Build 0)  -->
<svg version="1.0" id="图层_1" xmlns="http://www.w3.org/2000/svg" xmlns:xlink="http://www.w3.org/1999/xlink" x="0px" y="0px"
	 viewBox="0 0 360 360" style="enable-background:new 0 0 360 360;" xml:space="preserve">
<style type="text/css">
	.st0{fill-rule:evenodd;clip-rule:evenodd;}
</style>
<path class="st0" d="M155.6,70.5L313.4,181L155.6,291.5c-5.1,3.6-6.4,10.7-2.8,15.8c3.6,5.1,10.7,6.4,15.8,2.8l171.1-119.8
	c0.1-0.1,0.3-0.2,0.4-0.3c0,0,0,0,0.1,0c0.3-0.2,0.5-0.4,0.8-0.7c0,0,0.1-0.1,0.1-0.1c0.2-0.2,0.4-0.4,0.7-0.7
	c0.1-0.1,0.1-0.1,0.2-0.2c0.2-0.2,0.4-0.4,0.5-0.7c0,0,0.1-0.1,0.1-0.1l0,0c0-0.1,0.1-0.1,0.1-0.2c0.1-0.2,0.3-0.4,0.4-0.6
	c0.1-0.1,0.2-0.3,0.2-0.4c0.1-0.2,0.2-0.3,0.2-0.5c0.1-0.2,0.2-0.4,0.3-0.6c0-0.1,0.1-0.2,0.1-0.3c0.1-0.2,0.2-0.5,0.2-0.7
	c0-0.1,0.1-0.2,0.1-0.3c0.1-0.3,0.1-0.5,0.2-0.8c0-0.1,0-0.2,0.1-0.3c0-0.2,0.1-0.5,0.1-0.7c0-0.1,0-0.3,0-0.4c0-0.2,0-0.4,0-0.6
	c0-0.2,0-0.4,0-0.6c0-0.1,0-0.3,0-0.4c0-0.2-0.1-0.5-0.1-0.7c0-0.1,0-0.2-0.1-0.3c0-0.3-0.1-0.5-0.2-0.8c0-0.1,0-0.2-0.1-0.3
	c-0.1-0.2-0.2-0.5-0.2-0.7c0-0.1-0.1-0.2-0.1-0.3c-0.1-0.2-0.2-0.4-0.3-0.6c-0.1-0.2-0.1-0.3-0.2-0.5c-0.1-0.2-0.2-0.3-0.2-0.4
	c-0.1-0.2-0.2-0.4-0.4-0.6c0-0.1-0.1-0.1-0.1-0.2h0c0,0-0.1-0.1-0.1-0.1c-0.2-0.2-0.3-0.5-0.5-0.7c0-0.1-0.1-0.1-0.2-0.2
	c-0.2-0.2-0.4-0.5-0.7-0.7c0,0-0.1-0.1-0.1-0.1c-0.2-0.2-0.5-0.5-0.8-0.7c0,0,0,0-0.1,0c-0.1-0.1-0.3-0.2-0.4-0.3L168.6,51.9
	c-5.1-3.6-12.2-2.3-15.8,2.8l0,0C149.2,59.8,150.5,66.9,155.6,70.5z"/>
<path class="st0" d="M19.3,70.5L177.2,181L19.3,291.5c-5.1,3.6-6.4,10.7-2.8,15.8c3.6,5.1,10.7,6.4,15.8,2.8l171.1-119.8
	c0.1-0.1,0.3-0.2,0.4-0.3c0,0,0,0,0.1,0c0.3-0.2,0.5-0.4,0.8-0.7c0,0,0.1-0.1,0.1-0.1c0.2-0.2,0.4-0.4,0.7-0.7
	c0.1-0.1,0.1-0.1,0.2-0.2c0.2-0.2,0.4-0.4,0.5-0.7c0,0,0.1-0.1,0.1-0.1l0,0c0-0.1,0.1-0.1,0.1-0.2c0.1-0.2,0.3-0.4,0.4-0.6
	c0.1-0.1,0.2-0.3,0.2-0.4c0.1-0.2,0.2-0.3,0.2-0.5c0.1-0.2,0.2-0.4,0.3-0.6c0-0.1,0.1-0.2,0.1-0.3c0.1-0.2,0.2-0.5,0.2-0.7
	c0-0.1,0.1-0.2,0.1-0.3c0.1-0.3,0.1-0.5,0.2-0.8c0-0.1,0-0.2,0.1-0.3c0-0.2,0.1-0.5,0.1-0.7c0-0.1,0-0.3,0-0.4c0-0.2,0-0.4,0-0.6
	c0-0.2,0-0.4,0-0.6c0-0.1,0-0.3,0-0.4c0-0.2-0.1-0.5-0.1-0.7c0-0.1,0-0.2-0.1-0.3c0-0.3-0.1-0.5-0.2-0.8c0-0.1,0-0.2-0.1-0.3
	c-0.1-0.2-0.2-0.5-0.2-0.7c0-0.1-0.1-0.2-0.1-0.3c-0.1-0.2-0.2-0.4-0.3-0.6c-0.1-0.2-0.1-0.3-0.2-0.5c-0.1-0.2-0.2-0.3-0.2-0.4
	c-0.1-0.2-0.2-0.4-0.4-0.6c0-0.1-0.1-0.1-0.1-0.2h0c0,0-0.1-0.1-0.1-0.1c-0.2-0.2-0.3-0.5-0.5-0.7c0-0.1-0.1-0.1-0.2-0.2
	c-0.2-0.2-0.4-0.5-0.7-0.7c0,0-0.1-0.1-0.1-0.1c-0.2-0.2-0.5-0.5-0.8-0.7c0,0,0,0-0.1,0c-0.1-0.1-0.3-0.2-0.4-0.3L32.3,51.9
	c-5.1-3.6-12.2-2.3-15.8,2.8l0,0C13,59.8,14.2,66.9,19.3,70.5z"/>
</svg>
