<?xml version="1.0" encoding="utf-8"?>
<!-- Generator: Adobe Illustrator 22.0.1, SVG Export Plug-In . SVG Version: 6.00 Build 0)  -->
<svg version="1.0" id="图层_1" xmlns="http://www.w3.org/2000/svg" xmlns:xlink="http://www.w3.org/1999/xlink" x="0px" y="0px"
	 viewBox="0 0 360 360" style="enable-background:new 0 0 360 360;" xml:space="preserve">
<path d="M298.4,40H62.6c-25.9,0-47.1,21.2-47.1,47.1v188.6c0,25.9,21.2,47.1,47.1,47.1h235.7c25.9,0,47.1-21.2,47.1-47.1V87.2
	C345.5,61.3,324.3,40,298.4,40z M180.3,240.4c0,6.5-5.3,11.8-11.8,11.8c-6.5,0-11.8-5.3-11.8-11.8v-50.1H86v50.1
	c0,6.5-5.3,11.8-11.8,11.8c-6.5,0-11.8-5.3-11.8-11.8V122.5c0-6.5,5.3-11.8,11.8-11.8c6.5,0,11.8,5.3,11.8,11.8v44.2h70.7v-44.2
	c0-6.5,5.3-11.8,11.8-11.8c6.5,0,11.8,5.3,11.8,11.8V240.4z M290.7,232.1c4.6,4.6,4.6,12.1,0,16.7c-4.6,4.6-12.1,4.6-16.7,0
	l-46.5-46.5v38.2c0,6.5-5.3,11.8-11.8,11.8c-6.5,0-11.8-5.3-11.8-11.8V122.5c0-6.5,5.3-11.8,11.8-11.8c6.5,0,11.8,5.3,11.8,11.8
	v38.2l46.5-46.5c4.6-4.6,12.1-4.6,16.7,0c4.6,4.6,4.6,12.1,0,16.7l-50.6,50.6L290.7,232.1z"/>
</svg>
