<?xml version="1.0" encoding="utf-8"?>
<!-- Generator: Adobe Illustrator 22.0.1, SVG Export Plug-In . SVG Version: 6.00 Build 0)  -->
<svg version="1.0" id="图层_1" xmlns="http://www.w3.org/2000/svg" xmlns:xlink="http://www.w3.org/1999/xlink" x="0px" y="0px"
	 viewBox="0 0 360 360" style="enable-background:new 0 0 360 360;" xml:space="preserve">
<g>
	<path d="M179.6,14.3c-91.1,0-165,73.9-165,165c0,91.1,73.9,165,165,165s165-73.9,165-165C344.6,88.2,270.7,14.3,179.6,14.3z
		 M179.6,322.3c-79,0-143-64-143-143s64-143,143-143s143,64,143,143S258.6,322.3,179.6,322.3z"/>
	<path d="M148.6,187.6h15.7v-16.5h-15.7v-24.6h-17.8v24.6h-12.1c3.9-9.9,7.6-21.6,11.3-35.4h33.6v-17.6h-29.4l3.5-17.4L120.3,98
		c-1.4,8.3-2.7,15-3.9,20.1H99v17.6h13.4c-4,14.9-8.1,26.8-12.3,35.7l4,16.2h26.7v21.8c-10.3,1.6-21.1,3.1-32.4,4.2l2.5,18
		c13-1.8,23-3.3,29.9-4.6v34h17.8v-37.5c3.7-0.8,9.4-2.2,16.9-4v-17.1c-4.2,1.1-9.9,2.3-16.9,3.9V187.6z"/>
	<path d="M252.3,114.8c-3.6-5.2-8.5-10.8-14.6-17.1l-12,7.4c3.9,4,7.7,8.4,11.6,13.4H221V98.7h-17.4v19.7h-35.4v17.2h35.4v11.4
		h-33.3v113.5h16.9v-37h16.4v35.9H221v-35.9h17.8v14.8c0,3.5-1.8,5.3-5.3,5.3l-9.5-0.9l4.4,17.1h10.9c10.9,0,16.4-5.9,16.4-17.8v-95
		H221v-11.4h39.8v-17.2h-13.6L252.3,114.8z M203.5,208.2h-16.4v-14.6h16.4V208.2z M203.5,178.1h-16.4v-14.8h16.4V178.1z
		 M238.7,208.2H221v-14.6h17.8V208.2z M238.7,163.3v14.8H221v-14.8H238.7z"/>
</g>
</svg>
