<?xml version="1.0" encoding="utf-8"?>
<!-- Generator: Adobe Illustrator 22.0.1, SVG Export Plug-In . SVG Version: 6.00 Build 0)  -->
<svg version="1.0" id="图层_1" xmlns="http://www.w3.org/2000/svg" xmlns:xlink="http://www.w3.org/1999/xlink" x="0px" y="0px"
	 viewBox="0 0 360 360" style="enable-background:new 0 0 360 360;" xml:space="preserve">
<g>
	<path d="M179.9,15c-91.1,0-165,73.9-165,165c0,91.1,73.9,165,165,165s165-73.9,165-165C344.9,88.9,271,15,179.9,15z M179.9,335.8
		c-86.1,0-155.8-69.8-155.8-155.8S93.8,24.2,179.9,24.2S335.7,93.9,335.7,180S266,335.8,179.9,335.8z"/>
	<path d="M165.7,224.6c-0.7,5.3-3.7,7.9-9,7.9h-12.8c-6.1,0-9.1-3.5-9.1-10.6v-46.5h25.9v5.2h9.7v-58.9h-47.5v9.4h37.9V166h-35.6
		v57.2c0,12.6,5.3,18.9,16,18.9h17.3c9.8,0,15.4-4.8,16.9-14.2c1.3-6.5,2.2-13.4,2.8-20.7c-4.2-1.7-7.6-3.2-10.1-4.4
		C167.6,211.3,166.8,218.6,165.7,224.6z"/>
	<path d="M47,131.7h22.6v17.6H51.1v96h9v-8.7h46.2v8.6h9v-95.9H95.9v-17.6h22.3v-8.9H47V131.7z M60.1,157.8h9.4v4.7
		c0,12.1-3.1,21.7-9.4,28.8V157.8z M106.3,227.9H60.1v-16.1h46.2V227.9z M95.9,157.8h10.5v24.3h-5.5c-3.5,0.3-5.1-1.6-5-5.6V157.8z
		 M78.1,131.7h9.1v17.6h-9.1V131.7z M78.1,157.8h9.1v21.6c0,7.3,3.2,11,9.5,11h9.5v12.9H60.1v-11.1c2.4,2.3,4.7,4.5,6.8,6.6
		c7.4-9.4,11.1-21.3,11.1-35.6V157.8z"/>
	<path d="M199,247h9.9v-6.9h81.6v6.9h9.9v-43.2H199V247z M208.9,212.4h81.6v19.2h-81.6V212.4z"/>
	<path d="M262.5,185V175H306v-8.3h-43.5V157H306v-8.3h-43.5V139h47.7v-8.3H261l5.1-3.1c-3.1-4.7-6.7-9.5-10.6-14.6l-8.6,5.1
		c3.1,4.3,6,8.5,8.5,12.6h-40.8c2.6-4.2,5.1-8.6,7.7-13.3l-9.7-3.5c-7.6,16.1-18.1,30.4-31.4,42.8c2.4,2.9,4.5,5.7,6.3,8.5
		c3.8-3.8,7.6-7.9,11.3-12.2v45.5h9.9v-5.2h104.2V185H262.5z M252.6,185h-43.9V175h43.9V185z M252.6,166.7h-43.9V157h43.9V166.7z
		 M252.6,148.7h-43.9v-8.9l0.5-0.8h43.4V148.7z"/>
</g>
</svg>
